Belanosima-Semibold.ufo
<glyph name="exclam" format="2">
  <advance width="573"/>
  <unicode hex="0021"/>
  <outline>
    <contour>
      <point x="96" y="1563" type="curve" smooth="yes"/>
      <point x="96" y="1298"/>
      <point x="101" y="1032"/>
      <point x="101" y="767" type="curve" smooth="yes"/>
      <point x="101" y="670"/>
      <point x="100" y="573"/>
      <point x="100" y="476" type="curve" smooth="yes"/>
      <point x="100" y="442"/>
      <point x="117" y="425"/>
      <point x="151" y="425" type="curve" smooth="yes"/>
      <point x="409" y="425" type="line" smooth="yes"/>
      <point x="443" y="425"/>
      <point x="460" y="442"/>
      <point x="460" y="476" type="curve" smooth="yes"/>
      <point x="460" y="733" type="line" smooth="yes"/>
      <point x="460" y="1009"/>
      <point x="464" y="1286"/>
      <point x="464" y="1563" type="curve" smooth="yes"/>
      <point x="464" y="1598"/>
      <point x="449" y="1615"/>
      <point x="413" y="1615" type="curve" smooth="yes"/>
      <point x="147" y="1615" type="line" smooth="yes"/>
      <point x="111" y="1615"/>
      <point x="96" y="1598"/>
    </contour>
    <contour>
      <point x="49" y="120" type="curve" smooth="yes"/>
      <point x="49" y="1"/>
      <point x="192" y="-40"/>
      <point x="289" y="-40" type="curve" smooth="yes"/>
      <point x="387" y="-40"/>
      <point x="526" y="-1"/>
      <point x="526" y="120" type="curve" smooth="yes"/>
      <point x="526" y="233"/>
      <point x="419" y="284"/>
      <point x="320" y="284" type="curve" smooth="yes"/>
      <point x="229" y="284"/>
      <point x="49" y="236"/>
    </contour>
  </outline>
</glyph>
<glyph name="quotedbl" format="2">
  <advance width="801"/>
  <unicode hex="0022"/>
  <outline>
    <contour>
      <point x="321" y="1554" type="curve" smooth="yes"/>
      <point x="126" y="1554" type="line" smooth="yes"/>
      <point x="90" y="1554"/>
      <point x="75" y="1537"/>
      <point x="75" y="1502" type="curve" smooth="yes"/>
      <point x="75" y="1358"/>
      <point x="81" y="1213"/>
      <point x="81" y="1069" type="curve" smooth="yes"/>
      <point x="81" y="1035"/>
      <point x="98" y="1018"/>
      <point x="132" y="1018" type="curve" smooth="yes"/>
      <point x="313" y="1018" type="line" smooth="yes"/>
      <point x="349" y="1018"/>
      <point x="362" y="1035"/>
      <point x="364" y="1069" type="curve" smooth="yes"/>
      <point x="367" y="1125"/>
      <point x="366" y="1181"/>
      <point x="367" y="1237" type="curve" smooth="yes"/>
      <point x="369" y="1325"/>
      <point x="372" y="1414"/>
      <point x="372" y="1502" type="curve" smooth="yes"/>
      <point x="372" y="1537"/>
      <point x="357" y="1554"/>
    </contour>
    <contour>
      <point x="698" y="1554" type="curve" smooth="yes"/>
      <point x="504" y="1554" type="line" smooth="yes"/>
      <point x="470" y="1554"/>
      <point x="453" y="1537"/>
      <point x="453" y="1503" type="curve" smooth="yes"/>
      <point x="453" y="1358"/>
      <point x="452" y="1214"/>
      <point x="452" y="1069" type="curve" smooth="yes"/>
      <point x="452" y="1035"/>
      <point x="469" y="1018"/>
      <point x="503" y="1018" type="curve" smooth="yes"/>
      <point x="683" y="1018" type="line" smooth="yes"/>
      <point x="718" y="1018"/>
      <point x="732" y="1035"/>
      <point x="734" y="1068" type="curve" smooth="yes"/>
      <point x="739" y="1133"/>
      <point x="738" y="1199"/>
      <point x="740" y="1264" type="curve" smooth="yes"/>
      <point x="743" y="1343"/>
      <point x="749" y="1422"/>
      <point x="749" y="1501" type="curve" smooth="yes"/>
      <point x="749" y="1537"/>
      <point x="735" y="1554"/>
    </contour>
  </outline>
</glyph>
<glyph name="numbersign" format="2">
  <advance width="1454"/>
  <unicode hex="0023"/>
  <outline>
    <contour>
      <point x="653" y="1390" type="curve" smooth="yes"/>
      <point x="453" y="1390" type="line" smooth="yes"/>
      <point x="423" y="1390"/>
      <point x="408" y="1376"/>
      <point x="403" y="1347" type="curve" smooth="yes"/>
      <point x="386" y="1251"/>
      <point x="376" y="1151"/>
      <point x="354" y="1056" type="curve" smooth="yes"/>
      <point x="352" y="1047"/>
      <point x="348" y="1042"/>
      <point x="338" y="1042" type="curve" smooth="yes"/>
      <point x="176" y="1042" type="line" smooth="yes"/>
      <point x="144" y="1042"/>
      <point x="128" y="1027"/>
      <point x="125" y="996" type="curve" smooth="yes"/>
      <point x="117" y="925"/>
      <point x="113" y="854"/>
      <point x="107" y="783" type="curve"/>
      <point x="107" y="773" type="line"/>
      <point x="107" y="739"/>
      <point x="127" y="726"/>
      <point x="159" y="726" type="curve" smooth="yes"/>
      <point x="300" y="726" type="line" smooth="yes"/>
      <point x="309" y="726"/>
      <point x="317" y="723"/>
      <point x="317" y="713" type="curve" smooth="yes"/>
      <point x="317" y="707"/>
      <point x="304" y="664"/>
      <point x="301" y="658" type="curve"/>
      <point x="298" y="651"/>
      <point x="294" y="647"/>
      <point x="286" y="647" type="curve" smooth="yes"/>
      <point x="122" y="647" type="line" smooth="yes"/>
      <point x="90" y="647"/>
      <point x="75" y="632"/>
      <point x="71" y="601" type="curve" smooth="yes"/>
      <point x="44" y="385" type="line"/>
      <point x="43" y="381"/>
      <point x="43" y="376"/>
      <point x="43" y="372" type="curve" smooth="yes"/>
      <point x="43" y="339"/>
      <point x="64" y="328"/>
      <point x="94" y="328" type="curve" smooth="yes"/>
      <point x="240" y="328" type="line" smooth="yes"/>
      <point x="249" y="328"/>
      <point x="256" y="324"/>
      <point x="256" y="314" type="curve"/>
      <point x="256" y="309" type="line"/>
      <point x="244" y="226"/>
      <point x="224" y="143"/>
      <point x="209" y="61" type="curve" smooth="yes"/>
      <point x="208" y="55"/>
      <point x="207" y="49"/>
      <point x="207" y="43" type="curve" smooth="yes"/>
      <point x="207" y="11"/>
      <point x="230" y="0"/>
      <point x="259" y="0" type="curve" smooth="yes"/>
      <point x="459" y="0" type="line" smooth="yes"/>
      <point x="489" y="0"/>
      <point x="506" y="15"/>
      <point x="511" y="44" type="curve" smooth="yes"/>
      <point x="527" y="132"/>
      <point x="541" y="227"/>
      <point x="559" y="314" type="curve" smooth="yes"/>
      <point x="561" y="323"/>
      <point x="565" y="328"/>
      <point x="575" y="328" type="curve" smooth="yes"/>
      <point x="740" y="328" type="line" smooth="yes"/>
      <point x="749" y="328"/>
      <point x="756" y="323"/>
      <point x="756" y="313" type="curve"/>
      <point x="756" y="309" type="line"/>
      <point x="745" y="225"/>
      <point x="726" y="142"/>
      <point x="713" y="59" type="curve"/>
      <point x="712" y="54"/>
      <point x="711" y="48"/>
      <point x="711" y="43" type="curve" smooth="yes"/>
      <point x="711" y="11"/>
      <point x="734" y="0"/>
      <point x="763" y="0" type="curve" smooth="yes"/>
      <point x="963" y="0" type="line" smooth="yes"/>
      <point x="994" y="0"/>
      <point x="1009" y="15"/>
      <point x="1014" y="45" type="curve" smooth="yes"/>
      <point x="1028" y="133"/>
      <point x="1039" y="226"/>
      <point x="1057" y="313" type="curve" smooth="yes"/>
      <point x="1059" y="322"/>
      <point x="1063" y="328"/>
      <point x="1073" y="328" type="curve" smooth="yes"/>
      <point x="1254" y="328" type="line" smooth="yes"/>
      <point x="1287" y="328"/>
      <point x="1302" y="343"/>
      <point x="1305" y="375" type="curve" smooth="yes"/>
      <point x="1328" y="591" type="line"/>
      <point x="1328" y="595"/>
      <point x="1328" y="597"/>
      <point x="1328" y="601" type="curve" smooth="yes"/>
      <point x="1328" y="634"/>
      <point x="1308" y="647"/>
      <point x="1277" y="647" type="curve" smooth="yes"/>
      <point x="1114" y="647" type="line" smooth="yes"/>
      <point x="1106" y="647"/>
      <point x="1097" y="650"/>
      <point x="1097" y="660" type="curve" smooth="yes"/>
      <point x="1097" y="667"/>
      <point x="1111" y="708"/>
      <point x="1114" y="715" type="curve" smooth="yes"/>
      <point x="1117" y="722"/>
      <point x="1121" y="726"/>
      <point x="1129" y="726" type="curve" smooth="yes"/>
      <point x="1314" y="726" type="line" smooth="yes"/>
      <point x="1345" y="726"/>
      <point x="1360" y="741"/>
      <point x="1364" y="771" type="curve" smooth="yes"/>
      <point x="1373" y="842"/>
      <point x="1378" y="915"/>
      <point x="1384" y="986" type="curve"/>
      <point x="1384" y="995" type="line"/>
      <point x="1384" y="1029"/>
      <point x="1365" y="1042"/>
      <point x="1333" y="1042" type="curve" smooth="yes"/>
      <point x="1170" y="1042" type="line" smooth="yes"/>
      <point x="1161" y="1042"/>
      <point x="1153" y="1046"/>
      <point x="1153" y="1056" type="curve"/>
      <point x="1154" y="1062" type="line"/>
      <point x="1168" y="1151"/>
      <point x="1189" y="1239"/>
      <point x="1206" y="1328" type="curve" smooth="yes"/>
      <point x="1207" y="1334"/>
      <point x="1208" y="1341"/>
      <point x="1208" y="1347" type="curve" smooth="yes"/>
      <point x="1208" y="1380"/>
      <point x="1185" y="1390"/>
      <point x="1156" y="1390" type="curve" smooth="yes"/>
      <point x="956" y="1390" type="line" smooth="yes"/>
      <point x="926" y="1390"/>
      <point x="911" y="1376"/>
      <point x="905" y="1347" type="curve" smooth="yes"/>
      <point x="886" y="1251"/>
      <point x="875" y="1151"/>
      <point x="853" y="1056" type="curve" smooth="yes"/>
      <point x="851" y="1047"/>
      <point x="846" y="1042"/>
      <point x="836" y="1042" type="curve" smooth="yes"/>
      <point x="671" y="1042" type="line" smooth="yes"/>
      <point x="662" y="1042"/>
      <point x="654" y="1046"/>
      <point x="654" y="1056" type="curve"/>
      <point x="655" y="1062" type="line"/>
      <point x="668" y="1151"/>
      <point x="688" y="1240"/>
      <point x="703" y="1329" type="curve" smooth="yes"/>
      <point x="704" y="1335"/>
      <point x="705" y="1341"/>
      <point x="705" y="1347" type="curve" smooth="yes"/>
      <point x="705" y="1380"/>
      <point x="683" y="1390"/>
    </contour>
    <contour>
      <point x="621" y="726" type="curve"/>
      <point x="816" y="726" type="line"/>
      <point x="810" y="699"/>
      <point x="802" y="673"/>
      <point x="795" y="647" type="curve"/>
      <point x="595" y="647" type="line"/>
      <point x="605" y="673"/>
      <point x="614" y="699"/>
    </contour>
  </outline>
</glyph>
<glyph name="dollar" format="2">
  <advance width="995"/>
  <unicode hex="0024"/>
  <outline>
    <contour>
      <point x="481" y="-144" type="line" smooth="yes"/>
      <point x="575" y="-144"/>
      <point x="503" y="-20" name=".hr01"/>
      <point x="547" y="-12" type="curve" smooth="yes"/>
      <point x="594" y="-3"/>
      <point x="637" y="4"/>
      <point x="681" y="24" type="curve" smooth="yes"/>
      <point x="857" y="102"/>
      <point x="926" y="284"/>
      <point x="926" y="466" type="curve" smooth="yes"/>
      <point x="926" y="680"/>
      <point x="849" y="815"/>
      <point x="655" y="909" type="curve" smooth="yes"/>
      <point x="647" y="913"/>
      <point x="639" y="915"/>
      <point x="639" y="926" type="curve" smooth="yes"/>
      <point x="639" y="989"/>
      <point x="639" y="1052"/>
      <point x="639" y="1114" type="curve" smooth="yes"/>
      <point x="639" y="1143"/>
      <point x="638" y="1174"/>
      <point x="640" y="1203" type="curve"/>
      <point x="641" y="1211"/>
      <point x="641" y="1220"/>
      <point x="652" y="1220" type="curve" smooth="yes"/>
      <point x="691" y="1220"/>
      <point x="796" y="1138"/>
      <point x="827" y="1138" type="curve" smooth="yes"/>
      <point x="848" y="1138"/>
      <point x="860" y="1156"/>
      <point x="868" y="1173" type="curve" smooth="yes"/>
      <point x="883" y="1203"/>
      <point x="965" y="1380"/>
      <point x="965" y="1399" type="curve" smooth="yes"/>
      <point x="965" y="1414"/>
      <point x="958" y="1425"/>
      <point x="948" y="1435" type="curve" smooth="yes"/>
      <point x="887" y="1494"/>
      <point x="804" y="1540"/>
      <point x="722" y="1562" type="curve"/>
      <point x="700" y="1567"/>
      <point x="678" y="1569"/>
      <point x="657" y="1574" type="curve" smooth="yes"/>
      <point x="648" y="1576"/>
      <point x="642" y="1581"/>
      <point x="642" y="1591" type="curve" smooth="yes"/>
      <point x="642" y="1616"/>
      <point x="643" y="1642"/>
      <point x="643" y="1667" type="curve" smooth="yes"/>
      <point x="643" y="1702"/>
      <point x="626" y="1719"/>
      <point x="591" y="1719" type="curve" smooth="yes"/>
      <point x="499" y="1719" type="line" smooth="yes"/>
      <point x="464" y="1719"/>
      <point x="447" y="1702"/>
      <point x="447" y="1667" type="curve" smooth="yes"/>
      <point x="447" y="1641"/>
      <point x="448" y="1614"/>
      <point x="448" y="1588" type="curve" smooth="yes"/>
      <point x="448" y="1578"/>
      <point x="443" y="1573"/>
      <point x="434" y="1571" type="curve"/>
      <point x="392" y="1559"/>
      <point x="354" y="1550"/>
      <point x="316" y="1528" type="curve" smooth="yes"/>
      <point x="163" y="1444"/>
      <point x="102" y="1274"/>
      <point x="102" y="1107" type="curve" smooth="yes"/>
      <point x="102" y="904"/>
      <point x="168" y="778"/>
      <point x="334" y="662" type="curve"/>
      <point x="339" y="659"/>
      <point x="342" y="654"/>
      <point x="342" y="648" type="curve" smooth="yes"/>
      <point x="342" y="559"/>
      <point x="346" y="461"/>
      <point x="341" y="373" type="curve"/>
      <point x="341" y="366"/>
      <point x="340" y="355"/>
      <point x="331" y="355" type="curve" smooth="yes"/>
      <point x="300" y="355"/>
      <point x="228" y="426"/>
      <point x="195" y="426" type="curve" smooth="yes"/>
      <point x="174" y="426"/>
      <point x="162" y="408"/>
      <point x="153" y="392" type="curve" smooth="yes"/>
      <point x="137" y="362"/>
      <point x="43" y="185"/>
      <point x="43" y="165" type="curve" smooth="yes"/>
      <point x="43" y="149"/>
      <point x="51" y="139"/>
      <point x="63" y="129" type="curve" smooth="yes"/>
      <point x="118" y="83"/>
      <point x="195" y="44"/>
      <point x="262" y="21" type="curve"/>
      <point x="283" y="13"/>
      <point x="305" y="9"/>
      <point x="326" y="2" type="curve" smooth="yes"/>
      <point x="335" y="-1"/>
      <point x="339" y="-4"/>
      <point x="339" y="-14" type="curve" smooth="yes"/>
      <point x="339" y="-40"/>
      <point x="338" y="-66"/>
      <point x="338" y="-92" type="curve" smooth="yes"/>
      <point x="338" y="-127"/>
      <point x="355" y="-144"/>
      <point x="390" y="-144" type="curve" smooth="yes"/>
    </contour>
    <contour>
      <point x="531" y="532" type="curve"/>
      <point x="557" y="501"/>
      <point x="574" y="462"/>
      <point x="574" y="422" type="curve" smooth="yes"/>
      <point x="574" y="389"/>
      <point x="562" y="357"/>
      <point x="532" y="340" type="curve"/>
      <point x="532" y="404"/>
      <point x="532" y="468"/>
    </contour>
  </outline>
</glyph>
<glyph name="percent" format="2">
  <advance width="1645"/>
  <unicode hex="0025"/>
  <outline>
    <contour>
      <point x="391" y="664" type="curve" smooth="yes"/>
      <point x="642" y="664"/>
      <point x="727" y="879"/>
      <point x="727" y="1096" type="curve" smooth="yes"/>
      <point x="727" y="1317"/>
      <point x="636" y="1520"/>
      <point x="386" y="1520" type="curve" smooth="yes"/>
      <point x="141" y="1520"/>
      <point x="52" y="1328"/>
      <point x="52" y="1110" type="curve" smooth="yes"/>
      <point x="52" y="889"/>
      <point x="132" y="664"/>
    </contour>
    <contour>
      <point x="337" y="1163" type="curve" smooth="yes"/>
      <point x="337" y="1206"/>
      <point x="336" y="1262"/>
      <point x="392" y="1262" type="curve" smooth="yes"/>
      <point x="448" y="1262"/>
      <point x="438" y="1150"/>
      <point x="438" y="1114" type="curve" smooth="yes"/>
      <point x="438" y="1083"/>
      <point x="440" y="1051"/>
      <point x="440" y="1020" type="curve" smooth="yes"/>
      <point x="440" y="988"/>
      <point x="440" y="917"/>
      <point x="394" y="917" type="curve" smooth="yes"/>
      <point x="325" y="917"/>
      <point x="337" y="1111"/>
    </contour>
    <contour>
      <point x="1272" y="-77" type="curve" smooth="yes"/>
      <point x="1517" y="-77"/>
      <point x="1594" y="117"/>
      <point x="1594" y="331" type="curve" smooth="yes"/>
      <point x="1594" y="551"/>
      <point x="1522" y="781"/>
      <point x="1262" y="781" type="curve" smooth="yes"/>
      <point x="1017" y="781"/>
      <point x="920" y="578"/>
      <point x="920" y="361" type="curve" smooth="yes"/>
      <point x="920" y="133"/>
      <point x="1013" y="-77"/>
    </contour>
    <contour>
      <point x="1204" y="422" type="curve" smooth="yes"/>
      <point x="1204" y="468"/>
      <point x="1204" y="521"/>
      <point x="1262" y="521" type="curve" smooth="yes"/>
      <point x="1315" y="521"/>
      <point x="1305" y="411"/>
      <point x="1305" y="377" type="curve" smooth="yes"/>
      <point x="1305" y="344"/>
      <point x="1307" y="310"/>
      <point x="1307" y="277" type="curve" smooth="yes"/>
      <point x="1307" y="244"/>
      <point x="1307" y="178"/>
      <point x="1261" y="178" type="curve" smooth="yes"/>
      <point x="1192" y="178"/>
      <point x="1204" y="370"/>
    </contour>
    <contour>
      <point x="1441" y="1519" type="curve" smooth="yes"/>
      <point x="1237" y="1519" type="line" smooth="yes"/>
      <point x="1218" y="1519"/>
      <point x="1206" y="1512"/>
      <point x="1195" y="1497" type="curve" smooth="yes"/>
      <point x="1140" y="1423"/>
      <point x="1089" y="1346"/>
      <point x="1037" y="1270" type="curve" smooth="yes"/>
      <point x="942" y="1133"/>
      <point x="849" y="995"/>
      <point x="756" y="857" type="curve" smooth="yes"/>
      <point x="643" y="689"/>
      <point x="530" y="520"/>
      <point x="415" y="353" type="curve" smooth="yes"/>
      <point x="352" y="261"/>
      <point x="287" y="171"/>
      <point x="225" y="80" type="curve"/>
      <point x="216" y="66"/>
      <point x="204" y="49"/>
      <point x="204" y="31" type="curve" smooth="yes"/>
      <point x="204" y="1"/>
      <point x="246" y="-2"/>
      <point x="266" y="-2" type="curve" smooth="yes"/>
      <point x="466" y="-5" type="line" smooth="yes"/>
      <point x="484" y="-5"/>
      <point x="498" y="3"/>
      <point x="509" y="17" type="curve" smooth="yes"/>
      <point x="553" y="76"/>
      <point x="594" y="139"/>
      <point x="635" y="200" type="curve" smooth="yes"/>
      <point x="729" y="337"/>
      <point x="823" y="476"/>
      <point x="916" y="614" type="curve" smooth="yes"/>
      <point x="1040" y="798"/>
      <point x="1164" y="982"/>
      <point x="1290" y="1165" type="curve" smooth="yes"/>
      <point x="1354" y="1257"/>
      <point x="1419" y="1347"/>
      <point x="1482" y="1438" type="curve"/>
      <point x="1491" y="1452"/>
      <point x="1504" y="1469"/>
      <point x="1504" y="1487" type="curve" smooth="yes"/>
      <point x="1504" y="1518"/>
      <point x="1461" y="1519"/>
    </contour>
  </outline>
</glyph>
<glyph name="ampersand" format="2">
  <advance width="1430"/>
  <unicode hex="0026"/>
  <outline>
    <contour>
      <point x="1073" y="492" type="curve" smooth="yes"/>
      <point x="1073" y="493"/>
      <point x="1074" y="496"/>
      <point x="1074" y="497" type="curve"/>
      <point x="1094" y="562"/>
      <point x="1229" y="913"/>
      <point x="1229" y="943" type="curve" smooth="yes"/>
      <point x="1229" y="974"/>
      <point x="1200" y="981"/>
      <point x="1174" y="981" type="curve" smooth="yes"/>
      <point x="978" y="981" type="line" smooth="yes"/>
      <point x="952" y="981"/>
      <point x="938" y="970"/>
      <point x="929" y="946" type="curve"/>
      <point x="921" y="927"/>
      <point x="886" y="806"/>
      <point x="872" y="806" type="curve" smooth="yes"/>
      <point x="866" y="806"/>
      <point x="860" y="815"/>
      <point x="857" y="820" type="curve"/>
      <point x="710" y="1045" type="line" smooth="yes"/>
      <point x="684" y="1085"/>
      <point x="644" y="1164"/>
      <point x="644" y="1212" type="curve" smooth="yes"/>
      <point x="644" y="1258"/>
      <point x="669" y="1295"/>
      <point x="718" y="1295" type="curve" smooth="yes"/>
      <point x="820" y="1295"/>
      <point x="888" y="1146"/>
      <point x="931" y="1146" type="curve" smooth="yes"/>
      <point x="950" y="1146"/>
      <point x="962" y="1163"/>
      <point x="972" y="1176" type="curve"/>
      <point x="1012" y="1231"/>
      <point x="1053" y="1289"/>
      <point x="1089" y="1346" type="curve" smooth="yes"/>
      <point x="1095" y="1355"/>
      <point x="1099" y="1364"/>
      <point x="1099" y="1374" type="curve" smooth="yes"/>
      <point x="1099" y="1385"/>
      <point x="1095" y="1394"/>
      <point x="1089" y="1402" type="curve"/>
      <point x="997" y="1537"/>
      <point x="834" y="1617"/>
      <point x="673" y="1617" type="curve" smooth="yes"/>
      <point x="452" y="1617"/>
      <point x="291" y="1466"/>
      <point x="291" y="1242" type="curve" smooth="yes"/>
      <point x="291" y="1139"/>
      <point x="338" y="1042"/>
      <point x="384" y="953" type="curve"/>
      <point x="386" y="950"/>
      <point x="387" y="946"/>
      <point x="387" y="943" type="curve" smooth="yes"/>
      <point x="387" y="936"/>
      <point x="382" y="932"/>
      <point x="376" y="929" type="curve" smooth="yes"/>
      <point x="185" y="828"/>
      <point x="64" y="661"/>
      <point x="64" y="439" type="curve" smooth="yes"/>
      <point x="64" y="157"/>
      <point x="278" y="-28"/>
      <point x="553" y="-28" type="curve" smooth="yes"/>
      <point x="691" y="-28"/>
      <point x="802" y="21"/>
      <point x="894" y="123" type="curve"/>
      <point x="898" y="127"/>
      <point x="902" y="132"/>
      <point x="908" y="132" type="curve" smooth="yes"/>
      <point x="920" y="132"/>
      <point x="976" y="38"/>
      <point x="988" y="23" type="curve" smooth="yes"/>
      <point x="1000" y="8"/>
      <point x="1011" y="0"/>
      <point x="1031" y="0" type="curve" smooth="yes"/>
      <point x="1302" y="0" type="line" smooth="yes"/>
      <point x="1324" y="0"/>
      <point x="1365" y="2"/>
      <point x="1365" y="32" type="curve" smooth="yes"/>
      <point x="1365" y="49"/>
      <point x="1354" y="66"/>
      <point x="1345" y="80" type="curve" smooth="yes"/>
      <point x="1317" y="123"/>
      <point x="1073" y="479"/>
    </contour>
    <contour>
      <point x="734" y="407" type="curve"/>
      <point x="704" y="342"/>
      <point x="659" y="315"/>
      <point x="588" y="315" type="curve" smooth="yes"/>
      <point x="484" y="315"/>
      <point x="414" y="386"/>
      <point x="414" y="490" type="curve" smooth="yes"/>
      <point x="414" y="574"/>
      <point x="467" y="669"/>
      <point x="555" y="684" type="curve"/>
      <point x="615" y="592"/>
      <point x="674" y="499"/>
    </contour>
  </outline>
</glyph>
<glyph name="quotesingle" format="2">
  <advance width="475"/>
  <unicode hex="0027"/>
  <outline>
    <contour>
      <point x="342" y="1554" type="curve" smooth="yes"/>
      <point x="139" y="1554" type="line" smooth="yes"/>
      <point x="103" y="1554"/>
      <point x="88" y="1537"/>
      <point x="88" y="1502" type="curve" smooth="yes"/>
      <point x="88" y="1358"/>
      <point x="90" y="1213"/>
      <point x="90" y="1069" type="curve" smooth="yes"/>
      <point x="90" y="1035"/>
      <point x="107" y="1018"/>
      <point x="141" y="1018" type="curve" smooth="yes"/>
      <point x="329" y="1018" type="line" smooth="yes"/>
      <point x="364" y="1018"/>
      <point x="377" y="1035"/>
      <point x="380" y="1068" type="curve" smooth="yes"/>
      <point x="385" y="1133"/>
      <point x="384" y="1199"/>
      <point x="386" y="1264" type="curve" smooth="yes"/>
      <point x="388" y="1343"/>
      <point x="393" y="1422"/>
      <point x="393" y="1501" type="curve" smooth="yes"/>
      <point x="393" y="1537"/>
      <point x="379" y="1554"/>
    </contour>
  </outline>
</glyph>
<glyph name="parenleft" format="2">
  <advance width="815"/>
  <unicode hex="0028"/>
  <outline>
    <contour>
      <point x="95" y="626" type="curve" smooth="yes"/>
      <point x="95" y="288"/>
      <point x="215" y="-89"/>
      <point x="457" y="-333" type="curve" smooth="yes"/>
      <point x="466" y="-342"/>
      <point x="476" y="-349"/>
      <point x="490" y="-349" type="curve" smooth="yes"/>
      <point x="509" y="-349"/>
      <point x="669" y="-271"/>
      <point x="695" y="-257" type="curve" smooth="yes"/>
      <point x="711" y="-248"/>
      <point x="732" y="-238"/>
      <point x="732" y="-216" type="curve" smooth="yes"/>
      <point x="732" y="-200"/>
      <point x="722" y="-186"/>
      <point x="712" y="-174" type="curve" smooth="yes"/>
      <point x="682" y="-137"/>
      <point x="653" y="-101"/>
      <point x="627" y="-61" type="curve" smooth="yes"/>
      <point x="494" y="143"/>
      <point x="437" y="386"/>
      <point x="437" y="628" type="curve" smooth="yes"/>
      <point x="437" y="869"/>
      <point x="494" y="1110"/>
      <point x="625" y="1314" type="curve" smooth="yes"/>
      <point x="651" y="1354"/>
      <point x="680" y="1389"/>
      <point x="709" y="1426" type="curve" smooth="yes"/>
      <point x="718" y="1438"/>
      <point x="729" y="1452"/>
      <point x="729" y="1468" type="curve" smooth="yes"/>
      <point x="729" y="1490"/>
      <point x="708" y="1501"/>
      <point x="692" y="1510" type="curve" smooth="yes"/>
      <point x="666" y="1524"/>
      <point x="509" y="1601"/>
      <point x="490" y="1601" type="curve" smooth="yes"/>
      <point x="476" y="1601"/>
      <point x="465" y="1593"/>
      <point x="456" y="1584" type="curve" smooth="yes"/>
      <point x="218" y="1344"/>
      <point x="95" y="959"/>
    </contour>
  </outline>
</glyph>
<glyph name="parenright" format="2">
  <advance width="815"/>
  <unicode hex="0029"/>
  <outline>
    <contour>
      <point x="720" y="624" type="curve" smooth="yes"/>
      <point x="720" y="962"/>
      <point x="597" y="1336"/>
      <point x="355" y="1579" type="curve" smooth="yes"/>
      <point x="346" y="1588"/>
      <point x="335" y="1595"/>
      <point x="322" y="1595" type="curve" smooth="yes"/>
      <point x="303" y="1595"/>
      <point x="153" y="1527"/>
      <point x="128" y="1514" type="curve" smooth="yes"/>
      <point x="111" y="1505"/>
      <point x="89" y="1495"/>
      <point x="89" y="1472" type="curve" smooth="yes"/>
      <point x="89" y="1455"/>
      <point x="100" y="1441"/>
      <point x="110" y="1429" type="curve" smooth="yes"/>
      <point x="139" y="1393"/>
      <point x="168" y="1357"/>
      <point x="194" y="1318" type="curve" smooth="yes"/>
      <point x="326" y="1117"/>
      <point x="383" y="878"/>
      <point x="383" y="639" type="curve" smooth="yes"/>
      <point x="383" y="393"/>
      <point x="325" y="141"/>
      <point x="191" y="-68" type="curve" smooth="yes"/>
      <point x="165" y="-109"/>
      <point x="136" y="-145"/>
      <point x="106" y="-183" type="curve"/>
      <point x="96" y="-195"/>
      <point x="85" y="-210"/>
      <point x="85" y="-227" type="curve" smooth="yes"/>
      <point x="85" y="-249"/>
      <point x="108" y="-262"/>
      <point x="125" y="-269" type="curve" smooth="yes"/>
      <point x="155" y="-282"/>
      <point x="297" y="-349"/>
      <point x="320" y="-349" type="curve" smooth="yes"/>
      <point x="333" y="-349"/>
      <point x="345" y="-342"/>
      <point x="354" y="-333" type="curve" smooth="yes"/>
      <point x="600" y="-94"/>
      <point x="720" y="287"/>
    </contour>
  </outline>
</glyph>
<glyph name="asterisk" format="2">
  <advance width="868"/>
  <unicode hex="002A"/>
  <outline>
    <contour>
      <point x="375" y="915" type="curve" smooth="yes"/>
      <point x="488" y="915" type="line" smooth="yes"/>
      <point x="579" y="915"/>
      <point x="517" y="1044"/>
      <point x="553" y="1044" type="curve" smooth="yes"/>
      <point x="572" y="1044"/>
      <point x="676" y="987"/>
      <point x="705" y="987" type="curve" smooth="yes"/>
      <point x="722" y="987"/>
      <point x="734" y="997"/>
      <point x="743" y="1010" type="curve"/>
      <point x="757" y="1029"/>
      <point x="811" y="1092"/>
      <point x="811" y="1122" type="curve" smooth="yes"/>
      <point x="811" y="1173"/>
      <point x="673" y="1187"/>
      <point x="673" y="1210" type="curve" smooth="yes"/>
      <point x="673" y="1237"/>
      <point x="819" y="1248"/>
      <point x="819" y="1303" type="curve" smooth="yes"/>
      <point x="819" y="1327"/>
      <point x="773" y="1384"/>
      <point x="758" y="1406" type="curve" smooth="yes"/>
      <point x="749" y="1419"/>
      <point x="737" y="1429"/>
      <point x="720" y="1429" type="curve" smooth="yes"/>
      <point x="689" y="1429"/>
      <point x="579" y="1374"/>
      <point x="560" y="1374" type="curve" smooth="yes"/>
      <point x="551" y="1374"/>
      <point x="549" y="1383"/>
      <point x="549" y="1391" type="curve" smooth="yes"/>
      <point x="549" y="1417"/>
      <point x="551" y="1444"/>
      <point x="551" y="1471" type="curve" smooth="yes"/>
      <point x="551" y="1502"/>
      <point x="531" y="1517"/>
      <point x="501" y="1517" type="curve" smooth="yes"/>
      <point x="373" y="1517" type="line" smooth="yes"/>
      <point x="278" y="1517"/>
      <point x="349" y="1374"/>
      <point x="311" y="1374" type="curve" smooth="yes"/>
      <point x="291" y="1374"/>
      <point x="184" y="1431"/>
      <point x="155" y="1431" type="curve" smooth="yes"/>
      <point x="138" y="1431"/>
      <point x="126" y="1421"/>
      <point x="117" y="1408" type="curve" smooth="yes"/>
      <point x="102" y="1387"/>
      <point x="57" y="1327"/>
      <point x="57" y="1304" type="curve" smooth="yes"/>
      <point x="57" y="1254"/>
      <point x="193" y="1237"/>
      <point x="193" y="1213" type="curve" smooth="yes"/>
      <point x="193" y="1190"/>
      <point x="59" y="1178"/>
      <point x="59" y="1128" type="curve" smooth="yes"/>
      <point x="59" y="1104"/>
      <point x="110" y="1039"/>
      <point x="126" y="1016" type="curve" smooth="yes"/>
      <point x="135" y="1003"/>
      <point x="147" y="993"/>
      <point x="164" y="993" type="curve" smooth="yes"/>
      <point x="192" y="993"/>
      <point x="294" y="1045"/>
      <point x="312" y="1045" type="curve" smooth="yes"/>
      <point x="350" y="1045"/>
      <point x="282" y="915"/>
    </contour>
  </outline>
</glyph>
<glyph name="plus" format="2">
  <advance width="969"/>
  <unicode hex="002B"/>
  <outline>
    <contour>
      <point x="111" y="411" type="curve" smooth="yes"/>
      <point x="111" y="376"/>
      <point x="126" y="359"/>
      <point x="162" y="359" type="curve" smooth="yes"/>
      <point x="329" y="359" type="line" smooth="yes"/>
      <point x="340" y="359"/>
      <point x="345" y="353"/>
      <point x="345" y="342" type="curve" smooth="yes"/>
      <point x="345" y="282"/>
      <point x="344" y="221"/>
      <point x="344" y="161" type="curve" smooth="yes"/>
      <point x="344" y="127"/>
      <point x="361" y="110"/>
      <point x="395" y="110" type="curve" smooth="yes"/>
      <point x="561" y="110" type="line" smooth="yes"/>
      <point x="595" y="110"/>
      <point x="612" y="127"/>
      <point x="612" y="161" type="curve" smooth="yes"/>
      <point x="611" y="342" type="line" smooth="yes"/>
      <point x="611" y="353"/>
      <point x="617" y="359"/>
      <point x="628" y="359" type="curve" smooth="yes"/>
      <point x="794" y="359" type="line" smooth="yes"/>
      <point x="829" y="359"/>
      <point x="846" y="376"/>
      <point x="846" y="411" type="curve" smooth="yes"/>
      <point x="846" y="467"/>
      <point x="845" y="524"/>
      <point x="844" y="580" type="curve" smooth="yes"/>
      <point x="843" y="614"/>
      <point x="828" y="631"/>
      <point x="793" y="631" type="curve" smooth="yes"/>
      <point x="627" y="631" type="line" smooth="yes"/>
      <point x="616" y="631"/>
      <point x="611" y="637"/>
      <point x="611" y="648" type="curve" smooth="yes"/>
      <point x="611" y="833" type="line" smooth="yes"/>
      <point x="611" y="867"/>
      <point x="594" y="884"/>
      <point x="560" y="884" type="curve" smooth="yes"/>
      <point x="397" y="884" type="line" smooth="yes"/>
      <point x="363" y="884"/>
      <point x="346" y="867"/>
      <point x="346" y="833" type="curve" smooth="yes"/>
      <point x="346" y="648" type="line" smooth="yes"/>
      <point x="346" y="637"/>
      <point x="340" y="631"/>
      <point x="329" y="631" type="curve" smooth="yes"/>
      <point x="163" y="631" type="line" smooth="yes"/>
      <point x="129" y="631"/>
      <point x="112" y="614"/>
      <point x="112" y="580" type="curve" smooth="yes"/>
      <point x="112" y="524"/>
      <point x="111" y="467"/>
    </contour>
  </outline>
</glyph>
<glyph name="comma" format="2">
  <advance width="575"/>
  <unicode hex="002C"/>
  <outline>
    <contour>
      <point x="465" y="187" type="curve" smooth="yes"/>
      <point x="248" y="187" type="line" smooth="yes"/>
      <point x="226" y="187"/>
      <point x="213" y="178"/>
      <point x="203" y="160" type="curve" smooth="yes"/>
      <point x="175" y="109"/>
      <point x="149" y="57"/>
      <point x="122" y="5" type="curve" smooth="yes"/>
      <point x="90" y="-57"/>
      <point x="57" y="-119"/>
      <point x="24" y="-181" type="curve" smooth="yes"/>
      <point x="17" y="-194"/>
      <point x="10" y="-209"/>
      <point x="10" y="-224" type="curve" smooth="yes"/>
      <point x="10" y="-254"/>
      <point x="46" y="-258"/>
      <point x="69" y="-258" type="curve" smooth="yes"/>
      <point x="269" y="-258" type="line" smooth="yes"/>
      <point x="289" y="-258"/>
      <point x="302" y="-250"/>
      <point x="313" y="-233" type="curve" smooth="yes"/>
      <point x="341" y="-190"/>
      <point x="365" y="-144"/>
      <point x="390" y="-100" type="curve" smooth="yes"/>
      <point x="430" y="-30"/>
      <point x="471" y="40"/>
      <point x="510" y="111" type="curve" smooth="yes"/>
      <point x="517" y="124"/>
      <point x="524" y="138"/>
      <point x="524" y="153" type="curve" smooth="yes"/>
      <point x="524" y="184"/>
      <point x="488" y="187"/>
    </contour>
  </outline>
</glyph>
<glyph name="period" format="2">
  <advance width="575"/>
  <unicode hex="002E"/>
  <outline>
    <contour>
      <point x="79" y="160" type="curve" smooth="yes"/>
      <point x="79" y="54"/>
      <point x="194" y="0"/>
      <point x="286" y="0" type="curve" smooth="yes"/>
      <point x="377" y="0"/>
      <point x="496" y="55"/>
      <point x="496" y="160" type="curve" smooth="yes"/>
      <point x="496" y="260"/>
      <point x="376" y="324"/>
      <point x="288" y="324" type="curve" smooth="yes"/>
      <point x="200" y="324"/>
      <point x="79" y="260"/>
    </contour>
  </outline>
</glyph>
<glyph name="slash" format="2">
  <advance width="678"/>
  <unicode hex="002F"/>
  <outline>
    <contour>
      <point x="669" y="1591" type="curve" smooth="yes"/>
      <point x="478" y="1591" type="line" smooth="yes"/>
      <point x="451" y="1591"/>
      <point x="438" y="1579"/>
      <point x="429" y="1555" type="curve" smooth="yes"/>
      <point x="406" y="1491"/>
      <point x="389" y="1423"/>
      <point x="370" y="1358" type="curve" smooth="yes"/>
      <point x="336" y="1243"/>
      <point x="303" y="1128"/>
      <point x="270" y="1013" type="curve" smooth="yes"/>
      <point x="175" y="684"/>
      <point x="78" y="355"/>
      <point x="-21" y="27" type="curve"/>
      <point x="-24" y="18"/>
      <point x="-26" y="9"/>
      <point x="-26" y="0" type="curve" smooth="yes"/>
      <point x="-26" y="-32"/>
      <point x="1" y="-39"/>
      <point x="28" y="-39" type="curve" smooth="yes"/>
      <point x="217" y="-39" type="line" smooth="yes"/>
      <point x="244" y="-39"/>
      <point x="257" y="-28"/>
      <point x="266" y="-3" type="curve" smooth="yes"/>
      <point x="289" y="61"/>
      <point x="305" y="129"/>
      <point x="324" y="194" type="curve" smooth="yes"/>
      <point x="358" y="309"/>
      <point x="391" y="425"/>
      <point x="424" y="540" type="curve" smooth="yes"/>
      <point x="519" y="869"/>
      <point x="616" y="1197"/>
      <point x="718" y="1524" type="curve" smooth="yes"/>
      <point x="721" y="1533"/>
      <point x="723" y="1542"/>
      <point x="723" y="1552" type="curve" smooth="yes"/>
      <point x="723" y="1584"/>
      <point x="696" y="1591"/>
    </contour>
  </outline>
</glyph>
<glyph name="zero" format="2">
  <advance width="1290"/>
  <unicode hex="0030"/>
  <outline>
    <contour>
      <point x="641" y="2" type="curve" smooth="yes"/>
      <point x="1028" y="2"/>
      <point x="1237" y="214"/>
      <point x="1237" y="600" type="curve" smooth="yes"/>
      <point x="1237" y="1010"/>
      <point x="1050" y="1216"/>
      <point x="635" y="1216" type="curve" smooth="yes"/>
      <point x="214" y="1216"/>
      <point x="53" y="1005"/>
      <point x="53" y="599" type="curve" smooth="yes"/>
      <point x="53" y="209"/>
      <point x="248" y="2"/>
    </contour>
    <contour>
      <point x="643" y="330" type="curve" smooth="yes"/>
      <point x="458" y="330"/>
      <point x="374" y="431"/>
      <point x="374" y="611" type="curve" smooth="yes"/>
      <point x="374" y="790"/>
      <point x="464" y="884"/>
      <point x="644" y="884" type="curve" smooth="yes"/>
      <point x="819" y="884"/>
      <point x="917" y="795"/>
      <point x="917" y="618" type="curve" smooth="yes"/>
      <point x="917" y="436"/>
      <point x="831" y="330"/>
    </contour>
  </outline>
</glyph>
<glyph name="one" format="2">
  <advance width="659"/>
  <unicode hex="0031"/>
  <outline>
    <contour>
      <point x="31" y="1146" type="curve" smooth="yes"/>
      <point x="31" y="1070"/>
      <point x="33" y="995"/>
      <point x="33" y="919" type="curve" smooth="yes"/>
      <point x="33" y="817"/>
      <point x="200" y="904"/>
      <point x="200" y="851" type="curve" smooth="yes"/>
      <point x="200" y="637" type="line" smooth="yes"/>
      <point x="200" y="442"/>
      <point x="198" y="247"/>
      <point x="198" y="52" type="curve" smooth="yes"/>
      <point x="198" y="17"/>
      <point x="215" y="0"/>
      <point x="250" y="0" type="curve" smooth="yes"/>
      <point x="494" y="0" type="line" smooth="yes"/>
      <point x="530" y="0"/>
      <point x="545" y="17"/>
      <point x="545" y="52" type="curve" smooth="yes"/>
      <point x="545" y="264"/>
      <point x="542" y="476"/>
      <point x="542" y="688" type="curve" smooth="yes"/>
      <point x="542" y="841"/>
      <point x="544" y="993"/>
      <point x="544" y="1146" type="curve" smooth="yes"/>
      <point x="544" y="1181"/>
      <point x="527" y="1198"/>
      <point x="492" y="1198" type="curve" smooth="yes"/>
      <point x="83" y="1198" type="line" smooth="yes"/>
      <point x="48" y="1198"/>
      <point x="31" y="1181"/>
    </contour>
  </outline>
</glyph>
<glyph name="two" format="2">
  <advance width="1059"/>
  <unicode hex="0032"/>
  <outline>
    <contour>
      <point x="200" y="0" type="curve" smooth="yes"/>
      <point x="935" y="0" type="line" smooth="yes"/>
      <point x="971" y="0"/>
      <point x="986" y="17"/>
      <point x="986" y="52" type="curve" smooth="yes"/>
      <point x="986" y="113"/>
      <point x="986" y="176"/>
      <point x="982" y="237" type="curve" smooth="yes"/>
      <point x="980" y="271"/>
      <point x="967" y="288"/>
      <point x="931" y="288" type="curve" smooth="yes"/>
      <point x="766" y="288" type="line" smooth="yes"/>
      <point x="760" y="288"/>
      <point x="745" y="288"/>
      <point x="745" y="298" type="curve" smooth="yes"/>
      <point x="745" y="315"/>
      <point x="990" y="567"/>
      <point x="990" y="802" type="curve" smooth="yes"/>
      <point x="990" y="1057"/>
      <point x="763" y="1214"/>
      <point x="525" y="1214" type="curve" smooth="yes"/>
      <point x="507" y="1214" type="line" smooth="yes"/>
      <point x="265" y="1214"/>
      <point x="51" y="1061"/>
      <point x="51" y="804" type="curve" smooth="yes"/>
      <point x="51" y="685"/>
      <point x="106" y="545"/>
      <point x="204" y="473" type="curve" smooth="yes"/>
      <point x="212" y="467"/>
      <point x="221" y="462"/>
      <point x="232" y="462" type="curve" smooth="yes"/>
      <point x="247" y="462"/>
      <point x="257" y="470"/>
      <point x="267" y="480" type="curve" smooth="yes"/>
      <point x="306" y="518"/>
      <point x="345" y="562"/>
      <point x="380" y="604" type="curve" smooth="yes"/>
      <point x="389" y="615"/>
      <point x="397" y="627"/>
      <point x="397" y="642" type="curve" smooth="yes"/>
      <point x="397" y="676"/>
      <point x="349" y="705"/>
      <point x="349" y="775" type="curve" smooth="yes"/>
      <point x="349" y="868"/>
      <point x="416" y="922"/>
      <point x="506" y="922" type="curve" smooth="yes"/>
      <point x="607" y="922"/>
      <point x="660" y="849"/>
      <point x="660" y="753" type="curve" smooth="yes"/>
      <point x="660" y="728"/>
      <point x="646" y="684"/>
      <point x="638" y="660" type="curve" smooth="yes"/>
      <point x="560" y="440"/>
      <point x="324" y="247"/>
      <point x="165" y="82" type="curve" smooth="yes"/>
      <point x="153" y="69"/>
      <point x="132" y="48"/>
      <point x="132" y="29" type="curve" smooth="yes"/>
      <point x="132" y="1"/>
      <point x="181" y="0"/>
    </contour>
  </outline>
</glyph>
<glyph name="three" format="2">
  <advance width="997"/>
  <unicode hex="0033"/>
  <outline>
    <contour>
      <point x="815" y="1198" type="curve" smooth="yes"/>
      <point x="189" y="1198" type="line" smooth="yes"/>
      <point x="154" y="1198"/>
      <point x="137" y="1182"/>
      <point x="137" y="1147" type="curve" smooth="yes"/>
      <point x="137" y="1095"/>
      <point x="137" y="1040"/>
      <point x="139" y="988" type="curve" smooth="yes"/>
      <point x="140" y="954"/>
      <point x="155" y="938"/>
      <point x="190" y="938" type="curve" smooth="yes"/>
      <point x="445" y="938" type="line" smooth="yes"/>
      <point x="452" y="938"/>
      <point x="465" y="937"/>
      <point x="465" y="927" type="curve" smooth="yes"/>
      <point x="465" y="911"/>
      <point x="240" y="560"/>
      <point x="240" y="552" type="curve" smooth="yes"/>
      <point x="240" y="547"/>
      <point x="243" y="544"/>
      <point x="248" y="544" type="curve" smooth="yes"/>
      <point x="274" y="544"/>
      <point x="301" y="549"/>
      <point x="327" y="549" type="curve" smooth="yes"/>
      <point x="406" y="549"/>
      <point x="566" y="528"/>
      <point x="566" y="421" type="curve" smooth="yes"/>
      <point x="566" y="337"/>
      <point x="460" y="316"/>
      <point x="394" y="316" type="curve" smooth="yes"/>
      <point x="304" y="316"/>
      <point x="267" y="376"/>
      <point x="230" y="376" type="curve" smooth="yes"/>
      <point x="208" y="376"/>
      <point x="195" y="357"/>
      <point x="184" y="341" type="curve" smooth="yes"/>
      <point x="146" y="283"/>
      <point x="108" y="223"/>
      <point x="74" y="163" type="curve" smooth="yes"/>
      <point x="69" y="154"/>
      <point x="64" y="145"/>
      <point x="64" y="134" type="curve" smooth="yes"/>
      <point x="64" y="119"/>
      <point x="73" y="108"/>
      <point x="84" y="99" type="curve" smooth="yes"/>
      <point x="175" y="27"/>
      <point x="334" y="-14"/>
      <point x="449" y="-14" type="curve" smooth="yes"/>
      <point x="697" y="-14"/>
      <point x="918" y="139"/>
      <point x="918" y="404" type="curve" smooth="yes"/>
      <point x="918" y="590"/>
      <point x="828" y="703"/>
      <point x="656" y="764" type="curve" smooth="yes"/>
      <point x="650" y="766"/>
      <point x="642" y="769"/>
      <point x="642" y="777" type="curve" smooth="yes"/>
      <point x="642" y="789"/>
      <point x="835" y="1082"/>
      <point x="858" y="1119" type="curve" smooth="yes"/>
      <point x="866" y="1132"/>
      <point x="877" y="1149"/>
      <point x="877" y="1166" type="curve" smooth="yes"/>
      <point x="877" y="1196"/>
      <point x="837" y="1198"/>
    </contour>
  </outline>
</glyph>
<glyph name="four" format="2">
  <advance width="1130"/>
  <unicode hex="0034"/>
  <outline>
    <contour>
      <point x="626" y="0" type="curve" smooth="yes"/>
      <point x="871" y="0" type="line" smooth="yes"/>
      <point x="906" y="0"/>
      <point x="922" y="17"/>
      <point x="922" y="52" type="curve" smooth="yes"/>
      <point x="922" y="108"/>
      <point x="920" y="165"/>
      <point x="920" y="221" type="curve" smooth="yes"/>
      <point x="920" y="273"/>
      <point x="1077" y="187"/>
      <point x="1077" y="290" type="curve" smooth="yes"/>
      <point x="1077" y="334"/>
      <point x="1077" y="379"/>
      <point x="1075" y="423" type="curve" smooth="yes"/>
      <point x="1073" y="457"/>
      <point x="1059" y="473"/>
      <point x="1024" y="473" type="curve" smooth="yes"/>
      <point x="934" y="473" type="line" smooth="yes"/>
      <point x="922" y="473"/>
      <point x="918" y="479"/>
      <point x="917" y="490" type="curve" smooth="yes"/>
      <point x="915" y="512"/>
      <point x="917" y="536"/>
      <point x="917" y="558" type="curve" smooth="yes"/>
      <point x="916" y="717" type="line" smooth="yes"/>
      <point x="916" y="865"/>
      <point x="919" y="1013"/>
      <point x="919" y="1161" type="curve" smooth="yes"/>
      <point x="919" y="1196"/>
      <point x="903" y="1212"/>
      <point x="868" y="1212" type="curve" smooth="yes"/>
      <point x="603" y="1212" type="line" smooth="yes"/>
      <point x="583" y="1212"/>
      <point x="568" y="1204"/>
      <point x="558" y="1187" type="curve" smooth="yes"/>
      <point x="486" y="1067"/>
      <point x="420" y="942"/>
      <point x="351" y="820" type="curve" smooth="yes"/>
      <point x="256" y="651"/>
      <point x="159" y="484"/>
      <point x="63" y="315" type="curve" smooth="yes"/>
      <point x="56" y="302"/>
      <point x="47" y="286"/>
      <point x="47" y="271" type="curve" smooth="yes"/>
      <point x="47" y="240"/>
      <point x="84" y="238"/>
      <point x="107" y="238" type="curve" smooth="yes"/>
      <point x="559" y="238" type="line" smooth="yes"/>
      <point x="570" y="238"/>
      <point x="575" y="232"/>
      <point x="575" y="221" type="curve" smooth="yes"/>
      <point x="575" y="51" type="line" smooth="yes"/>
      <point x="575" y="17"/>
      <point x="592" y="0"/>
    </contour>
    <contour>
      <point x="392" y="473" type="line"/>
      <point x="453" y="580"/>
      <point x="514" y="688"/>
      <point x="575" y="796" type="curve"/>
      <point x="575" y="473" type="line"/>
    </contour>
  </outline>
</glyph>
<glyph name="five" format="2">
  <advance width="1034"/>
  <unicode hex="0035"/>
  <outline>
    <contour>
      <point x="498" y="-14" type="curve" smooth="yes"/>
      <point x="732" y="-14"/>
      <point x="967" y="152"/>
      <point x="967" y="402" type="curve" smooth="yes"/>
      <point x="967" y="651"/>
      <point x="734" y="773"/>
      <point x="512" y="773" type="curve" smooth="yes"/>
      <point x="498" y="773"/>
      <point x="485" y="772"/>
      <point x="471" y="772" type="curve" smooth="yes"/>
      <point x="459" y="772"/>
      <point x="454" y="777"/>
      <point x="454" y="789" type="curve" smooth="yes"/>
      <point x="453" y="886" type="line" smooth="yes"/>
      <point x="453" y="897"/>
      <point x="459" y="903"/>
      <point x="470" y="903" type="curve" smooth="yes"/>
      <point x="809" y="903" type="line" smooth="yes"/>
      <point x="845" y="903"/>
      <point x="858" y="920"/>
      <point x="860" y="954" type="curve" smooth="yes"/>
      <point x="863" y="1018"/>
      <point x="862" y="1083"/>
      <point x="862" y="1147" type="curve" smooth="yes"/>
      <point x="862" y="1182"/>
      <point x="846" y="1198"/>
      <point x="811" y="1198" type="curve" smooth="yes"/>
      <point x="210" y="1198" type="line" smooth="yes"/>
      <point x="175" y="1198"/>
      <point x="159" y="1182"/>
      <point x="159" y="1147" type="curve" smooth="yes"/>
      <point x="159" y="955"/>
      <point x="161" y="762"/>
      <point x="161" y="570" type="curve" smooth="yes"/>
      <point x="161" y="544"/>
      <point x="166" y="513"/>
      <point x="199" y="513" type="curve" smooth="yes"/>
      <point x="211" y="513"/>
      <point x="223" y="517"/>
      <point x="234" y="521" type="curve" smooth="yes"/>
      <point x="289" y="540"/>
      <point x="344" y="555"/>
      <point x="403" y="555" type="curve" smooth="yes"/>
      <point x="480" y="555"/>
      <point x="616" y="544"/>
      <point x="616" y="439" type="curve" smooth="yes"/>
      <point x="616" y="341"/>
      <point x="486" y="320"/>
      <point x="411" y="320" type="curve" smooth="yes"/>
      <point x="355" y="320"/>
      <point x="303" y="330"/>
      <point x="251" y="349" type="curve"/>
      <point x="242" y="353"/>
      <point x="232" y="355"/>
      <point x="222" y="355" type="curve" smooth="yes"/>
      <point x="202" y="355"/>
      <point x="191" y="344"/>
      <point x="180" y="329" type="curve" smooth="yes"/>
      <point x="145" y="281"/>
      <point x="107" y="222"/>
      <point x="76" y="171" type="curve"/>
      <point x="70" y="162"/>
      <point x="65" y="152"/>
      <point x="65" y="141" type="curve" smooth="yes"/>
      <point x="65" y="125"/>
      <point x="75" y="115"/>
      <point x="87" y="106" type="curve" smooth="yes"/>
      <point x="193" y="27"/>
      <point x="367" y="-14"/>
    </contour>
  </outline>
</glyph>
<glyph name="six" format="2">
  <advance width="1137"/>
  <unicode hex="0036"/>
  <outline>
    <contour>
      <point x="579" y="-14" type="curve" smooth="yes"/>
      <point x="844" y="-14"/>
      <point x="1094" y="131"/>
      <point x="1094" y="421" type="curve" smooth="yes"/>
      <point x="1094" y="670"/>
      <point x="924" y="812"/>
      <point x="683" y="812" type="curve" smooth="yes"/>
      <point x="628" y="812"/>
      <point x="576" y="803"/>
      <point x="525" y="783" type="curve"/>
      <point x="514" y="778"/>
      <point x="485" y="765"/>
      <point x="472" y="765" type="curve" smooth="yes"/>
      <point x="470" y="765"/>
      <point x="467" y="766"/>
      <point x="467" y="769" type="curve" smooth="yes"/>
      <point x="467" y="779"/>
      <point x="495" y="810"/>
      <point x="500" y="815" type="curve"/>
      <point x="572" y="895"/>
      <point x="660" y="939"/>
      <point x="757" y="979" type="curve" smooth="yes"/>
      <point x="776" y="987"/>
      <point x="805" y="998"/>
      <point x="805" y="1023" type="curve" smooth="yes"/>
      <point x="805" y="1041"/>
      <point x="792" y="1055"/>
      <point x="781" y="1068" type="curve" smooth="yes"/>
      <point x="740" y="1116"/>
      <point x="684" y="1181"/>
      <point x="639" y="1225" type="curve" smooth="yes"/>
      <point x="629" y="1235"/>
      <point x="618" y="1243"/>
      <point x="604" y="1243" type="curve" smooth="yes"/>
      <point x="595" y="1243"/>
      <point x="587" y="1240"/>
      <point x="579" y="1236" type="curve" smooth="yes"/>
      <point x="299" y="1093"/>
      <point x="45" y="836"/>
      <point x="45" y="503" type="curve" smooth="yes"/>
      <point x="45" y="186"/>
      <point x="267" y="-14"/>
    </contour>
    <contour>
      <point x="397" y="401" type="curve" smooth="yes"/>
      <point x="397" y="410"/>
      <point x="397" y="419"/>
      <point x="398" y="428" type="curve" smooth="yes"/>
      <point x="406" y="506"/>
      <point x="504" y="524"/>
      <point x="567" y="524" type="curve" smooth="yes"/>
      <point x="635" y="524"/>
      <point x="739" y="505"/>
      <point x="739" y="418" type="curve" smooth="yes"/>
      <point x="739" y="331"/>
      <point x="646" y="294"/>
      <point x="572" y="294" type="curve" smooth="yes"/>
      <point x="506" y="294"/>
      <point x="397" y="316"/>
    </contour>
  </outline>
</glyph>
<glyph name="seven" format="2">
  <advance width="979"/>
  <unicode hex="0037"/>
  <outline>
    <contour>
      <point x="880" y="1198" type="curve" smooth="yes"/>
      <point x="104" y="1198" type="line" smooth="yes"/>
      <point x="69" y="1198"/>
      <point x="53" y="1181"/>
      <point x="53" y="1146" type="curve" smooth="yes"/>
      <point x="53" y="1076"/>
      <point x="51" y="985"/>
      <point x="55" y="918" type="curve" smooth="yes"/>
      <point x="57" y="884"/>
      <point x="71" y="867"/>
      <point x="107" y="867" type="curve" smooth="yes"/>
      <point x="439" y="867" type="line" smooth="yes"/>
      <point x="447" y="867"/>
      <point x="456" y="865"/>
      <point x="456" y="855" type="curve" smooth="yes"/>
      <point x="456" y="851"/>
      <point x="455" y="847"/>
      <point x="454" y="844" type="curve"/>
      <point x="351" y="585"/>
      <point x="240" y="330"/>
      <point x="135" y="72" type="curve"/>
      <point x="130" y="61"/>
      <point x="126" y="49"/>
      <point x="126" y="37" type="curve" smooth="yes"/>
      <point x="126" y="6"/>
      <point x="157" y="0"/>
      <point x="182" y="0" type="curve" smooth="yes"/>
      <point x="453" y="0" type="line" smooth="yes"/>
      <point x="477" y="0"/>
      <point x="492" y="10"/>
      <point x="501" y="32" type="curve" smooth="yes"/>
      <point x="521" y="78"/>
      <point x="538" y="127"/>
      <point x="556" y="174" type="curve" smooth="yes"/>
      <point x="665" y="457" type="line" smooth="yes"/>
      <point x="751" y="681"/>
      <point x="841" y="904"/>
      <point x="928" y="1128" type="curve" smooth="yes"/>
      <point x="932" y="1139"/>
      <point x="936" y="1149"/>
      <point x="936" y="1161" type="curve" smooth="yes"/>
      <point x="936" y="1192"/>
      <point x="905" y="1198"/>
    </contour>
  </outline>
</glyph>
<glyph name="eight" format="2">
  <advance width="1006"/>
  <unicode hex="0038"/>
  <outline>
    <contour>
      <point x="25" y="402" type="curve" smooth="yes"/>
      <point x="25" y="152"/>
      <point x="260" y="-14"/>
      <point x="494" y="-14" type="curve" smooth="yes"/>
      <point x="510" y="-14" type="line" smooth="yes"/>
      <point x="743" y="-14"/>
      <point x="980" y="152"/>
      <point x="980" y="401" type="curve" smooth="yes"/>
      <point x="980" y="542"/>
      <point x="911" y="636"/>
      <point x="797" y="712" type="curve"/>
      <point x="792" y="715"/>
      <point x="785" y="719"/>
      <point x="785" y="726" type="curve" smooth="yes"/>
      <point x="785" y="733"/>
      <point x="791" y="737"/>
      <point x="795" y="741" type="curve"/>
      <point x="862" y="802"/>
      <point x="881" y="856"/>
      <point x="881" y="946" type="curve" smooth="yes"/>
      <point x="881" y="1122"/>
      <point x="667" y="1213"/>
      <point x="517" y="1213" type="curve" smooth="yes"/>
      <point x="348" y="1213"/>
      <point x="144" y="1124"/>
      <point x="144" y="928" type="curve" smooth="yes"/>
      <point x="144" y="848"/>
      <point x="161" y="798"/>
      <point x="217" y="741" type="curve" smooth="yes"/>
      <point x="221" y="737"/>
      <point x="225" y="733"/>
      <point x="225" y="727" type="curve" smooth="yes"/>
      <point x="225" y="720"/>
      <point x="220" y="716"/>
      <point x="215" y="713" type="curve"/>
      <point x="101" y="636"/>
      <point x="25" y="547"/>
    </contour>
    <contour>
      <point x="356" y="415" type="curve" smooth="yes"/>
      <point x="356" y="498"/>
      <point x="417" y="552"/>
      <point x="499" y="552" type="curve" smooth="yes"/>
      <point x="583" y="552"/>
      <point x="644" y="501"/>
      <point x="644" y="414" type="curve" smooth="yes"/>
      <point x="644" y="327"/>
      <point x="584" y="275"/>
      <point x="499" y="275" type="curve" smooth="yes"/>
      <point x="413" y="275"/>
      <point x="356" y="328"/>
    </contour>
    <contour>
      <point x="390" y="898" type="curve" smooth="yes"/>
      <point x="390" y="964"/>
      <point x="433" y="1006"/>
      <point x="499" y="1006" type="curve" smooth="yes"/>
      <point x="567" y="1006"/>
      <point x="606" y="965"/>
      <point x="606" y="898" type="curve" smooth="yes"/>
      <point x="606" y="833"/>
      <point x="566" y="795"/>
      <point x="502" y="795" type="curve" smooth="yes"/>
      <point x="439" y="795"/>
      <point x="390" y="832"/>
    </contour>
  </outline>
</glyph>
<glyph name="nine" format="2">
  <advance width="1157"/>
  <unicode hex="0039"/>
  <outline>
    <contour>
      <point x="493" y="391" type="curve" smooth="yes"/>
      <point x="524" y="391"/>
      <point x="554" y="395"/>
      <point x="585" y="402" type="curve" smooth="yes"/>
      <point x="599" y="405"/>
      <point x="615" y="410"/>
      <point x="630" y="410" type="curve" smooth="yes"/>
      <point x="632" y="410"/>
      <point x="636" y="410"/>
      <point x="636" y="407" type="curve" smooth="yes"/>
      <point x="636" y="400"/>
      <point x="600" y="377"/>
      <point x="598" y="375" type="curve"/>
      <point x="496" y="303"/>
      <point x="406" y="274"/>
      <point x="291" y="234" type="curve" smooth="yes"/>
      <point x="272" y="227"/>
      <point x="243" y="217"/>
      <point x="243" y="192" type="curve" smooth="yes"/>
      <point x="243" y="175"/>
      <point x="256" y="160"/>
      <point x="266" y="148" type="curve" smooth="yes"/>
      <point x="310" y="95"/>
      <point x="360" y="39"/>
      <point x="409" y="-9" type="curve" smooth="yes"/>
      <point x="419" y="-19"/>
      <point x="429" y="-27"/>
      <point x="444" y="-27" type="curve" smooth="yes"/>
      <point x="453" y="-27"/>
      <point x="461" y="-24"/>
      <point x="469" y="-20" type="curve" smooth="yes"/>
      <point x="792" y="138"/>
      <point x="1129" y="352"/>
      <point x="1129" y="755" type="curve" smooth="yes"/>
      <point x="1129" y="1049"/>
      <point x="857" y="1233"/>
      <point x="583" y="1233" type="curve" smooth="yes"/>
      <point x="314" y="1233"/>
      <point x="46" y="1081"/>
      <point x="46" y="784" type="curve" smooth="yes"/>
      <point x="46" y="529"/>
      <point x="256" y="391"/>
    </contour>
    <contour>
      <point x="378" y="785" type="curve" smooth="yes"/>
      <point x="378" y="893"/>
      <point x="489" y="927"/>
      <point x="579" y="927" type="curve" smooth="yes"/>
      <point x="647" y="927"/>
      <point x="778" y="893"/>
      <point x="778" y="806" type="curve" smooth="yes"/>
      <point x="778" y="758" type="line" smooth="yes"/>
      <point x="778" y="751"/>
      <point x="770" y="735"/>
      <point x="767" y="730" type="curve" smooth="yes"/>
      <point x="734" y="673"/>
      <point x="643" y="644"/>
      <point x="581" y="644" type="curve" smooth="yes"/>
      <point x="490" y="644"/>
      <point x="378" y="675"/>
    </contour>
  </outline>
</glyph>
<glyph name="colon" format="2">
  <advance width="510"/>
  <unicode hex="003A"/>
  <outline>
    <contour>
      <point x="72" y="803" type="curve" smooth="yes"/>
      <point x="72" y="705"/>
      <point x="150" y="621"/>
      <point x="250" y="621" type="curve" smooth="yes"/>
      <point x="350" y="621"/>
      <point x="431" y="704"/>
      <point x="431" y="803" type="curve" smooth="yes"/>
      <point x="431" y="899"/>
      <point x="347" y="987"/>
      <point x="250" y="987" type="curve" smooth="yes"/>
      <point x="152" y="987"/>
      <point x="72" y="899"/>
    </contour>
    <contour>
      <point x="70" y="178" type="curve" smooth="yes"/>
      <point x="70" y="80"/>
      <point x="152" y="0"/>
      <point x="250" y="0" type="curve" smooth="yes"/>
      <point x="347" y="0"/>
      <point x="433" y="79"/>
      <point x="433" y="178" type="curve" smooth="yes"/>
      <point x="433" y="276"/>
      <point x="350" y="367"/>
      <point x="250" y="367" type="curve" smooth="yes"/>
      <point x="149" y="367"/>
      <point x="70" y="276"/>
    </contour>
  </outline>
</glyph>
<glyph name="semicolon" format="2">
  <advance width="510"/>
  <unicode hex="003B"/>
  <outline>
    <contour>
      <point x="160" y="720" type="curve" smooth="yes"/>
      <point x="160" y="627"/>
      <point x="237" y="540"/>
      <point x="332" y="540" type="curve" smooth="yes"/>
      <point x="428" y="540"/>
      <point x="492" y="630"/>
      <point x="492" y="720" type="curve" smooth="yes"/>
      <point x="492" y="812"/>
      <point x="430" y="906"/>
      <point x="330" y="906" type="curve" smooth="yes"/>
      <point x="233" y="906"/>
      <point x="160" y="812"/>
    </contour>
    <contour>
      <point x="368" y="189" type="curve" smooth="yes"/>
      <point x="195" y="189" type="line" smooth="yes"/>
      <point x="172" y="189"/>
      <point x="158" y="179"/>
      <point x="148" y="158" type="curve" smooth="yes"/>
      <point x="125" y="111"/>
      <point x="107" y="61"/>
      <point x="86" y="13" type="curve" smooth="yes"/>
      <point x="57" y="-54"/>
      <point x="27" y="-119"/>
      <point x="-2" y="-186" type="curve" smooth="yes"/>
      <point x="-7" y="-198"/>
      <point x="-12" y="-210"/>
      <point x="-12" y="-223" type="curve" smooth="yes"/>
      <point x="-12" y="-254"/>
      <point x="20" y="-259"/>
      <point x="45" y="-259" type="curve" smooth="yes"/>
      <point x="205" y="-259" type="line" smooth="yes"/>
      <point x="228" y="-259"/>
      <point x="242" y="-250"/>
      <point x="252" y="-230" type="curve" smooth="yes"/>
      <point x="277" y="-183"/>
      <point x="297" y="-133"/>
      <point x="320" y="-85" type="curve" smooth="yes"/>
      <point x="352" y="-18"/>
      <point x="384" y="49"/>
      <point x="414" y="116" type="curve"/>
      <point x="419" y="128"/>
      <point x="425" y="140"/>
      <point x="425" y="153" type="curve" smooth="yes"/>
      <point x="425" y="184"/>
      <point x="392" y="189"/>
    </contour>
  </outline>
</glyph>
<glyph name="less" format="2">
  <advance width="821"/>
  <unicode hex="003C"/>
  <outline>
    <contour>
      <point x="756" y="954" type="curve" smooth="yes"/>
      <point x="756" y="975"/>
      <point x="755" y="1018"/>
      <point x="725" y="1018" type="curve" smooth="yes"/>
      <point x="707" y="1018"/>
      <point x="689" y="1005"/>
      <point x="675" y="995" type="curve" smooth="yes"/>
      <point x="564" y="916"/>
      <point x="455" y="834"/>
      <point x="345" y="753" type="curve" smooth="yes"/>
      <point x="255" y="686"/>
      <point x="162" y="622"/>
      <point x="73" y="554" type="curve" smooth="yes"/>
      <point x="60" y="544"/>
      <point x="45" y="530"/>
      <point x="45" y="512" type="curve" smooth="yes"/>
      <point x="45" y="494"/>
      <point x="60" y="481"/>
      <point x="73" y="471" type="curve" smooth="yes"/>
      <point x="163" y="403"/>
      <point x="256" y="337"/>
      <point x="347" y="271" type="curve" smooth="yes"/>
      <point x="458" y="190"/>
      <point x="568" y="109"/>
      <point x="680" y="30" type="curve" smooth="yes"/>
      <point x="694" y="20"/>
      <point x="712" y="8"/>
      <point x="729" y="8" type="curve" smooth="yes"/>
      <point x="760" y="8"/>
      <point x="761" y="51"/>
      <point x="761" y="72" type="curve" smooth="yes"/>
      <point x="761" y="130"/>
      <point x="759" y="189"/>
      <point x="758" y="247" type="curve" smooth="yes"/>
      <point x="758" y="282"/>
      <point x="759" y="317"/>
      <point x="757" y="351" type="curve" smooth="yes"/>
      <point x="756" y="364"/>
      <point x="753" y="374"/>
      <point x="745" y="384" type="curve"/>
      <point x="732" y="399"/>
      <point x="642" y="501"/>
      <point x="642" y="512" type="curve" smooth="yes"/>
      <point x="642" y="523"/>
      <point x="731" y="626"/>
      <point x="744" y="642" type="curve"/>
      <point x="752" y="651"/>
      <point x="756" y="662"/>
      <point x="756" y="674" type="curve" smooth="yes"/>
      <point x="756" y="767"/>
      <point x="756" y="861"/>
    </contour>
  </outline>
</glyph>
<glyph name="equal" format="2">
  <advance width="987"/>
  <unicode hex="003D"/>
  <outline>
    <contour>
      <point x="65" y="849" type="curve" smooth="yes"/>
      <point x="65" y="631" type="line" smooth="yes"/>
      <point x="65" y="597"/>
      <point x="82" y="579"/>
      <point x="116" y="579" type="curve" smooth="yes"/>
      <point x="871" y="579" type="line" smooth="yes"/>
      <point x="905" y="579"/>
      <point x="922" y="597"/>
      <point x="922" y="631" type="curve" smooth="yes"/>
      <point x="922" y="849" type="line" smooth="yes"/>
      <point x="922" y="883"/>
      <point x="906" y="901"/>
      <point x="871" y="901" type="curve" smooth="yes"/>
      <point x="116" y="901" type="line" smooth="yes"/>
      <point x="81" y="901"/>
      <point x="65" y="883"/>
    </contour>
    <contour>
      <point x="61" y="212" type="curve" smooth="yes"/>
      <point x="61" y="177"/>
      <point x="77" y="159"/>
      <point x="112" y="159" type="curve" smooth="yes"/>
      <point x="875" y="159" type="line" smooth="yes"/>
      <point x="910" y="159"/>
      <point x="926" y="177"/>
      <point x="926" y="212" type="curve" smooth="yes"/>
      <point x="926" y="284"/>
      <point x="926" y="358"/>
      <point x="923" y="430" type="curve" smooth="yes"/>
      <point x="922" y="464"/>
      <point x="907" y="480"/>
      <point x="872" y="480" type="curve" smooth="yes"/>
      <point x="115" y="480" type="line" smooth="yes"/>
      <point x="80" y="480"/>
      <point x="65" y="464"/>
      <point x="64" y="430" type="curve" smooth="yes"/>
      <point x="61" y="358"/>
      <point x="61" y="284"/>
    </contour>
  </outline>
</glyph>
<glyph name="greater" format="2">
  <advance width="821"/>
  <unicode hex="003E"/>
  <outline>
    <contour>
      <point x="64" y="73" type="curve" smooth="yes"/>
      <point x="64" y="52"/>
      <point x="65" y="8"/>
      <point x="95" y="8" type="curve" smooth="yes"/>
      <point x="113" y="8"/>
      <point x="131" y="20"/>
      <point x="145" y="30" type="curve" smooth="yes"/>
      <point x="250" y="103"/>
      <point x="353" y="181"/>
      <point x="456" y="257" type="curve" smooth="yes"/>
      <point x="553" y="329"/>
      <point x="652" y="399"/>
      <point x="747" y="472" type="curve" smooth="yes"/>
      <point x="760" y="482"/>
      <point x="776" y="495"/>
      <point x="776" y="513" type="curve" smooth="yes"/>
      <point x="776" y="531"/>
      <point x="760" y="544"/>
      <point x="747" y="554" type="curve" smooth="yes"/>
      <point x="646" y="632"/>
      <point x="541" y="706"/>
      <point x="439" y="781" type="curve" smooth="yes"/>
      <point x="342" y="852"/>
      <point x="247" y="925"/>
      <point x="149" y="993" type="curve"/>
      <point x="135" y="1002"/>
      <point x="117" y="1015"/>
      <point x="99" y="1015" type="curve" smooth="yes"/>
      <point x="69" y="1015"/>
      <point x="68" y="972"/>
      <point x="68" y="951" type="curve" smooth="yes"/>
      <point x="68" y="737" type="line" smooth="yes"/>
      <point x="68" y="719"/>
      <point x="74" y="710"/>
      <point x="87" y="698" type="curve" smooth="yes"/>
      <point x="112" y="675"/>
      <point x="304" y="525"/>
      <point x="304" y="514" type="curve" smooth="yes"/>
      <point x="304" y="500"/>
      <point x="110" y="352"/>
      <point x="85" y="329" type="curve" smooth="yes"/>
      <point x="70" y="315"/>
      <point x="68" y="310"/>
      <point x="66" y="290" type="curve"/>
      <point x="61" y="221"/>
      <point x="64" y="143"/>
    </contour>
  </outline>
</glyph>
<glyph name="question" format="2">
  <advance width="864"/>
  <unicode hex="003F"/>
  <outline>
    <contour>
      <point x="309" y="421" type="curve" smooth="yes"/>
      <point x="520" y="421" type="line" smooth="yes"/>
      <point x="542" y="421"/>
      <point x="537" y="446"/>
      <point x="537" y="461" type="curve" smooth="yes"/>
      <point x="537" y="813"/>
      <point x="837" y="802"/>
      <point x="837" y="1180" type="curve" smooth="yes"/>
      <point x="837" y="1433"/>
      <point x="706" y="1577"/>
      <point x="449" y="1577" type="curve" smooth="yes"/>
      <point x="244" y="1577"/>
      <point x="96" y="1442"/>
      <point x="29" y="1256" type="curve" smooth="yes"/>
      <point x="27" y="1250"/>
      <point x="25" y="1243"/>
      <point x="25" y="1236" type="curve" smooth="yes"/>
      <point x="25" y="1217"/>
      <point x="38" y="1205"/>
      <point x="53" y="1197" type="curve" smooth="yes"/>
      <point x="82" y="1181"/>
      <point x="198" y="1113"/>
      <point x="225" y="1113" type="curve" smooth="yes"/>
      <point x="283" y="1113"/>
      <point x="283" y="1283"/>
      <point x="427" y="1283" type="curve" smooth="yes"/>
      <point x="493" y="1283"/>
      <point x="539" y="1215"/>
      <point x="539" y="1155" type="curve" smooth="yes"/>
      <point x="539" y="942"/>
      <point x="258" y="911"/>
      <point x="258" y="533" type="curve" smooth="yes"/>
      <point x="258" y="488"/>
      <point x="243" y="421"/>
    </contour>
    <contour>
      <point x="396" y="-38" type="curve" smooth="yes"/>
      <point x="492" y="-38"/>
      <point x="555" y="24"/>
      <point x="555" y="120" type="curve" smooth="yes"/>
      <point x="555" y="208"/>
      <point x="507" y="283"/>
      <point x="412" y="283" type="curve" smooth="yes"/>
      <point x="322" y="283"/>
      <point x="234" y="214"/>
      <point x="234" y="120" type="curve" smooth="yes"/>
      <point x="234" y="24"/>
      <point x="301" y="-38"/>
    </contour>
  </outline>
</glyph>
<glyph name="at" format="2">
  <advance width="1407"/>
  <unicode hex="0040"/>
  <outline>
    <contour>
      <point x="676" y="-492" type="curve" smooth="yes"/>
      <point x="845" y="-492"/>
      <point x="1070" y="-423"/>
      <point x="1193" y="-303" type="curve" smooth="yes"/>
      <point x="1202" y="-294"/>
      <point x="1209" y="-284"/>
      <point x="1209" y="-271" type="curve" smooth="yes"/>
      <point x="1209" y="-248"/>
      <point x="1133" y="-139"/>
      <point x="1116" y="-116" type="curve" smooth="yes"/>
      <point x="1106" y="-102"/>
      <point x="1094" y="-89"/>
      <point x="1075" y="-89" type="curve" smooth="yes"/>
      <point x="1061" y="-89"/>
      <point x="1050" y="-95"/>
      <point x="1039" y="-102" type="curve" smooth="yes"/>
      <point x="942" y="-163"/>
      <point x="843" y="-205"/>
      <point x="726" y="-205" type="curve" smooth="yes"/>
      <point x="373" y="-205"/>
      <point x="211" y="66"/>
      <point x="211" y="390" type="curve" smooth="yes"/>
      <point x="211" y="819"/>
      <point x="405" y="1202"/>
      <point x="882" y="1202" type="curve" smooth="yes"/>
      <point x="1203" y="1202"/>
      <point x="1341" y="991"/>
      <point x="1341" y="690" type="curve" smooth="yes"/>
      <point x="1341" y="598"/>
      <point x="1329" y="376"/>
      <point x="1242" y="325" type="curve"/>
      <point x="1233" y="324" type="line"/>
      <point x="1215" y="333"/>
      <point x="1215" y="357"/>
      <point x="1215" y="374" type="curve" smooth="yes"/>
      <point x="1215" y="385"/>
      <point x="1215" y="397"/>
      <point x="1216" y="408" type="curve" smooth="yes"/>
      <point x="1231" y="572"/>
      <point x="1251" y="736"/>
      <point x="1270" y="900" type="curve"/>
      <point x="1270" y="904"/>
      <point x="1271" y="908"/>
      <point x="1271" y="912" type="curve" smooth="yes"/>
      <point x="1271" y="945"/>
      <point x="1250" y="958"/>
      <point x="1219" y="958" type="curve" smooth="yes"/>
      <point x="979" y="958" type="line" smooth="yes"/>
      <point x="948" y="958"/>
      <point x="956" y="912"/>
      <point x="937" y="912" type="curve" smooth="yes"/>
      <point x="930" y="912"/>
      <point x="925" y="919"/>
      <point x="921" y="923" type="curve"/>
      <point x="862" y="993"/>
      <point x="822" y="1011"/>
      <point x="729" y="1011" type="curve" smooth="yes"/>
      <point x="409" y="1011"/>
      <point x="280" y="692"/>
      <point x="280" y="418" type="curve" smooth="yes"/>
      <point x="280" y="208"/>
      <point x="362" y="-29"/>
      <point x="612" y="-29" type="curve" smooth="yes"/>
      <point x="767" y="-29"/>
      <point x="899" y="132"/>
      <point x="910" y="132" type="curve" smooth="yes"/>
      <point x="917" y="132"/>
      <point x="922" y="126"/>
      <point x="925" y="121" type="curve"/>
      <point x="990" y="32"/>
      <point x="1076" y="-15"/>
      <point x="1187" y="-15" type="curve" smooth="yes"/>
      <point x="1518" y="-15"/>
      <point x="1639" y="407"/>
      <point x="1639" y="674" type="curve" smooth="yes"/>
      <point x="1639" y="1132"/>
      <point x="1430" y="1488"/>
      <point x="932" y="1488" type="curve" smooth="yes"/>
      <point x="261" y="1488"/>
      <point x="-80" y="993"/>
      <point x="-80" y="361" type="curve" smooth="yes"/>
      <point x="-80" y="-5"/>
      <point x="78" y="-352"/>
      <point x="452" y="-459" type="curve" smooth="yes"/>
      <point x="524" y="-480"/>
      <point x="601" y="-492"/>
    </contour>
    <contour>
      <point x="626" y="469" type="curve" smooth="yes"/>
      <point x="626" y="563"/>
      <point x="672" y="713"/>
      <point x="788" y="713" type="curve" smooth="yes"/>
      <point x="852" y="713"/>
      <point x="884" y="669"/>
      <point x="902" y="612" type="curve"/>
      <point x="871" y="347" type="line"/>
      <point x="833" y="311"/>
      <point x="815" y="271"/>
      <point x="756" y="271" type="curve" smooth="yes"/>
      <point x="656" y="271"/>
      <point x="626" y="388"/>
    </contour>
  </outline>
</glyph>
<glyph name="A" format="2">
  <advance width="1421"/>
  <unicode hex="0041"/>
  <anchor x="711" y="0" name="bottom"/>
  <anchor x="1246" y="20" name="ogonek"/>
  <anchor x="711" y="1523" name="top"/>
  <outline>
    <contour>
      <point x="97" y="0" type="curve" smooth="yes"/>
      <point x="355" y="0" type="line" smooth="yes"/>
      <point x="381" y="0"/>
      <point x="391" y="11"/>
      <point x="402" y="32" type="curve" smooth="yes"/>
      <point x="430" y="87"/>
      <point x="447" y="150"/>
      <point x="473" y="206" type="curve"/>
      <point x="476" y="213"/>
      <point x="480" y="217"/>
      <point x="488" y="217" type="curve" smooth="yes"/>
      <point x="876" y="217" type="line" smooth="yes"/>
      <point x="884" y="217"/>
      <point x="888" y="213"/>
      <point x="891" y="206" type="curve" smooth="yes"/>
      <point x="914" y="150"/>
      <point x="928" y="88"/>
      <point x="953" y="34" type="curve" smooth="yes"/>
      <point x="964" y="11"/>
      <point x="974" y="0"/>
      <point x="1001" y="0" type="curve" smooth="yes"/>
      <point x="1324" y="0" type="line" smooth="yes"/>
      <point x="1348" y="0"/>
      <point x="1382" y="4"/>
      <point x="1382" y="35" type="curve" smooth="yes"/>
      <point x="1382" y="49"/>
      <point x="1376" y="62"/>
      <point x="1370" y="74" type="curve" smooth="yes"/>
      <point x="1249" y="328"/>
      <point x="1128" y="582"/>
      <point x="1012" y="839" type="curve" smooth="yes"/>
      <point x="916" y="1050"/>
      <point x="825" y="1264"/>
      <point x="724" y="1472" type="curve" smooth="yes"/>
      <point x="721" y="1478"/>
      <point x="717" y="1481"/>
      <point x="710" y="1481" type="curve" smooth="yes"/>
      <point x="703" y="1481"/>
      <point x="699" y="1478"/>
      <point x="696" y="1472" type="curve" smooth="yes"/>
      <point x="595" y="1264"/>
      <point x="504" y="1050"/>
      <point x="408" y="839" type="curve" smooth="yes"/>
      <point x="292" y="582"/>
      <point x="172" y="328"/>
      <point x="51" y="74" type="curve" smooth="yes"/>
      <point x="45" y="62"/>
      <point x="39" y="49"/>
      <point x="39" y="35" type="curve" smooth="yes"/>
      <point x="39" y="4"/>
      <point x="73" y="0"/>
    </contour>
    <contour>
      <point x="589" y="500" type="line"/>
      <point x="695" y="771" type="line"/>
      <point x="788" y="500" type="line"/>
    </contour>
  </outline>
</glyph>
<glyph name="B" format="2">
  <advance width="1309"/>
  <unicode hex="0042"/>
  <anchor x="673" y="0" name="bottom"/>
  <anchor x="673" y="1427" name="top"/>
  <outline>
    <contour>
      <point x="114" y="1374" type="curve" smooth="yes"/>
      <point x="114" y="1303"/>
      <point x="118" y="1232"/>
      <point x="119" y="1161" type="curve" smooth="yes"/>
      <point x="122" y="1012"/>
      <point x="123" y="863"/>
      <point x="123" y="714" type="curve" smooth="yes"/>
      <point x="123" y="564"/>
      <point x="122" y="415"/>
      <point x="119" y="266" type="curve" smooth="yes"/>
      <point x="118" y="195"/>
      <point x="114" y="124"/>
      <point x="114" y="53" type="curve" smooth="yes"/>
      <point x="114" y="17"/>
      <point x="129" y="0"/>
      <point x="166" y="0" type="curve" smooth="yes"/>
      <point x="679" y="0" type="line" smooth="yes"/>
      <point x="957" y="0"/>
      <point x="1240" y="100"/>
      <point x="1240" y="425" type="curve" smooth="yes"/>
      <point x="1240" y="579"/>
      <point x="1151" y="674"/>
      <point x="1024" y="746" type="curve" smooth="yes"/>
      <point x="1019" y="749"/>
      <point x="1010" y="753"/>
      <point x="1010" y="761" type="curve" smooth="yes"/>
      <point x="1010" y="767"/>
      <point x="1017" y="772"/>
      <point x="1022" y="776" type="curve" smooth="yes"/>
      <point x="1117" y="851"/>
      <point x="1169" y="946"/>
      <point x="1169" y="1069" type="curve" smooth="yes"/>
      <point x="1169" y="1355"/>
      <point x="855" y="1427"/>
      <point x="625" y="1427" type="curve" smooth="yes"/>
      <point x="166" y="1427" type="line" smooth="yes"/>
      <point x="129" y="1427"/>
      <point x="114" y="1410"/>
    </contour>
    <contour>
      <point x="653" y="320" type="curve" smooth="yes"/>
      <point x="495" y="320" type="line"/>
      <point x="495" y="394"/>
      <point x="496" y="467"/>
      <point x="496" y="541" type="curve"/>
      <point x="641" y="541" type="line" smooth="yes"/>
      <point x="718" y="541"/>
      <point x="852" y="543"/>
      <point x="852" y="435" type="curve" smooth="yes"/>
      <point x="852" y="335"/>
      <point x="728" y="320"/>
    </contour>
    <contour>
      <point x="649" y="871" type="curve" smooth="yes"/>
      <point x="496" y="871" type="line"/>
      <point x="496" y="946"/>
      <point x="496" y="1021"/>
      <point x="495" y="1096" type="curve"/>
      <point x="642" y="1096" type="line" smooth="yes"/>
      <point x="705" y="1096"/>
      <point x="779" y="1068"/>
      <point x="779" y="994" type="curve" smooth="yes"/>
      <point x="779" y="922"/>
      <point x="719" y="871"/>
    </contour>
  </outline>
</glyph>
<glyph name="C" format="2">
  <advance width="1276"/>
  <unicode hex="0043"/>
  <anchor x="714" y="0" name="bottom"/>
  <anchor x="688" y="1470" name="top"/>
  <outline>
    <contour>
      <point x="1055" y="402" type="curve" smooth="yes"/>
      <point x="1038" y="402"/>
      <point x="1023" y="393"/>
      <point x="1009" y="384" type="curve" smooth="yes"/>
      <point x="943" y="343"/>
      <point x="870" y="316"/>
      <point x="791" y="316" type="curve" smooth="yes"/>
      <point x="556" y="316"/>
      <point x="459" y="511"/>
      <point x="459" y="720" type="curve" smooth="yes"/>
      <point x="459" y="908"/>
      <point x="572" y="1111"/>
      <point x="781" y="1111" type="curve" smooth="yes"/>
      <point x="892" y="1111"/>
      <point x="980" y="1011"/>
      <point x="1019" y="1011" type="curve" smooth="yes"/>
      <point x="1041" y="1011"/>
      <point x="1050" y="1029"/>
      <point x="1058" y="1046" type="curve"/>
      <point x="1072" y="1073"/>
      <point x="1161" y="1284"/>
      <point x="1161" y="1300" type="curve" smooth="yes"/>
      <point x="1161" y="1319"/>
      <point x="1150" y="1328"/>
      <point x="1135" y="1338" type="curve" smooth="yes"/>
      <point x="1028" y="1408"/>
      <point x="857" y="1442"/>
      <point x="731" y="1442" type="curve" smooth="yes"/>
      <point x="302" y="1442"/>
      <point x="70" y="1130"/>
      <point x="70" y="722" type="curve" smooth="yes"/>
      <point x="70" y="292"/>
      <point x="331" y="-15"/>
      <point x="773" y="-15" type="curve" smooth="yes"/>
      <point x="896" y="-15"/>
      <point x="1086" y="23"/>
      <point x="1183" y="103" type="curve" smooth="yes"/>
      <point x="1194" y="112"/>
      <point x="1202" y="122"/>
      <point x="1202" y="137" type="curve" smooth="yes"/>
      <point x="1202" y="155"/>
      <point x="1115" y="336"/>
      <point x="1100" y="363" type="curve" smooth="yes"/>
      <point x="1090" y="381"/>
      <point x="1079" y="402"/>
    </contour>
  </outline>
</glyph>
<glyph name="D" format="2">
  <advance width="1460"/>
  <unicode hex="0044"/>
  <anchor x="756" y="0" name="bottom"/>
  <anchor x="304" y="714" name="center"/>
  <anchor x="586" y="1427" name="top"/>
  <outline>
    <contour>
      <point x="166" y="0" type="curve" smooth="yes"/>
      <point x="658" y="0" type="line" smooth="yes"/>
      <point x="1068" y="0"/>
      <point x="1388" y="258"/>
      <point x="1388" y="683" type="curve" smooth="yes"/>
      <point x="1388" y="1177"/>
      <point x="1058" y="1427"/>
      <point x="587" y="1427" type="curve" smooth="yes"/>
      <point x="166" y="1427" type="line" smooth="yes"/>
      <point x="129" y="1427"/>
      <point x="115" y="1410"/>
      <point x="115" y="1374" type="curve" smooth="yes"/>
      <point x="115" y="1305"/>
      <point x="118" y="1236"/>
      <point x="120" y="1167" type="curve" smooth="yes"/>
      <point x="123" y="1016"/>
      <point x="124" y="865"/>
      <point x="124" y="714" type="curve" smooth="yes"/>
      <point x="124" y="562"/>
      <point x="123" y="411"/>
      <point x="120" y="260" type="curve" smooth="yes"/>
      <point x="118" y="191"/>
      <point x="115" y="122"/>
      <point x="115" y="53" type="curve" smooth="yes"/>
      <point x="115" y="17"/>
      <point x="129" y="0"/>
    </contour>
    <contour>
      <point x="496" y="331" type="line"/>
      <point x="498" y="587"/>
      <point x="498" y="844"/>
      <point x="496" y="1100" type="curve"/>
      <point x="675" y="1100" type="line" smooth="yes"/>
      <point x="921" y="1100"/>
      <point x="1001" y="926"/>
      <point x="1001" y="706" type="curve" smooth="yes"/>
      <point x="1001" y="446"/>
      <point x="850" y="331"/>
      <point x="600" y="331" type="curve" smooth="yes"/>
    </contour>
  </outline>
</glyph>
<glyph name="E" format="2">
  <advance width="1157"/>
  <unicode hex="0045"/>
  <anchor x="602" y="0" name="bottom"/>
  <anchor x="934" y="20" name="ogonek"/>
  <anchor x="602" y="1475" name="top"/>
  <anchor x="96" y="1427" name="topleft"/>
  <outline>
    <contour>
      <point x="114" y="1375" type="curve" smooth="yes"/>
      <point x="114" y="1304"/>
      <point x="117" y="1233"/>
      <point x="118" y="1162" type="curve" smooth="yes"/>
      <point x="120" y="1014"/>
      <point x="122" y="865"/>
      <point x="122" y="717" type="curve" smooth="yes"/>
      <point x="122" y="567"/>
      <point x="120" y="417"/>
      <point x="118" y="267" type="curve" smooth="yes"/>
      <point x="117" y="196"/>
      <point x="114" y="123"/>
      <point x="114" y="52" type="curve" smooth="yes"/>
      <point x="114" y="17"/>
      <point x="130" y="0"/>
      <point x="166" y="0" type="curve" smooth="yes"/>
      <point x="1038" y="0" type="line" smooth="yes"/>
      <point x="1074" y="0"/>
      <point x="1090" y="18"/>
      <point x="1090" y="53" type="curve" smooth="yes"/>
      <point x="1090" y="128"/>
      <point x="1089" y="205"/>
      <point x="1085" y="280" type="curve" smooth="yes"/>
      <point x="1083" y="314"/>
      <point x="1069" y="331"/>
      <point x="1034" y="331" type="curve" smooth="yes"/>
      <point x="511" y="331" type="line" smooth="yes"/>
      <point x="500" y="331"/>
      <point x="494" y="336"/>
      <point x="494" y="347" type="curve" smooth="yes"/>
      <point x="495" y="553" type="line" smooth="yes"/>
      <point x="495" y="564"/>
      <point x="500" y="569"/>
      <point x="511" y="569" type="curve" smooth="yes"/>
      <point x="936" y="569" type="line" smooth="yes"/>
      <point x="970" y="569"/>
      <point x="988" y="587"/>
      <point x="988" y="621" type="curve" smooth="yes"/>
      <point x="988" y="813" type="line" smooth="yes"/>
      <point x="988" y="847"/>
      <point x="970" y="865"/>
      <point x="936" y="865" type="curve" smooth="yes"/>
      <point x="511" y="865" type="line" smooth="yes"/>
      <point x="500" y="865"/>
      <point x="495" y="870"/>
      <point x="495" y="881" type="curve" smooth="yes"/>
      <point x="494" y="1080" type="line" smooth="yes"/>
      <point x="494" y="1091"/>
      <point x="500" y="1096"/>
      <point x="511" y="1096" type="curve" smooth="yes"/>
      <point x="1011" y="1096" type="line" smooth="yes"/>
      <point x="1046" y="1096"/>
      <point x="1060" y="1113"/>
      <point x="1062" y="1147" type="curve" smooth="yes"/>
      <point x="1066" y="1222"/>
      <point x="1067" y="1300"/>
      <point x="1067" y="1375" type="curve" smooth="yes"/>
      <point x="1067" y="1410"/>
      <point x="1051" y="1427"/>
      <point x="1015" y="1427" type="curve" smooth="yes"/>
      <point x="166" y="1427" type="line" smooth="yes"/>
      <point x="130" y="1427"/>
      <point x="114" y="1410"/>
    </contour>
  </outline>
</glyph>
<glyph name="F" format="2">
  <advance width="1151"/>
  <unicode hex="0046"/>
  <anchor x="586" y="0" name="bottom"/>
  <anchor x="586" y="1427" name="top"/>
  <outline>
    <contour>
      <point x="114" y="1375" type="curve" smooth="yes"/>
      <point x="114" y="1304"/>
      <point x="117" y="1233"/>
      <point x="118" y="1162" type="curve" smooth="yes"/>
      <point x="120" y="1012"/>
      <point x="122" y="863"/>
      <point x="122" y="714" type="curve" smooth="yes"/>
      <point x="122" y="564"/>
      <point x="120" y="415"/>
      <point x="118" y="265" type="curve" smooth="yes"/>
      <point x="117" y="194"/>
      <point x="114" y="123"/>
      <point x="114" y="52" type="curve" smooth="yes"/>
      <point x="114" y="17"/>
      <point x="129" y="0"/>
      <point x="165" y="0" type="curve" smooth="yes"/>
      <point x="442" y="0" type="line" smooth="yes"/>
      <point x="476" y="0"/>
      <point x="493" y="17"/>
      <point x="493" y="51" type="curve" smooth="yes"/>
      <point x="493" y="206"/>
      <point x="494" y="360"/>
      <point x="494" y="515" type="curve" smooth="yes"/>
      <point x="494" y="526" name=".hr01"/>
      <point x="500" y="531"/>
      <point x="511" y="531" type="curve" smooth="yes"/>
      <point x="953" y="531" type="line" smooth="yes"/>
      <point x="988" y="531"/>
      <point x="1005" y="548"/>
      <point x="1005" y="583" type="curve" smooth="yes"/>
      <point x="1005" y="659"/>
      <point x="1004" y="735"/>
      <point x="1004" y="811" type="curve" smooth="yes"/>
      <point x="1004" y="845"/>
      <point x="987" y="862"/>
      <point x="953" y="862" type="curve" smooth="yes"/>
      <point x="511" y="862" type="line" smooth="yes"/>
      <point x="501" y="862"/>
      <point x="494" y="867"/>
      <point x="494" y="878" type="curve" smooth="yes"/>
      <point x="494" y="1080" type="line" smooth="yes"/>
      <point x="494" y="1091"/>
      <point x="500" y="1096"/>
      <point x="511" y="1096" type="curve" smooth="yes"/>
      <point x="1040" y="1096" type="line" smooth="yes"/>
      <point x="1075" y="1096"/>
      <point x="1089" y="1113"/>
      <point x="1091" y="1146" type="curve" smooth="yes"/>
      <point x="1093" y="1175"/>
      <point x="1092" y="1206"/>
      <point x="1093" y="1235" type="curve" smooth="yes"/>
      <point x="1094" y="1282"/>
      <point x="1096" y="1328"/>
      <point x="1096" y="1374" type="curve" smooth="yes"/>
      <point x="1096" y="1410"/>
      <point x="1081" y="1427"/>
      <point x="1044" y="1427" type="curve" smooth="yes"/>
      <point x="165" y="1427" type="line" smooth="yes"/>
      <point x="129" y="1427"/>
      <point x="114" y="1410"/>
    </contour>
  </outline>
</glyph>
<glyph name="G" format="2">
  <advance width="1456"/>
  <unicode hex="0047"/>
  <anchor x="717" y="0" name="bottom"/>
  <anchor x="790" y="1428" name="top"/>
  <outline>
    <contour>
      <point x="1368" y="177" type="curve" smooth="yes"/>
      <point x="1368" y="238"/>
      <point x="1365" y="299"/>
      <point x="1364" y="360" type="curve" smooth="yes"/>
      <point x="1362" y="482"/>
      <point x="1361" y="605"/>
      <point x="1361" y="727" type="curve" smooth="yes"/>
      <point x="1361" y="761"/>
      <point x="1344" y="778"/>
      <point x="1310" y="778" type="curve" smooth="yes"/>
      <point x="822" y="778" type="line" smooth="yes"/>
      <point x="788" y="778"/>
      <point x="771" y="761"/>
      <point x="771" y="727" type="curve" smooth="yes"/>
      <point x="771" y="586" type="line" smooth="yes"/>
      <point x="771" y="552"/>
      <point x="788" y="535"/>
      <point x="822" y="535" type="curve" smooth="yes"/>
      <point x="1029" y="535" type="line" smooth="yes"/>
      <point x="1040" y="535"/>
      <point x="1046" y="530"/>
      <point x="1046" y="519" type="curve" smooth="yes"/>
      <point x="1047" y="386" type="line" smooth="yes"/>
      <point x="1047" y="343"/>
      <point x="848" y="329"/>
      <point x="814" y="329" type="curve" smooth="yes"/>
      <point x="583" y="329"/>
      <point x="460" y="469"/>
      <point x="460" y="695" type="curve" smooth="yes"/>
      <point x="460" y="963"/>
      <point x="594" y="1096"/>
      <point x="862" y="1096" type="curve" smooth="yes"/>
      <point x="962" y="1096"/>
      <point x="1057" y="1080"/>
      <point x="1151" y="1047" type="curve" smooth="yes"/>
      <point x="1160" y="1044"/>
      <point x="1170" y="1041"/>
      <point x="1179" y="1041" type="curve" smooth="yes"/>
      <point x="1206" y="1041"/>
      <point x="1214" y="1059"/>
      <point x="1222" y="1080" type="curve" smooth="yes"/>
      <point x="1231" y="1103"/>
      <point x="1295" y="1310"/>
      <point x="1295" y="1323" type="curve" smooth="yes"/>
      <point x="1295" y="1346"/>
      <point x="1282" y="1356"/>
      <point x="1263" y="1365" type="curve" smooth="yes"/>
      <point x="1156" y="1416"/>
      <point x="959" y="1441"/>
      <point x="840" y="1441" type="curve" smooth="yes"/>
      <point x="346" y="1441"/>
      <point x="72" y="1153"/>
      <point x="72" y="664" type="curve" smooth="yes"/>
      <point x="72" y="217"/>
      <point x="418" y="-15"/>
      <point x="836" y="-15" type="curve" smooth="yes"/>
      <point x="975" y="-15"/>
      <point x="1249" y="44"/>
      <point x="1352" y="139" type="curve" smooth="yes"/>
      <point x="1365" y="151"/>
      <point x="1368" y="160"/>
    </contour>
  </outline>
</glyph>
<glyph name="H" format="2">
  <advance width="1526"/>
  <unicode hex="0048"/>
  <anchor x="765" y="0" name="bottom"/>
  <anchor x="765" y="714" name="center"/>
  <anchor x="765" y="1427" name="top"/>
  <anchor x="69" y="1427" name="topleft"/>
  <outline>
    <contour>
      <point x="1360" y="1427" type="curve" smooth="yes"/>
      <point x="1082" y="1427" type="line" smooth="yes"/>
      <point x="1046" y="1427"/>
      <point x="1034" y="1410"/>
      <point x="1031" y="1377" type="curve" smooth="yes"/>
      <point x="1026" y="1327"/>
      <point x="1030" y="1273"/>
      <point x="1029" y="1223" type="curve" smooth="yes"/>
      <point x="1028" y="1114"/>
      <point x="1027" y="1006"/>
      <point x="1027" y="897" type="curve" smooth="yes"/>
      <point x="1027" y="886"/>
      <point x="1022" y="881"/>
      <point x="1011" y="881" type="curve" smooth="yes"/>
      <point x="514" y="881" type="line" smooth="yes"/>
      <point x="503" y="881"/>
      <point x="498" y="886"/>
      <point x="498" y="897" type="curve" smooth="yes"/>
      <point x="498" y="1006"/>
      <point x="497" y="1114"/>
      <point x="496" y="1223" type="curve" smooth="yes"/>
      <point x="495" y="1273"/>
      <point x="499" y="1327"/>
      <point x="494" y="1377" type="curve" smooth="yes"/>
      <point x="491" y="1410"/>
      <point x="479" y="1427"/>
      <point x="443" y="1427" type="curve" smooth="yes"/>
      <point x="166" y="1427" type="line" smooth="yes"/>
      <point x="129" y="1427"/>
      <point x="115" y="1410"/>
      <point x="115" y="1374" type="curve" smooth="yes"/>
      <point x="115" y="1303"/>
      <point x="119" y="1232"/>
      <point x="120" y="1161" type="curve" smooth="yes"/>
      <point x="123" y="1012"/>
      <point x="125" y="862"/>
      <point x="125" y="713" type="curve" smooth="yes"/>
      <point x="125" y="564"/>
      <point x="123" y="415"/>
      <point x="120" y="266" type="curve" smooth="yes"/>
      <point x="119" y="195"/>
      <point x="115" y="124"/>
      <point x="115" y="53" type="curve" smooth="yes"/>
      <point x="115" y="17"/>
      <point x="129" y="0"/>
      <point x="166" y="0" type="curve" smooth="yes"/>
      <point x="442" y="0" type="line" smooth="yes"/>
      <point x="478" y="0"/>
      <point x="491" y="17"/>
      <point x="494" y="51" type="curve" smooth="yes"/>
      <point x="498" y="107"/>
      <point x="495" y="167"/>
      <point x="495" y="223" type="curve" smooth="yes"/>
      <point x="496" y="327"/>
      <point x="498" y="431"/>
      <point x="498" y="534" type="curve" smooth="yes"/>
      <point x="498" y="545"/>
      <point x="503" y="550"/>
      <point x="514" y="550" type="curve" smooth="yes"/>
      <point x="1011" y="550" type="line" smooth="yes"/>
      <point x="1022" y="550"/>
      <point x="1027" y="545"/>
      <point x="1027" y="534" type="curve" smooth="yes"/>
      <point x="1027" y="431"/>
      <point x="1029" y="327"/>
      <point x="1030" y="224" type="curve" smooth="yes"/>
      <point x="1030" y="167"/>
      <point x="1027" y="107"/>
      <point x="1031" y="51" type="curve" smooth="yes"/>
      <point x="1034" y="17"/>
      <point x="1047" y="0"/>
      <point x="1083" y="0" type="curve" smooth="yes"/>
      <point x="1360" y="0" type="line" smooth="yes"/>
      <point x="1397" y="0"/>
      <point x="1411" y="17"/>
      <point x="1411" y="53" type="curve" smooth="yes"/>
      <point x="1411" y="124"/>
      <point x="1407" y="195"/>
      <point x="1406" y="266" type="curve" smooth="yes"/>
      <point x="1403" y="415"/>
      <point x="1401" y="564"/>
      <point x="1401" y="713" type="curve" smooth="yes"/>
      <point x="1401" y="862"/>
      <point x="1403" y="1012"/>
      <point x="1406" y="1161" type="curve" smooth="yes"/>
      <point x="1407" y="1232"/>
      <point x="1411" y="1303"/>
      <point x="1411" y="1374" type="curve" smooth="yes"/>
      <point x="1411" y="1410"/>
      <point x="1397" y="1427"/>
    </contour>
  </outline>
</glyph>
<glyph name="I" format="2">
  <advance width="610"/>
  <unicode hex="0049"/>
  <anchor x="307" y="0" name="bottom"/>
  <anchor x="417" y="20" name="ogonek"/>
  <anchor x="307" y="1475" name="top"/>
  <anchor x="-77" y="1427" name="topleft"/>
  <outline>
    <contour>
      <point x="116" y="1375" type="curve" smooth="yes"/>
      <point x="116" y="1155"/>
      <point x="119" y="934"/>
      <point x="119" y="714" type="curve" smooth="yes"/>
      <point x="119" y="493"/>
      <point x="116" y="272"/>
      <point x="116" y="52" type="curve" smooth="yes"/>
      <point x="116" y="17"/>
      <point x="131" y="0"/>
      <point x="167" y="0" type="curve" smooth="yes"/>
      <point x="443" y="0" type="line" smooth="yes"/>
      <point x="479" y="0"/>
      <point x="494" y="17"/>
      <point x="494" y="52" type="curve" smooth="yes"/>
      <point x="494" y="272"/>
      <point x="491" y="493"/>
      <point x="491" y="714" type="curve" smooth="yes"/>
      <point x="491" y="934"/>
      <point x="494" y="1155"/>
      <point x="494" y="1375" type="curve" smooth="yes"/>
      <point x="494" y="1410"/>
      <point x="479" y="1427"/>
      <point x="443" y="1427" type="curve" smooth="yes"/>
      <point x="167" y="1427" type="line" smooth="yes"/>
      <point x="131" y="1427"/>
      <point x="116" y="1410"/>
    </contour>
  </outline>
</glyph>
<glyph name="J" format="2">
  <advance width="690"/>
  <unicode hex="004A"/>
  <anchor x="255" y="0" name="bottom"/>
  <anchor x="445" y="1475" name="top"/>
  <outline>
    <contour>
      <point x="606" y="742" type="curve" smooth="yes"/>
      <point x="606" y="953"/>
      <point x="610" y="1164"/>
      <point x="610" y="1375" type="curve" smooth="yes"/>
      <point x="610" y="1410"/>
      <point x="595" y="1427"/>
      <point x="559" y="1427" type="curve" smooth="yes"/>
      <point x="278" y="1427" type="line" smooth="yes"/>
      <point x="244" y="1427"/>
      <point x="227" y="1410"/>
      <point x="227" y="1376" type="curve" smooth="yes"/>
      <point x="227" y="1122"/>
      <point x="229" y="868"/>
      <point x="229" y="614" type="curve" smooth="yes"/>
      <point x="229" y="336" type="line" smooth="yes"/>
      <point x="229" y="234"/>
      <point x="210" y="117"/>
      <point x="110" y="65" type="curve" smooth="yes"/>
      <point x="86" y="52"/>
      <point x="62" y="47"/>
      <point x="36" y="40" type="curve"/>
      <point x="2" y="32"/>
      <point x="-9" y="23"/>
      <point x="-12" y="-13" type="curve"/>
      <point x="-15" y="-40"/>
      <point x="-13" y="-70"/>
      <point x="-13" y="-98" type="curve" smooth="yes"/>
      <point x="-14" y="-147"/>
      <point x="-17" y="-197"/>
      <point x="-17" y="-246" type="curve" smooth="yes"/>
      <point x="-17" y="-277"/>
      <point x="-5" y="-297"/>
      <point x="29" y="-297" type="curve" smooth="yes"/>
      <point x="36" y="-297" type="line"/>
      <point x="394" y="-261"/>
      <point x="608" y="-46"/>
      <point x="608" y="320" type="curve" smooth="yes"/>
      <point x="608" y="461"/>
      <point x="606" y="601"/>
    </contour>
  </outline>
</glyph>
<glyph name="K" format="2">
  <advance width="1346"/>
  <unicode hex="004B"/>
  <anchor x="575" y="0" name="bottom"/>
  <anchor x="711" y="1426" name="top"/>
  <outline>
    <contour>
      <point x="449" y="1427" type="curve" smooth="yes"/>
      <point x="167" y="1427" type="line" smooth="yes"/>
      <point x="130" y="1427"/>
      <point x="115" y="1410"/>
      <point x="115" y="1374" type="curve" smooth="yes"/>
      <point x="115" y="1303"/>
      <point x="119" y="1232"/>
      <point x="120" y="1161" type="curve" smooth="yes"/>
      <point x="123" y="1012"/>
      <point x="124" y="863"/>
      <point x="124" y="714" type="curve" smooth="yes"/>
      <point x="124" y="564"/>
      <point x="123" y="415"/>
      <point x="120" y="266" type="curve" smooth="yes"/>
      <point x="119" y="195"/>
      <point x="115" y="124"/>
      <point x="115" y="53" type="curve" smooth="yes"/>
      <point x="115" y="17"/>
      <point x="130" y="0"/>
      <point x="167" y="0" type="curve" smooth="yes"/>
      <point x="449" y="0" type="line" smooth="yes"/>
      <point x="483" y="0"/>
      <point x="500" y="17"/>
      <point x="500" y="51" type="curve" smooth="yes"/>
      <point x="503" y="485" type="line" smooth="yes"/>
      <point x="503" y="488"/>
      <point x="502" y="514"/>
      <point x="512" y="514" type="curve" smooth="yes"/>
      <point x="520" y="514"/>
      <point x="530" y="499"/>
      <point x="533" y="494" type="curve"/>
      <point x="613" y="384"/>
      <point x="689" y="271"/>
      <point x="768" y="160" type="curve" smooth="yes"/>
      <point x="800" y="115"/>
      <point x="830" y="66"/>
      <point x="865" y="24" type="curve" smooth="yes"/>
      <point x="877" y="10"/>
      <point x="887" y="3"/>
      <point x="906" y="3" type="curve" smooth="yes"/>
      <point x="1220" y="3" type="line" smooth="yes"/>
      <point x="1241" y="3"/>
      <point x="1283" y="5"/>
      <point x="1283" y="36" type="curve" smooth="yes"/>
      <point x="1283" y="53"/>
      <point x="1271" y="70"/>
      <point x="1262" y="84" type="curve" smooth="yes"/>
      <point x="1218" y="150"/>
      <point x="832" y="700"/>
      <point x="832" y="718" type="curve" smooth="yes"/>
      <point x="832" y="724"/>
      <point x="837" y="727"/>
      <point x="841" y="730" type="curve" smooth="yes"/>
      <point x="1059" y="887"/>
      <point x="1202" y="1105"/>
      <point x="1260" y="1367" type="curve"/>
      <point x="1261" y="1373"/>
      <point x="1262" y="1379"/>
      <point x="1262" y="1384" type="curve" smooth="yes"/>
      <point x="1262" y="1416"/>
      <point x="1239" y="1426"/>
      <point x="1211" y="1426" type="curve" smooth="yes"/>
      <point x="942" y="1426" type="line" smooth="yes"/>
      <point x="910" y="1426"/>
      <point x="897" y="1411"/>
      <point x="890" y="1382" type="curve" smooth="yes"/>
      <point x="882" y="1347"/>
      <point x="875" y="1313"/>
      <point x="864" y="1279" type="curve" smooth="yes"/>
      <point x="807" y="1100"/>
      <point x="696" y="958"/>
      <point x="525" y="877" type="curve"/>
      <point x="522" y="875"/>
      <point x="518" y="874"/>
      <point x="515" y="874" type="curve" smooth="yes"/>
      <point x="505" y="874"/>
      <point x="503" y="885"/>
      <point x="503" y="892" type="curve" smooth="yes"/>
      <point x="503" y="1001"/>
      <point x="503" y="1111"/>
      <point x="502" y="1220" type="curve" smooth="yes"/>
      <point x="502" y="1271"/>
      <point x="505" y="1325"/>
      <point x="501" y="1376" type="curve" smooth="yes"/>
      <point x="498" y="1410"/>
      <point x="485" y="1427"/>
    </contour>
  </outline>
</glyph>
<glyph name="L" format="2">
  <advance width="1120"/>
  <unicode hex="004C"/>
  <anchor x="568" y="0" name="bottom"/>
  <anchor x="568" y="714" name="center"/>
  <anchor x="297" y="1475" name="top"/>
  <anchor x="1048" y="1427" name="topright"/>
  <outline>
    <contour>
      <point x="114" y="1375" type="curve" smooth="yes"/>
      <point x="114" y="1304"/>
      <point x="117" y="1233"/>
      <point x="118" y="1162" type="curve" smooth="yes"/>
      <point x="120" y="1012"/>
      <point x="122" y="863"/>
      <point x="122" y="714" type="curve" smooth="yes"/>
      <point x="122" y="564"/>
      <point x="120" y="415"/>
      <point x="118" y="265" type="curve" smooth="yes"/>
      <point x="117" y="194"/>
      <point x="114" y="123"/>
      <point x="114" y="52" type="curve" smooth="yes"/>
      <point x="114" y="17"/>
      <point x="129" y="0"/>
      <point x="165" y="0" type="curve" smooth="yes"/>
      <point x="1001" y="0" type="line" smooth="yes"/>
      <point x="1038" y="0"/>
      <point x="1053" y="17"/>
      <point x="1053" y="53" type="curve" smooth="yes"/>
      <point x="1053" y="99"/>
      <point x="1051" y="146"/>
      <point x="1050" y="192" type="curve" smooth="yes"/>
      <point x="1049" y="221"/>
      <point x="1052" y="252"/>
      <point x="1049" y="280" type="curve" smooth="yes"/>
      <point x="1046" y="314"/>
      <point x="1034" y="331"/>
      <point x="997" y="331" type="curve" smooth="yes"/>
      <point x="510" y="331" type="line" smooth="yes"/>
      <point x="499" y="331"/>
      <point x="494" y="336"/>
      <point x="494" y="347" type="curve" smooth="yes"/>
      <point x="494" y="648" type="line" smooth="yes"/>
      <point x="494" y="891"/>
      <point x="493" y="1133"/>
      <point x="493" y="1376" type="curve" smooth="yes"/>
      <point x="493" y="1410"/>
      <point x="476" y="1427"/>
      <point x="442" y="1427" type="curve" smooth="yes"/>
      <point x="165" y="1427" type="line" smooth="yes"/>
      <point x="129" y="1427"/>
      <point x="114" y="1410"/>
    </contour>
  </outline>
</glyph>
<glyph name="M" format="2">
  <advance width="1677"/>
  <unicode hex="004D"/>
  <anchor x="839" y="0" name="bottom"/>
  <anchor x="839" y="1427" name="top"/>
  <outline>
    <contour>
      <point x="166" y="0" type="curve" smooth="yes"/>
      <point x="430" y="0" type="line" smooth="yes"/>
      <point x="468" y="0"/>
      <point x="477" y="16"/>
      <point x="481" y="50" type="curve" smooth="yes"/>
      <point x="485" y="79"/>
      <point x="482" y="113"/>
      <point x="482" y="142" type="curve" smooth="yes"/>
      <point x="483" y="226"/>
      <point x="482" y="310"/>
      <point x="485" y="394" type="curve"/>
      <point x="485" y="397"/>
      <point x="484" y="424"/>
      <point x="494" y="424" type="curve" smooth="yes"/>
      <point x="502" y="424"/>
      <point x="512" y="408"/>
      <point x="515" y="403" type="curve"/>
      <point x="623" y="242"/>
      <point x="726" y="76"/>
      <point x="832" y="-86" type="curve"/>
      <point x="835" y="-88" type="line"/>
      <point x="839" y="-86" type="line"/>
      <point x="943" y="91"/>
      <point x="1042" y="272"/>
      <point x="1147" y="448" type="curve"/>
      <point x="1150" y="452"/>
      <point x="1161" y="472"/>
      <point x="1169" y="472" type="curve" smooth="yes"/>
      <point x="1178" y="472"/>
      <point x="1178" y="443"/>
      <point x="1178" y="440" type="curve"/>
      <point x="1181" y="349"/>
      <point x="1179" y="256"/>
      <point x="1180" y="165" type="curve" smooth="yes"/>
      <point x="1180" y="128"/>
      <point x="1177" y="86"/>
      <point x="1182" y="50" type="curve" smooth="yes"/>
      <point x="1186" y="16"/>
      <point x="1195" y="0"/>
      <point x="1233" y="0" type="curve" smooth="yes"/>
      <point x="1511" y="0" type="line" smooth="yes"/>
      <point x="1548" y="0"/>
      <point x="1562" y="17"/>
      <point x="1562" y="53" type="curve" smooth="yes"/>
      <point x="1562" y="127"/>
      <point x="1558" y="200"/>
      <point x="1556" y="274" type="curve" smooth="yes"/>
      <point x="1553" y="422"/>
      <point x="1551" y="569"/>
      <point x="1551" y="717" type="curve" smooth="yes"/>
      <point x="1551" y="968"/>
      <point x="1555" y="1219"/>
      <point x="1565" y="1470" type="curve"/>
      <point x="1563" y="1472" type="line"/>
      <point x="1559" y="1470" type="line"/>
      <point x="1392" y="1250"/>
      <point x="1230" y="1026"/>
      <point x="1070" y="801" type="curve" smooth="yes"/>
      <point x="994" y="694"/>
      <point x="919" y="585"/>
      <point x="841" y="479" type="curve" smooth="yes"/>
      <point x="838" y="475"/>
      <point x="833" y="470"/>
      <point x="827" y="470" type="curve" smooth="yes"/>
      <point x="821" y="470"/>
      <point x="817" y="475"/>
      <point x="814" y="479" type="curve" smooth="yes"/>
      <point x="610" y="763"/>
      <point x="420" y="1059"/>
      <point x="209" y="1339" type="curve"/>
      <point x="197" y="1354"/>
      <point x="166" y="1399"/>
      <point x="143" y="1399" type="curve" smooth="yes"/>
      <point x="116" y="1399"/>
      <point x="117" y="1336"/>
      <point x="117" y="1322" type="curve" smooth="yes"/>
      <point x="117" y="1307" type="line"/>
      <point x="123" y="1110"/>
      <point x="126" y="914"/>
      <point x="126" y="717" type="curve" smooth="yes"/>
      <point x="126" y="569"/>
      <point x="124" y="422"/>
      <point x="121" y="274" type="curve" smooth="yes"/>
      <point x="119" y="200"/>
      <point x="115" y="127"/>
      <point x="115" y="53" type="curve" smooth="yes"/>
      <point x="115" y="17"/>
      <point x="129" y="0"/>
    </contour>
  </outline>
</glyph>
<glyph name="N" format="2">
  <advance width="1524"/>
  <unicode hex="004E"/>
  <anchor x="763" y="0" name="bottom"/>
  <anchor x="710" y="1427" name="top"/>
  <outline>
    <contour>
      <point x="1407" y="-44" type="curve" smooth="yes"/>
      <point x="1410" y="-44"/>
      <point x="1412" y="-42"/>
      <point x="1412" y="-39" type="curve" smooth="yes"/>
      <point x="1412" y="42"/>
      <point x="1407" y="123"/>
      <point x="1405" y="204" type="curve" smooth="yes"/>
      <point x="1401" y="374"/>
      <point x="1399" y="544"/>
      <point x="1399" y="715" type="curve" smooth="yes"/>
      <point x="1399" y="864"/>
      <point x="1401" y="1012"/>
      <point x="1404" y="1161" type="curve" smooth="yes"/>
      <point x="1405" y="1232"/>
      <point x="1409" y="1303"/>
      <point x="1409" y="1374" type="curve" smooth="yes"/>
      <point x="1409" y="1410"/>
      <point x="1395" y="1427"/>
      <point x="1358" y="1427" type="curve" smooth="yes"/>
      <point x="1078" y="1427" type="line" smooth="yes"/>
      <point x="1044" y="1427"/>
      <point x="1027" y="1410"/>
      <point x="1027" y="1376" type="curve" smooth="yes"/>
      <point x="1027" y="1159"/>
      <point x="1028" y="943"/>
      <point x="1028" y="726" type="curve" smooth="yes"/>
      <point x="1028" y="721"/>
      <point x="1028" y="704"/>
      <point x="1018" y="704" type="curve" smooth="yes"/>
      <point x="1012" y="704"/>
      <point x="1006" y="710"/>
      <point x="1001" y="714" type="curve"/>
      <point x="712" y="965"/>
      <point x="429" y="1223"/>
      <point x="133" y="1465" type="curve"/>
      <point x="129" y="1468"/>
      <point x="125" y="1470"/>
      <point x="120" y="1470" type="curve" smooth="yes"/>
      <point x="115" y="1470"/>
      <point x="112" y="1468"/>
      <point x="112" y="1463" type="curve" smooth="yes"/>
      <point x="112" y="1382"/>
      <point x="117" y="1301"/>
      <point x="119" y="1220" type="curve" smooth="yes"/>
      <point x="123" y="1051"/>
      <point x="125" y="881"/>
      <point x="125" y="711" type="curve" smooth="yes"/>
      <point x="125" y="562"/>
      <point x="123" y="414"/>
      <point x="120" y="265" type="curve" smooth="yes"/>
      <point x="119" y="195"/>
      <point x="115" y="124"/>
      <point x="115" y="53" type="curve" smooth="yes"/>
      <point x="115" y="17"/>
      <point x="129" y="0"/>
      <point x="166" y="0" type="curve" smooth="yes"/>
      <point x="450" y="0" type="line" smooth="yes"/>
      <point x="484" y="0"/>
      <point x="501" y="17"/>
      <point x="501" y="51" type="curve" smooth="yes"/>
      <point x="501" y="220" type="line" smooth="yes"/>
      <point x="501" y="374"/>
      <point x="499" y="528"/>
      <point x="499" y="682" type="curve" smooth="yes"/>
      <point x="499" y="688"/>
      <point x="499" y="704"/>
      <point x="509" y="704" type="curve" smooth="yes"/>
      <point x="515" y="704"/>
      <point x="521" y="698"/>
      <point x="526" y="694" type="curve" smooth="yes"/>
      <point x="612" y="622"/>
      <point x="1388" y="-44"/>
    </contour>
  </outline>
</glyph>
<glyph name="O" format="2">
  <advance width="1538"/>
  <unicode hex="004F"/>
  <anchor x="769" y="0" name="bottom"/>
  <anchor x="769" y="714" name="center"/>
  <anchor x="1154" y="20" name="ogonek"/>
  <anchor x="769" y="1451" name="top"/>
  <anchor x="21" y="1427" name="topleft"/>
  <anchor x="894" y="1616" name="topright"/>
  <outline>
    <contour>
      <point x="73" y="712" type="curve" smooth="yes"/>
      <point x="73" y="321"/>
      <point x="365" y="-15"/>
      <point x="767" y="-15" type="curve" smooth="yes"/>
      <point x="1162" y="-15"/>
      <point x="1467" y="319"/>
      <point x="1467" y="707" type="curve" smooth="yes"/>
      <point x="1467" y="1095"/>
      <point x="1161" y="1441"/>
      <point x="764" y="1441" type="curve" smooth="yes"/>
      <point x="367" y="1441"/>
      <point x="73" y="1098"/>
    </contour>
    <contour>
      <point x="458" y="715" type="curve" smooth="yes"/>
      <point x="458" y="895"/>
      <point x="564" y="1111"/>
      <point x="769" y="1111" type="curve" smooth="yes"/>
      <point x="979" y="1111"/>
      <point x="1078" y="894"/>
      <point x="1078" y="712" type="curve" smooth="yes"/>
      <point x="1078" y="538"/>
      <point x="989" y="316"/>
      <point x="784" y="316" type="curve" smooth="yes"/>
      <point x="573" y="316"/>
      <point x="458" y="526"/>
    </contour>
  </outline>
</glyph>
<glyph name="P" format="2">
  <advance width="1335"/>
  <unicode hex="0050"/>
  <anchor x="676" y="0" name="bottom"/>
  <anchor x="676" y="1427" name="top"/>
  <outline>
    <contour>
      <point x="115" y="1374" type="curve" smooth="yes"/>
      <point x="115" y="1301"/>
      <point x="118" y="1228"/>
      <point x="119" y="1155" type="curve" smooth="yes"/>
      <point x="121" y="1009"/>
      <point x="123" y="863"/>
      <point x="123" y="717" type="curve" smooth="yes"/>
      <point x="123" y="569"/>
      <point x="122" y="422"/>
      <point x="119" y="274" type="curve" smooth="yes"/>
      <point x="118" y="200"/>
      <point x="115" y="127"/>
      <point x="115" y="53" type="curve" smooth="yes"/>
      <point x="115" y="18"/>
      <point x="130" y="0"/>
      <point x="166" y="0" type="curve" smooth="yes"/>
      <point x="442" y="0" type="line" smooth="yes"/>
      <point x="480" y="0"/>
      <point x="490" y="17"/>
      <point x="494" y="51" type="curve" smooth="yes"/>
      <point x="498" y="86"/>
      <point x="494" y="127"/>
      <point x="494" y="163" type="curve" smooth="yes"/>
      <point x="495" y="238"/>
      <point x="496" y="313"/>
      <point x="496" y="388" type="curve" smooth="yes"/>
      <point x="496" y="399"/>
      <point x="501" y="405"/>
      <point x="512" y="405" type="curve" smooth="yes"/>
      <point x="722" y="404" type="line" smooth="yes"/>
      <point x="1042" y="404"/>
      <point x="1283" y="584"/>
      <point x="1283" y="921" type="curve" smooth="yes"/>
      <point x="1283" y="1292"/>
      <point x="973" y="1427"/>
      <point x="647" y="1427" type="curve" smooth="yes"/>
      <point x="166" y="1427" type="line" smooth="yes"/>
      <point x="130" y="1427"/>
      <point x="115" y="1409"/>
    </contour>
    <contour>
      <point x="496" y="736" type="line"/>
      <point x="496" y="856"/>
      <point x="496" y="976"/>
      <point x="495" y="1096" type="curve"/>
      <point x="700" y="1096" type="line" smooth="yes"/>
      <point x="793" y="1096"/>
      <point x="871" y="1050"/>
      <point x="899" y="959" type="curve" smooth="yes"/>
      <point x="903" y="947"/>
      <point x="909" y="922"/>
      <point x="909" y="910" type="curve" smooth="yes"/>
      <point x="909" y="799"/>
      <point x="799" y="736"/>
      <point x="700" y="736" type="curve" smooth="yes"/>
    </contour>
  </outline>
</glyph>
<glyph name="Q" format="2">
  <advance width="1538"/>
  <unicode hex="0051"/>
  <anchor x="789" y="0" name="bottom"/>
  <anchor x="789" y="1427" name="top"/>
  <outline>
    <contour>
      <point x="73" y="712" type="curve" smooth="yes"/>
      <point x="73" y="320"/>
      <point x="365" y="-15"/>
      <point x="767" y="-15" type="curve" smooth="yes"/>
      <point x="812" y="-15"/>
      <point x="856" y="-10"/>
      <point x="900" y="-2" type="curve"/>
      <point x="902" y="-2"/>
      <point x="904" y="-1"/>
      <point x="905" y="-1" type="curve" smooth="yes"/>
      <point x="933" y="-1"/>
      <point x="936" y="-112"/>
      <point x="999" y="-112" type="curve" smooth="yes"/>
      <point x="1243" y="-112" type="line" smooth="yes"/>
      <point x="1263" y="-112"/>
      <point x="1306" y="-110"/>
      <point x="1306" y="-80" type="curve" smooth="yes"/>
      <point x="1306" y="-40"/>
      <point x="1182" y="98"/>
      <point x="1182" y="120" type="curve" smooth="yes"/>
      <point x="1182" y="125"/>
      <point x="1185" y="129"/>
      <point x="1189" y="132" type="curve"/>
      <point x="1216" y="155"/>
      <point x="1243" y="177"/>
      <point x="1268" y="204" type="curve" smooth="yes"/>
      <point x="1394" y="338"/>
      <point x="1465" y="521"/>
      <point x="1465" y="706" type="curve" smooth="yes"/>
      <point x="1465" y="1093"/>
      <point x="1167" y="1442"/>
      <point x="767" y="1442" type="curve" smooth="yes"/>
      <point x="370" y="1442"/>
      <point x="73" y="1099"/>
    </contour>
    <contour>
      <point x="917" y="499" type="curve"/>
      <point x="839" y="496"/>
      <point x="760" y="493"/>
      <point x="682" y="489" type="curve"/>
      <point x="709" y="431"/>
      <point x="736" y="374"/>
      <point x="763" y="316" type="curve"/>
      <point x="559" y="332"/>
      <point x="461" y="533"/>
      <point x="461" y="717" type="curve" smooth="yes"/>
      <point x="461" y="898"/>
      <point x="561" y="1111"/>
      <point x="769" y="1111" type="curve" smooth="yes"/>
      <point x="974" y="1111"/>
      <point x="1078" y="900"/>
      <point x="1078" y="720" type="curve" smooth="yes"/>
      <point x="1078" y="608"/>
      <point x="1053" y="496"/>
      <point x="979" y="409" type="curve"/>
      <point x="958" y="439"/>
      <point x="938" y="469"/>
    </contour>
  </outline>
</glyph>
<glyph name="R" format="2">
  <advance width="1305"/>
  <unicode hex="0052"/>
  <anchor x="708" y="0" name="bottom"/>
  <anchor x="599" y="1475" name="top"/>
  <outline>
    <contour>
      <point x="592" y="1427" type="curve" smooth="yes"/>
      <point x="166" y="1427" type="line" smooth="yes"/>
      <point x="130" y="1427"/>
      <point x="115" y="1409"/>
      <point x="115" y="1374" type="curve" smooth="yes"/>
      <point x="115" y="1303"/>
      <point x="118" y="1233"/>
      <point x="119" y="1162" type="curve" smooth="yes"/>
      <point x="121" y="1014"/>
      <point x="123" y="865"/>
      <point x="123" y="717" type="curve" smooth="yes"/>
      <point x="123" y="567"/>
      <point x="122" y="417"/>
      <point x="119" y="267" type="curve" smooth="yes"/>
      <point x="118" y="196"/>
      <point x="115" y="124"/>
      <point x="115" y="53" type="curve" smooth="yes"/>
      <point x="115" y="18"/>
      <point x="130" y="0"/>
      <point x="166" y="0" type="curve" smooth="yes"/>
      <point x="442" y="0" type="line" smooth="yes"/>
      <point x="478" y="0"/>
      <point x="491" y="17"/>
      <point x="493" y="51" type="curve" smooth="yes"/>
      <point x="496" y="90"/>
      <point x="494" y="131"/>
      <point x="494" y="170" type="curve" smooth="yes"/>
      <point x="494" y="244"/>
      <point x="495" y="316"/>
      <point x="495" y="390" type="curve" smooth="yes"/>
      <point x="495" y="401"/>
      <point x="501" y="407"/>
      <point x="512" y="407" type="curve" smooth="yes"/>
      <point x="565" y="407" type="line" smooth="yes"/>
      <point x="571" y="407"/>
      <point x="576" y="404"/>
      <point x="579" y="399" type="curve"/>
      <point x="640" y="310"/>
      <point x="694" y="214"/>
      <point x="752" y="123" type="curve" smooth="yes"/>
      <point x="773" y="90"/>
      <point x="793" y="55"/>
      <point x="816" y="24" type="curve" smooth="yes"/>
      <point x="828" y="8"/>
      <point x="838" y="0"/>
      <point x="859" y="0" type="curve" smooth="yes"/>
      <point x="1170" y="0" type="line" smooth="yes"/>
      <point x="1191" y="0"/>
      <point x="1235" y="2"/>
      <point x="1235" y="32" type="curve" smooth="yes"/>
      <point x="1235" y="50"/>
      <point x="1221" y="69"/>
      <point x="1211" y="83" type="curve" smooth="yes"/>
      <point x="1181" y="124"/>
      <point x="935" y="440"/>
      <point x="935" y="454" type="curve" smooth="yes"/>
      <point x="935" y="461"/>
      <point x="941" y="464"/>
      <point x="946" y="467" type="curve" smooth="yes"/>
      <point x="1116" y="568"/>
      <point x="1184" y="734"/>
      <point x="1184" y="927" type="curve" smooth="yes"/>
      <point x="1184" y="1298"/>
      <point x="927" y="1427"/>
    </contour>
    <contour>
      <point x="639" y="736" type="curve" smooth="yes"/>
      <point x="496" y="736" type="line"/>
      <point x="496" y="856"/>
      <point x="496" y="976"/>
      <point x="495" y="1096" type="curve"/>
      <point x="640" y="1096" type="line" smooth="yes"/>
      <point x="743" y="1096"/>
      <point x="796" y="1003"/>
      <point x="796" y="909" type="curve" smooth="yes"/>
      <point x="796" y="814"/>
      <point x="739" y="736"/>
    </contour>
  </outline>
</glyph>
<glyph name="S" format="2">
  <advance width="848"/>
  <unicode hex="0053"/>
  <anchor x="398" y="-23" name="bottom"/>
  <anchor x="398" y="1418" name="top"/>
  <outline>
    <contour>
      <point x="742" y="1353" type="curve" smooth="yes"/>
      <point x="742" y="1421"/>
      <point x="546" y="1435"/>
      <point x="496" y="1435" type="curve" smooth="yes"/>
      <point x="214" y="1435"/>
      <point x="78" y="1282"/>
      <point x="78" y="1005" type="curve" smooth="yes"/>
      <point x="78" y="614"/>
      <point x="386" y="691"/>
      <point x="386" y="416" type="curve" smooth="yes"/>
      <point x="386" y="340"/>
      <point x="354" y="289"/>
      <point x="273" y="289" type="curve" smooth="yes"/>
      <point x="226" y="289"/>
      <point x="179" y="316"/>
      <point x="145" y="316" type="curve" smooth="yes"/>
      <point x="116" y="316"/>
      <point x="108" y="294"/>
      <point x="102" y="270" type="curve"/>
      <point x="95" y="238"/>
      <point x="65" y="91"/>
      <point x="65" y="66" type="curve" smooth="yes"/>
      <point x="65" y="42"/>
      <point x="78" y="30"/>
      <point x="100" y="22" type="curve" smooth="yes"/>
      <point x="176" y="-6"/>
      <point x="275" y="-15"/>
      <point x="356" y="-15" type="curve" smooth="yes"/>
      <point x="641" y="-15"/>
      <point x="790" y="122"/>
      <point x="790" y="410" type="curve" smooth="yes"/>
      <point x="790" y="794"/>
      <point x="481" y="770"/>
      <point x="481" y="1031" type="curve" smooth="yes"/>
      <point x="481" y="1087"/>
      <point x="504" y="1129"/>
      <point x="565" y="1129" type="curve" smooth="yes"/>
      <point x="599" y="1129"/>
      <point x="629" y="1107"/>
      <point x="660" y="1107" type="curve" smooth="yes"/>
      <point x="686" y="1107"/>
      <point x="692" y="1127"/>
      <point x="698" y="1148" type="curve" smooth="yes"/>
      <point x="705" y="1172"/>
      <point x="742" y="1337"/>
    </contour>
  </outline>
</glyph>
<glyph name="T" format="2">
  <advance width="1081"/>
  <unicode hex="0054"/>
  <anchor x="541" y="0" name="bottom"/>
  <anchor x="541" y="714" name="center"/>
  <anchor x="541" y="1427" name="top"/>
  <outline>
    <contour>
      <point x="55" y="1374" type="curve" smooth="yes"/>
      <point x="55" y="1327"/>
      <point x="58" y="1280"/>
      <point x="58" y="1232" type="curve"/>
      <point x="59" y="1204"/>
      <point x="57" y="1175"/>
      <point x="59" y="1147" type="curve" smooth="yes"/>
      <point x="61" y="1113"/>
      <point x="76" y="1096"/>
      <point x="111" y="1096" type="curve" smooth="yes"/>
      <point x="328" y="1096" type="line" smooth="yes"/>
      <point x="339" y="1096"/>
      <point x="345" y="1091"/>
      <point x="345" y="1080" type="curve" smooth="yes"/>
      <point x="345" y="959"/>
      <point x="346" y="837"/>
      <point x="346" y="716" type="curve" smooth="yes"/>
      <point x="346" y="495"/>
      <point x="343" y="273"/>
      <point x="343" y="52" type="curve" smooth="yes"/>
      <point x="343" y="17"/>
      <point x="358" y="0"/>
      <point x="394" y="0" type="curve" smooth="yes"/>
      <point x="670" y="0" type="line" smooth="yes"/>
      <point x="705" y="0"/>
      <point x="722" y="17"/>
      <point x="722" y="52" type="curve" smooth="yes"/>
      <point x="722" y="273"/>
      <point x="719" y="494"/>
      <point x="719" y="716" type="curve" smooth="yes"/>
      <point x="719" y="837"/>
      <point x="720" y="959"/>
      <point x="720" y="1080" type="curve" smooth="yes"/>
      <point x="720" y="1091"/>
      <point x="725" y="1096"/>
      <point x="736" y="1096" type="curve" smooth="yes"/>
      <point x="971" y="1096" type="line" smooth="yes"/>
      <point x="1006" y="1096"/>
      <point x="1021" y="1113"/>
      <point x="1023" y="1147" type="curve" smooth="yes"/>
      <point x="1025" y="1175"/>
      <point x="1023" y="1204"/>
      <point x="1024" y="1232" type="curve"/>
      <point x="1024" y="1280"/>
      <point x="1027" y="1327"/>
      <point x="1027" y="1374" type="curve" smooth="yes"/>
      <point x="1027" y="1410"/>
      <point x="1012" y="1427"/>
      <point x="975" y="1427" type="curve" smooth="yes"/>
      <point x="107" y="1427" type="line" smooth="yes"/>
      <point x="70" y="1427"/>
      <point x="55" y="1410"/>
    </contour>
  </outline>
</glyph>
<glyph name="U" format="2">
  <advance width="1391"/>
  <unicode hex="0055"/>
  <anchor x="696" y="0" name="bottom"/>
  <anchor x="1036" y="20" name="ogonek"/>
  <anchor x="696" y="1475" name="top"/>
  <anchor x="1241" y="1445" name="topright"/>
  <outline>
    <contour>
      <point x="480" y="696" type="curve" smooth="yes"/>
      <point x="480" y="852"/>
      <point x="479" y="1009"/>
      <point x="478" y="1165" type="curve"/>
      <point x="478" y="1306" type="line"/>
      <point x="477" y="1328"/>
      <point x="480" y="1354"/>
      <point x="477" y="1376" type="curve" smooth="yes"/>
      <point x="473" y="1410"/>
      <point x="463" y="1427"/>
      <point x="425" y="1427" type="curve" smooth="yes"/>
      <point x="148" y="1427" type="line" smooth="yes"/>
      <point x="111" y="1427"/>
      <point x="97" y="1410"/>
      <point x="97" y="1374" type="curve" smooth="yes"/>
      <point x="97" y="1303"/>
      <point x="100" y="1231"/>
      <point x="102" y="1159" type="curve" smooth="yes"/>
      <point x="104" y="1016"/>
      <point x="106" y="873"/>
      <point x="106" y="729" type="curve" smooth="yes"/>
      <point x="106" y="665"/>
      <point x="105" y="601"/>
      <point x="105" y="537" type="curve" smooth="yes"/>
      <point x="105" y="179"/>
      <point x="350" y="-15"/>
      <point x="694" y="-15" type="curve" smooth="yes"/>
      <point x="1016" y="-15"/>
      <point x="1283" y="205"/>
      <point x="1286" y="537" type="curve" smooth="yes"/>
      <point x="1287" y="594"/>
      <point x="1285" y="651"/>
      <point x="1285" y="708" type="curve" smooth="yes"/>
      <point x="1285" y="859"/>
      <point x="1287" y="1010"/>
      <point x="1289" y="1160" type="curve" smooth="yes"/>
      <point x="1291" y="1231"/>
      <point x="1294" y="1303"/>
      <point x="1294" y="1374" type="curve" smooth="yes"/>
      <point x="1294" y="1410"/>
      <point x="1280" y="1427"/>
      <point x="1243" y="1427" type="curve" smooth="yes"/>
      <point x="972" y="1427" type="line" smooth="yes"/>
      <point x="934" y="1427"/>
      <point x="924" y="1410"/>
      <point x="920" y="1376" type="curve" smooth="yes"/>
      <point x="917" y="1354"/>
      <point x="920" y="1328"/>
      <point x="919" y="1306" type="curve"/>
      <point x="919" y="1165" type="line"/>
      <point x="918" y="1009"/>
      <point x="917" y="852"/>
      <point x="917" y="696" type="curve" smooth="yes"/>
      <point x="917" y="543" type="line" smooth="yes"/>
      <point x="917" y="395"/>
      <point x="836" y="318"/>
      <point x="690" y="318" type="curve" smooth="yes"/>
      <point x="551" y="318"/>
      <point x="482" y="412"/>
      <point x="480" y="543" type="curve" smooth="yes"/>
      <point x="479" y="594"/>
      <point x="480" y="645"/>
    </contour>
  </outline>
</glyph>
<glyph name="V" format="2">
  <advance width="1337"/>
  <unicode hex="0056"/>
  <anchor x="668" y="0" name="bottom"/>
  <anchor x="668" y="1427" name="top"/>
  <outline>
    <contour>
      <point x="430" y="1427" type="curve" smooth="yes"/>
      <point x="118" y="1427" type="line" smooth="yes"/>
      <point x="94" y="1427"/>
      <point x="61" y="1422"/>
      <point x="61" y="1391" type="curve" smooth="yes"/>
      <point x="61" y="1378"/>
      <point x="66" y="1366"/>
      <point x="71" y="1355" type="curve" smooth="yes"/>
      <point x="180" y="1103"/>
      <point x="289" y="851"/>
      <point x="394" y="597" type="curve" smooth="yes"/>
      <point x="551" y="216" type="line" smooth="yes"/>
      <point x="574" y="160"/>
      <point x="596" y="102"/>
      <point x="621" y="47" type="curve" smooth="yes"/>
      <point x="628" y="32"/>
      <point x="645" y="-10"/>
      <point x="668" y="-10" type="curve" smooth="yes"/>
      <point x="691" y="-10"/>
      <point x="708" y="32"/>
      <point x="715" y="47" type="curve" smooth="yes"/>
      <point x="740" y="102"/>
      <point x="762" y="160"/>
      <point x="785" y="216" type="curve" smooth="yes"/>
      <point x="943" y="597" type="line" smooth="yes"/>
      <point x="1048" y="851"/>
      <point x="1157" y="1103"/>
      <point x="1266" y="1355" type="curve" smooth="yes"/>
      <point x="1271" y="1366"/>
      <point x="1276" y="1378"/>
      <point x="1276" y="1391" type="curve" smooth="yes"/>
      <point x="1276" y="1422"/>
      <point x="1243" y="1427"/>
      <point x="1219" y="1427" type="curve" smooth="yes"/>
      <point x="940" y="1427" type="line" smooth="yes"/>
      <point x="914" y="1427"/>
      <point x="904" y="1416"/>
      <point x="893" y="1394" type="curve" smooth="yes"/>
      <point x="871" y="1347"/>
      <point x="853" y="1287"/>
      <point x="835" y="1238" type="curve" smooth="yes"/>
      <point x="790" y="1115"/>
      <point x="749" y="991"/>
      <point x="702" y="869" type="curve" smooth="yes"/>
      <point x="700" y="864"/>
      <point x="694" y="847"/>
      <point x="686" y="847" type="curve" smooth="yes"/>
      <point x="678" y="847"/>
      <point x="673" y="864"/>
      <point x="671" y="869" type="curve" smooth="yes"/>
      <point x="623" y="991"/>
      <point x="581" y="1115"/>
      <point x="536" y="1238" type="curve" smooth="yes"/>
      <point x="518" y="1287"/>
      <point x="500" y="1347"/>
      <point x="478" y="1394" type="curve" smooth="yes"/>
      <point x="467" y="1416"/>
      <point x="456" y="1427"/>
    </contour>
  </outline>
</glyph>
<glyph name="W" format="2">
  <advance width="1923"/>
  <unicode hex="0057"/>
  <anchor x="963" y="0" name="bottom"/>
  <anchor x="963" y="1451" name="top"/>
  <outline>
    <contour>
      <point x="608" y="-10" type="curve" smooth="yes"/>
      <point x="631" y="-10"/>
      <point x="649" y="27"/>
      <point x="657" y="43" type="curve" smooth="yes"/>
      <point x="772" y="267"/>
      <point x="868" y="502"/>
      <point x="979" y="728" type="curve"/>
      <point x="981" y="733"/>
      <point x="987" y="745"/>
      <point x="994" y="745" type="curve" smooth="yes"/>
      <point x="1001" y="745"/>
      <point x="1007" y="733"/>
      <point x="1009" y="728" type="curve"/>
      <point x="1112" y="506"/>
      <point x="1201" y="276"/>
      <point x="1309" y="56" type="curve" smooth="yes"/>
      <point x="1317" y="40"/>
      <point x="1335" y="-2"/>
      <point x="1358" y="-2" type="curve" smooth="yes"/>
      <point x="1382" y="-2"/>
      <point x="1397" y="44"/>
      <point x="1403" y="61" type="curve" smooth="yes"/>
      <point x="1466" y="242"/>
      <point x="1524" y="426"/>
      <point x="1586" y="608" type="curve" smooth="yes"/>
      <point x="1672" y="860"/>
      <point x="1763" y="1108"/>
      <point x="1857" y="1357" type="curve" smooth="yes"/>
      <point x="1861" y="1367"/>
      <point x="1865" y="1379"/>
      <point x="1865" y="1390" type="curve" smooth="yes"/>
      <point x="1865" y="1422"/>
      <point x="1834" y="1427"/>
      <point x="1809" y="1427" type="curve" smooth="yes"/>
      <point x="1539" y="1427" type="line" smooth="yes"/>
      <point x="1512" y="1427"/>
      <point x="1502" y="1416"/>
      <point x="1491" y="1393" type="curve" smooth="yes"/>
      <point x="1472" y="1351"/>
      <point x="1455" y="1290"/>
      <point x="1440" y="1245" type="curve" smooth="yes"/>
      <point x="1399" y="1125"/>
      <point x="1362" y="1003"/>
      <point x="1319" y="883" type="curve"/>
      <point x="1317" y="878"/>
      <point x="1312" y="861"/>
      <point x="1304" y="861" type="curve" smooth="yes"/>
      <point x="1296" y="861"/>
      <point x="1290" y="877"/>
      <point x="1288" y="882" type="curve" smooth="yes"/>
      <point x="1237" y="1002"/>
      <point x="1193" y="1125"/>
      <point x="1145" y="1246" type="curve" smooth="yes"/>
      <point x="1127" y="1292"/>
      <point x="1109" y="1352"/>
      <point x="1087" y="1395" type="curve" smooth="yes"/>
      <point x="1076" y="1417"/>
      <point x="1065" y="1427"/>
      <point x="1039" y="1427" type="curve" smooth="yes"/>
      <point x="778" y="1427" type="line" smooth="yes"/>
      <point x="754" y="1427"/>
      <point x="721" y="1422"/>
      <point x="721" y="1391" type="curve" smooth="yes"/>
      <point x="721" y="1365"/>
      <point x="787" y="1230"/>
      <point x="802" y="1197" type="curve"/>
      <point x="803" y="1185" type="line"/>
      <point x="763" y="1071"/>
      <point x="726" y="955"/>
      <point x="683" y="843" type="curve" smooth="yes"/>
      <point x="681" y="838"/>
      <point x="675" y="821"/>
      <point x="667" y="821" type="curve" smooth="yes"/>
      <point x="659" y="821"/>
      <point x="654" y="838"/>
      <point x="652" y="843" type="curve"/>
      <point x="605" y="972"/>
      <point x="563" y="1104"/>
      <point x="517" y="1234" type="curve" smooth="yes"/>
      <point x="500" y="1282"/>
      <point x="480" y="1349"/>
      <point x="459" y="1393" type="curve" smooth="yes"/>
      <point x="448" y="1416"/>
      <point x="438" y="1427"/>
      <point x="411" y="1427" type="curve" smooth="yes"/>
      <point x="115" y="1427" type="line" smooth="yes"/>
      <point x="90" y="1427"/>
      <point x="60" y="1421"/>
      <point x="60" y="1390" type="curve" smooth="yes"/>
      <point x="60" y="1378"/>
      <point x="64" y="1367"/>
      <point x="68" y="1356" type="curve"/>
      <point x="164" y="1119"/>
      <point x="259" y="882"/>
      <point x="348" y="642" type="curve" smooth="yes"/>
      <point x="421" y="445"/>
      <point x="488" y="244"/>
      <point x="563" y="48" type="curve" smooth="yes"/>
      <point x="569" y="31"/>
      <point x="584" y="-10"/>
    </contour>
  </outline>
</glyph>
<glyph name="X" format="2">
  <advance width="1262"/>
  <unicode hex="0058"/>
  <anchor x="633" y="0" name="bottom"/>
  <anchor x="633" y="1427" name="top"/>
  <outline>
    <contour>
      <point x="387" y="728" type="curve" smooth="yes"/>
      <point x="387" y="711"/>
      <point x="49" y="144"/>
      <point x="11" y="78" type="curve"/>
      <point x="3" y="65"/>
      <point x="-5" y="50"/>
      <point x="-5" y="34" type="curve" smooth="yes"/>
      <point x="-5" y="3"/>
      <point x="33" y="0"/>
      <point x="55" y="0" type="curve" smooth="yes"/>
      <point x="403" y="0" type="line" smooth="yes"/>
      <point x="428" y="0"/>
      <point x="440" y="11"/>
      <point x="450" y="33" type="curve" smooth="yes"/>
      <point x="496" y="138"/>
      <point x="526" y="250"/>
      <point x="569" y="356" type="curve" smooth="yes"/>
      <point x="571" y="361"/>
      <point x="575" y="374"/>
      <point x="583" y="374" type="curve" smooth="yes"/>
      <point x="590" y="374"/>
      <point x="596" y="364"/>
      <point x="599" y="359" type="curve" smooth="yes"/>
      <point x="649" y="278"/>
      <point x="693" y="193"/>
      <point x="741" y="111" type="curve" smooth="yes"/>
      <point x="757" y="83"/>
      <point x="773" y="52"/>
      <point x="791" y="25" type="curve" smooth="yes"/>
      <point x="802" y="8"/>
      <point x="814" y="0"/>
      <point x="835" y="0" type="curve" smooth="yes"/>
      <point x="1206" y="0" type="line" smooth="yes"/>
      <point x="1228" y="0"/>
      <point x="1267" y="4"/>
      <point x="1267" y="34" type="curve" smooth="yes"/>
      <point x="1267" y="50"/>
      <point x="1258" y="65"/>
      <point x="1250" y="78" type="curve" smooth="yes"/>
      <point x="1212" y="143"/>
      <point x="877" y="703"/>
      <point x="877" y="719" type="curve" smooth="yes"/>
      <point x="877" y="735"/>
      <point x="1208" y="1285"/>
      <point x="1246" y="1349" type="curve" smooth="yes"/>
      <point x="1254" y="1362"/>
      <point x="1262" y="1377"/>
      <point x="1262" y="1393" type="curve" smooth="yes"/>
      <point x="1262" y="1423"/>
      <point x="1224" y="1427"/>
      <point x="1202" y="1427" type="curve" smooth="yes"/>
      <point x="866" y="1427" type="line" smooth="yes"/>
      <point x="841" y="1427"/>
      <point x="828" y="1417"/>
      <point x="818" y="1395" type="curve" smooth="yes"/>
      <point x="772" y="1294"/>
      <point x="740" y="1185"/>
      <point x="697" y="1083" type="curve" smooth="yes"/>
      <point x="695" y="1078"/>
      <point x="691" y="1067"/>
      <point x="683" y="1067" type="curve" smooth="yes"/>
      <point x="676" y="1067"/>
      <point x="671" y="1076"/>
      <point x="668" y="1081" type="curve" smooth="yes"/>
      <point x="620" y="1159"/>
      <point x="576" y="1240"/>
      <point x="530" y="1319" type="curve" smooth="yes"/>
      <point x="514" y="1346"/>
      <point x="499" y="1376"/>
      <point x="482" y="1402" type="curve" smooth="yes"/>
      <point x="471" y="1419"/>
      <point x="459" y="1427"/>
      <point x="438" y="1427" type="curve" smooth="yes"/>
      <point x="71" y="1427" type="line" smooth="yes"/>
      <point x="49" y="1427"/>
      <point x="11" y="1424"/>
      <point x="11" y="1393" type="curve" smooth="yes"/>
      <point x="11" y="1377"/>
      <point x="19" y="1362"/>
      <point x="27" y="1349" type="curve" smooth="yes"/>
      <point x="64" y="1286"/>
      <point x="387" y="744"/>
    </contour>
  </outline>
</glyph>
<glyph name="Y" format="2">
  <advance width="1272"/>
  <unicode hex="0059"/>
  <anchor x="635" y="0" name="bottom"/>
  <anchor x="690" y="1478" name="top"/>
  <anchor x="-17" y="1427" name="topleft"/>
  <outline>
    <contour>
      <point x="440" y="420" type="line"/>
      <point x="440" y="297"/>
      <point x="438" y="175"/>
      <point x="438" y="52" type="curve" smooth="yes"/>
      <point x="438" y="17"/>
      <point x="454" y="0"/>
      <point x="489" y="0" type="curve" smooth="yes"/>
      <point x="765" y="0" type="line" smooth="yes"/>
      <point x="800" y="0"/>
      <point x="816" y="17"/>
      <point x="816" y="52" type="curve" smooth="yes"/>
      <point x="816" y="175"/>
      <point x="814" y="297"/>
      <point x="814" y="420" type="curve"/>
      <point x="816" y="427" type="line"/>
      <point x="850" y="508"/>
      <point x="891" y="587"/>
      <point x="928" y="667" type="curve" smooth="yes"/>
      <point x="1036" y="897"/>
      <point x="1148" y="1123"/>
      <point x="1258" y="1352" type="curve" smooth="yes"/>
      <point x="1264" y="1364"/>
      <point x="1270" y="1378"/>
      <point x="1270" y="1392" type="curve" smooth="yes"/>
      <point x="1270" y="1423"/>
      <point x="1235" y="1427"/>
      <point x="1212" y="1427" type="curve" smooth="yes"/>
      <point x="862" y="1427" type="line" smooth="yes"/>
      <point x="835" y="1427"/>
      <point x="825" y="1415"/>
      <point x="814" y="1392" type="curve" smooth="yes"/>
      <point x="796" y="1352"/>
      <point x="784" y="1304"/>
      <point x="770" y="1262" type="curve" smooth="yes"/>
      <point x="731" y="1148"/>
      <point x="696" y="1032"/>
      <point x="655" y="919" type="curve"/>
      <point x="653" y="914"/>
      <point x="647" y="896"/>
      <point x="639" y="896" type="curve" smooth="yes"/>
      <point x="631" y="896"/>
      <point x="626" y="913"/>
      <point x="624" y="918" type="curve" smooth="yes"/>
      <point x="581" y="1031"/>
      <point x="544" y="1148"/>
      <point x="504" y="1262" type="curve" smooth="yes"/>
      <point x="489" y="1304"/>
      <point x="476" y="1353"/>
      <point x="457" y="1393" type="curve" smooth="yes"/>
      <point x="446" y="1416"/>
      <point x="436" y="1427"/>
      <point x="409" y="1427" type="curve" smooth="yes"/>
      <point x="58" y="1427" type="line" smooth="yes"/>
      <point x="34" y="1427"/>
      <point x="1" y="1423"/>
      <point x="1" y="1392" type="curve" smooth="yes"/>
      <point x="1" y="1379"/>
      <point x="6" y="1365"/>
      <point x="12" y="1353" type="curve"/>
      <point x="118" y="1124"/>
      <point x="227" y="897"/>
      <point x="331" y="667" type="curve" smooth="yes"/>
      <point x="367" y="587"/>
      <point x="406" y="508"/>
      <point x="439" y="427" type="curve"/>
    </contour>
  </outline>
</glyph>
<glyph name="Z" format="2">
  <advance width="1106"/>
  <unicode hex="005A"/>
  <anchor x="569" y="0" name="bottom"/>
  <anchor x="569" y="1427" name="top"/>
  <outline>
    <contour>
      <point x="1068" y="1391" type="curve" smooth="yes"/>
      <point x="1068" y="1422"/>
      <point x="1035" y="1427"/>
      <point x="1011" y="1427" type="curve" smooth="yes"/>
      <point x="123" y="1427" type="line" smooth="yes"/>
      <point x="87" y="1427"/>
      <point x="71" y="1410"/>
      <point x="71" y="1375" type="curve" smooth="yes"/>
      <point x="71" y="1300"/>
      <point x="71" y="1222"/>
      <point x="76" y="1147" type="curve" smooth="yes"/>
      <point x="78" y="1113"/>
      <point x="91" y="1096"/>
      <point x="127" y="1096" type="curve" smooth="yes"/>
      <point x="468" y="1096" type="line" smooth="yes"/>
      <point x="476" y="1096"/>
      <point x="486" y="1095"/>
      <point x="486" y="1085" type="curve" smooth="yes"/>
      <point x="486" y="1081"/>
      <point x="485" y="1077"/>
      <point x="483" y="1073" type="curve"/>
      <point x="377" y="826"/>
      <point x="282" y="575"/>
      <point x="175" y="329" type="curve" smooth="yes"/>
      <point x="138" y="243"/>
      <point x="98" y="159"/>
      <point x="58" y="75" type="curve" smooth="yes"/>
      <point x="52" y="63"/>
      <point x="46" y="49"/>
      <point x="46" y="35" type="curve" smooth="yes"/>
      <point x="46" y="4"/>
      <point x="80" y="0"/>
      <point x="104" y="0" type="curve" smooth="yes"/>
      <point x="1002" y="0" type="line" smooth="yes"/>
      <point x="1038" y="0"/>
      <point x="1054" y="17"/>
      <point x="1054" y="52" type="curve" smooth="yes"/>
      <point x="1054" y="126"/>
      <point x="1054" y="206"/>
      <point x="1049" y="280" type="curve" smooth="yes"/>
      <point x="1047" y="314"/>
      <point x="1034" y="331"/>
      <point x="998" y="331" type="curve" smooth="yes"/>
      <point x="623" y="331" type="line" smooth="yes"/>
      <point x="615" y="331"/>
      <point x="605" y="332"/>
      <point x="605" y="342" type="curve" smooth="yes"/>
      <point x="605" y="346"/>
      <point x="606" y="350"/>
      <point x="608" y="354" type="curve"/>
      <point x="712" y="592"/>
      <point x="817" y="829"/>
      <point x="924" y="1065" type="curve" smooth="yes"/>
      <point x="968" y="1162"/>
      <point x="1013" y="1257"/>
      <point x="1057" y="1354" type="curve"/>
      <point x="1062" y="1366"/>
      <point x="1068" y="1378"/>
    </contour>
    <contour>
      <point x="10" y="0" type="line"/>
      <point x="19" y="0" type="line"/>
      <point x="18" y="-2"/>
      <point x="15" y="-6" name=".hr01"/>
      <point x="12" y="-6" type="curve"/>
      <point x="10" y="-5"/>
      <point x="10" y="-3"/>
      <point x="10" y="-1" type="curve"/>
    </contour>
  </outline>
</glyph>
<glyph name="bracketleft" format="2">
  <advance width="838"/>
  <unicode hex="005B"/>
  <outline>
    <contour>
      <point x="111" y="1561" type="curve" smooth="yes"/>
      <point x="111" y="1471"/>
      <point x="114" y="1380"/>
      <point x="115" y="1290" type="curve" smooth="yes"/>
      <point x="117" y="1100"/>
      <point x="119" y="911"/>
      <point x="119" y="721" type="curve" smooth="yes"/>
      <point x="119" y="497"/>
      <point x="117" y="272"/>
      <point x="114" y="48" type="curve" smooth="yes"/>
      <point x="112" y="-58"/>
      <point x="108" y="-165"/>
      <point x="108" y="-272" type="curve" smooth="yes"/>
      <point x="108" y="-307"/>
      <point x="123" y="-324"/>
      <point x="159" y="-324" type="curve" smooth="yes"/>
      <point x="738" y="-324" type="line" smooth="yes"/>
      <point x="775" y="-324"/>
      <point x="790" y="-307"/>
      <point x="790" y="-271" type="curve" smooth="yes"/>
      <point x="790" y="-222"/>
      <point x="788" y="-174"/>
      <point x="787" y="-125" type="curve" smooth="yes"/>
      <point x="786" y="-95"/>
      <point x="788" y="-63"/>
      <point x="785" y="-33" type="curve" smooth="yes"/>
      <point x="782" y="0"/>
      <point x="770" y="17"/>
      <point x="734" y="17" type="curve" smooth="yes"/>
      <point x="483" y="17" type="line" smooth="yes"/>
      <point x="472" y="17"/>
      <point x="467" y="22"/>
      <point x="467" y="33" type="curve" smooth="yes"/>
      <point x="467" y="236"/>
      <point x="466" y="440"/>
      <point x="466" y="643" type="curve" smooth="yes"/>
      <point x="466" y="847"/>
      <point x="467" y="1050"/>
      <point x="467" y="1253" type="curve" smooth="yes"/>
      <point x="467" y="1264"/>
      <point x="472" y="1270"/>
      <point x="483" y="1270" type="curve" smooth="yes"/>
      <point x="731" y="1270" type="line" smooth="yes"/>
      <point x="767" y="1270"/>
      <point x="779" y="1287"/>
      <point x="782" y="1320" type="curve" smooth="yes"/>
      <point x="785" y="1350"/>
      <point x="783" y="1382"/>
      <point x="784" y="1413" type="curve" smooth="yes"/>
      <point x="785" y="1462"/>
      <point x="787" y="1511"/>
      <point x="787" y="1560" type="curve" smooth="yes"/>
      <point x="787" y="1596"/>
      <point x="772" y="1613"/>
      <point x="735" y="1613" type="curve" smooth="yes"/>
      <point x="162" y="1613" type="line" smooth="yes"/>
      <point x="126" y="1613"/>
      <point x="111" y="1596"/>
    </contour>
  </outline>
</glyph>
<glyph name="backslash" format="2">
  <advance width="678"/>
  <unicode hex="005C"/>
  <outline>
    <contour>
      <point x="183" y="1585" type="curve" smooth="yes"/>
      <point x="25" y="1585" type="line" smooth="yes"/>
      <point x="-2" y="1585"/>
      <point x="-29" y="1578"/>
      <point x="-29" y="1546" type="curve" smooth="yes"/>
      <point x="-29" y="1536"/>
      <point x="-27" y="1527"/>
      <point x="-24" y="1518" type="curve" smooth="yes"/>
      <point x="76" y="1192"/>
      <point x="172" y="865"/>
      <point x="267" y="537" type="curve" smooth="yes"/>
      <point x="300" y="422"/>
      <point x="333" y="308"/>
      <point x="367" y="193" type="curve" smooth="yes"/>
      <point x="386" y="128"/>
      <point x="402" y="60"/>
      <point x="425" y="-3" type="curve" smooth="yes"/>
      <point x="434" y="-27"/>
      <point x="447" y="-39"/>
      <point x="474" y="-39" type="curve" smooth="yes"/>
      <point x="630" y="-39" type="line" smooth="yes"/>
      <point x="657" y="-39"/>
      <point x="684" y="-32"/>
      <point x="684" y="0" type="curve" smooth="yes"/>
      <point x="684" y="10"/>
      <point x="682" y="19"/>
      <point x="679" y="28" type="curve"/>
      <point x="581" y="354"/>
      <point x="485" y="681"/>
      <point x="391" y="1009" type="curve" smooth="yes"/>
      <point x="358" y="1124"/>
      <point x="324" y="1238"/>
      <point x="291" y="1353" type="curve" smooth="yes"/>
      <point x="271" y="1418"/>
      <point x="255" y="1486"/>
      <point x="232" y="1549" type="curve" smooth="yes"/>
      <point x="223" y="1573"/>
      <point x="210" y="1585"/>
    </contour>
  </outline>
</glyph>
<glyph name="bracketright" format="2">
  <advance width="838"/>
  <unicode hex="005D"/>
  <outline>
    <contour>
      <point x="730" y="-272" type="curve" smooth="yes"/>
      <point x="730" y="-166"/>
      <point x="726" y="-59"/>
      <point x="724" y="47" type="curve" smooth="yes"/>
      <point x="721" y="270"/>
      <point x="719" y="495"/>
      <point x="719" y="718" type="curve" smooth="yes"/>
      <point x="719" y="908"/>
      <point x="721" y="1099"/>
      <point x="723" y="1289" type="curve" smooth="yes"/>
      <point x="724" y="1380"/>
      <point x="727" y="1470"/>
      <point x="727" y="1561" type="curve" smooth="yes"/>
      <point x="727" y="1596"/>
      <point x="712" y="1613"/>
      <point x="676" y="1613" type="curve" smooth="yes"/>
      <point x="103" y="1613" type="line" smooth="yes"/>
      <point x="67" y="1613"/>
      <point x="52" y="1596"/>
      <point x="52" y="1561" type="curve" smooth="yes"/>
      <point x="52" y="1512"/>
      <point x="53" y="1463"/>
      <point x="54" y="1414" type="curve" smooth="yes"/>
      <point x="55" y="1384"/>
      <point x="53" y="1352"/>
      <point x="56" y="1322" type="curve" smooth="yes"/>
      <point x="59" y="1288"/>
      <point x="70" y="1272"/>
      <point x="107" y="1272" type="curve" smooth="yes"/>
      <point x="356" y="1272" type="line" smooth="yes"/>
      <point x="367" y="1272"/>
      <point x="372" y="1266"/>
      <point x="372" y="1255" type="curve" smooth="yes"/>
      <point x="373" y="717" type="line" smooth="yes"/>
      <point x="373" y="490"/>
      <point x="372" y="263"/>
      <point x="372" y="36" type="curve" smooth="yes"/>
      <point x="372" y="25"/>
      <point x="367" y="20"/>
      <point x="356" y="20" type="curve" smooth="yes"/>
      <point x="105" y="20" type="line" smooth="yes"/>
      <point x="69" y="20"/>
      <point x="57" y="4"/>
      <point x="54" y="-30" type="curve" smooth="yes"/>
      <point x="51" y="-60"/>
      <point x="53" y="-93"/>
      <point x="52" y="-123" type="curve" smooth="yes"/>
      <point x="51" y="-172"/>
      <point x="48" y="-223"/>
      <point x="48" y="-272" type="curve" smooth="yes"/>
      <point x="48" y="-307"/>
      <point x="63" y="-324"/>
      <point x="99" y="-324" type="curve" smooth="yes"/>
      <point x="679" y="-324" type="line" smooth="yes"/>
      <point x="715" y="-324"/>
      <point x="730" y="-307"/>
    </contour>
  </outline>
</glyph>
<glyph name="asciicircum" format="2">
  <advance width="1067"/>
  <unicode hex="005E"/>
  <outline>
    <contour>
      <point x="668" y="1031" type="curve" smooth="yes"/>
      <point x="783" y="1031" type="line" smooth="yes"/>
      <point x="802" y="1031"/>
      <point x="855" y="1032"/>
      <point x="855" y="1061" type="curve" smooth="yes"/>
      <point x="855" y="1081"/>
      <point x="833" y="1104"/>
      <point x="820" y="1118" type="curve" smooth="yes"/>
      <point x="736" y="1207"/>
      <point x="653" y="1297"/>
      <point x="566" y="1383" type="curve" smooth="yes"/>
      <point x="556" y="1393"/>
      <point x="544" y="1402"/>
      <point x="529" y="1402" type="curve" smooth="yes"/>
      <point x="515" y="1402"/>
      <point x="503" y="1392"/>
      <point x="493" y="1382" type="curve" smooth="yes"/>
      <point x="407" y="1295"/>
      <point x="323" y="1206"/>
      <point x="239" y="1118" type="curve" smooth="yes"/>
      <point x="226" y="1105"/>
      <point x="204" y="1081"/>
      <point x="204" y="1061" type="curve" smooth="yes"/>
      <point x="204" y="1032"/>
      <point x="256" y="1031"/>
      <point x="276" y="1031" type="curve" smooth="yes"/>
      <point x="392" y="1031" type="line" smooth="yes"/>
      <point x="433" y="1031"/>
      <point x="502" y="1107"/>
      <point x="528" y="1107" type="curve" smooth="yes"/>
      <point x="559" y="1107"/>
      <point x="628" y="1031"/>
    </contour>
  </outline>
</glyph>
<glyph name="underscore" format="2">
  <advance width="944"/>
  <unicode hex="005F"/>
  <outline>
    <contour>
      <point x="123" y="52" type="curve" smooth="yes"/>
      <point x="123" y="17"/>
      <point x="138" y="0"/>
      <point x="174" y="0" type="curve" smooth="yes"/>
      <point x="770" y="0" type="line" smooth="yes"/>
      <point x="806" y="0"/>
      <point x="821" y="17"/>
      <point x="821" y="52" type="curve" smooth="yes"/>
      <point x="821" y="124"/>
      <point x="821" y="197"/>
      <point x="818" y="269" type="curve" smooth="yes"/>
      <point x="817" y="303"/>
      <point x="802" y="320"/>
      <point x="767" y="320" type="curve" smooth="yes"/>
      <point x="177" y="320" type="line" smooth="yes"/>
      <point x="142" y="320"/>
      <point x="127" y="303"/>
      <point x="126" y="269" type="curve" smooth="yes"/>
      <point x="123" y="197"/>
      <point x="123" y="124"/>
    </contour>
  </outline>
</glyph>
<glyph name="grave" format="2">
  <advance width="758"/>
  <unicode hex="0060"/>
  <outline>
    <contour>
      <point x="445" y="1031" type="curve" smooth="yes"/>
      <point x="575" y="1031" type="line" smooth="yes"/>
      <point x="597" y="1031"/>
      <point x="636" y="1033"/>
      <point x="636" y="1063" type="curve" smooth="yes"/>
      <point x="636" y="1080"/>
      <point x="626" y="1097"/>
      <point x="617" y="1110" type="curve" smooth="yes"/>
      <point x="496" y="1293" type="line" smooth="yes"/>
      <point x="486" y="1308"/>
      <point x="472" y="1316"/>
      <point x="454" y="1316" type="curve" smooth="yes"/>
      <point x="197" y="1316" type="line" smooth="yes"/>
      <point x="180" y="1316"/>
      <point x="109" y="1317"/>
      <point x="109" y="1288" type="curve" smooth="yes"/>
      <point x="109" y="1266"/>
      <point x="151" y="1235"/>
      <point x="167" y="1223" type="curve" smooth="yes"/>
      <point x="249" y="1163"/>
      <point x="330" y="1099"/>
      <point x="414" y="1041" type="curve" smooth="yes"/>
      <point x="423" y="1035"/>
      <point x="434" y="1031"/>
    </contour>
  </outline>
</glyph>
<glyph name="a" format="2">
  <advance width="1204"/>
  <unicode hex="0061"/>
  <anchor x="614" y="0" name="bottom"/>
  <anchor x="1319" y="22" name="ogonek"/>
  <anchor x="665" y="1030" name="top"/>
  <outline>
    <contour>
      <point x="471" y="-28" type="curve" smooth="yes"/>
      <point x="576" y="-28"/>
      <point x="665" y="5"/>
      <point x="749" y="66" type="curve"/>
      <point x="754" y="70"/>
      <point x="761" y="75"/>
      <point x="767" y="75" type="curve" smooth="yes"/>
      <point x="794" y="75"/>
      <point x="756" y="0"/>
      <point x="805" y="0" type="curve" smooth="yes"/>
      <point x="1066" y="0" type="line" smooth="yes"/>
      <point x="1102" y="0"/>
      <point x="1117" y="17"/>
      <point x="1117" y="52" type="curve" smooth="yes"/>
      <point x="1117" y="121"/>
      <point x="1114" y="190"/>
      <point x="1113" y="259" type="curve" smooth="yes"/>
      <point x="1110" y="404"/>
      <point x="1109" y="549"/>
      <point x="1109" y="694" type="curve" smooth="yes"/>
      <point x="1109" y="770"/>
      <point x="1110" y="845"/>
      <point x="1110" y="921" type="curve" smooth="yes"/>
      <point x="1110" y="956"/>
      <point x="1093" y="973"/>
      <point x="1058" y="973" type="curve" smooth="yes"/>
      <point x="819" y="973" type="line" smooth="yes"/>
      <point x="770" y="973"/>
      <point x="777" y="909"/>
      <point x="755" y="909" type="curve" smooth="yes"/>
      <point x="750" y="909"/>
      <point x="746" y="912"/>
      <point x="742" y="915" type="curve" smooth="yes"/>
      <point x="664" y="971"/>
      <point x="581" y="999"/>
      <point x="484" y="999" type="curve" smooth="yes"/>
      <point x="188" y="999"/>
      <point x="54" y="741"/>
      <point x="54" y="476" type="curve" smooth="yes"/>
      <point x="54" y="216"/>
      <point x="182" y="-28"/>
    </contour>
    <contour>
      <point x="590" y="299" type="curve" smooth="yes"/>
      <point x="480" y="299"/>
      <point x="396" y="387"/>
      <point x="396" y="496" type="curve" smooth="yes"/>
      <point x="396" y="605"/>
      <point x="467" y="710"/>
      <point x="584" y="710" type="curve" smooth="yes"/>
      <point x="653" y="710"/>
      <point x="732" y="689"/>
      <point x="774" y="630" type="curve"/>
      <point x="774" y="384" type="line"/>
      <point x="733" y="323"/>
      <point x="661" y="299"/>
    </contour>
  </outline>
</glyph>
<glyph name="b" format="2">
  <advance width="1206"/>
  <unicode hex="0062"/>
  <anchor x="594" y="0" name="bottom"/>
  <anchor x="594" y="971" name="top"/>
  <outline>
    <contour>
      <point x="1152" y="495" type="curve" smooth="yes"/>
      <point x="1152" y="761"/>
      <point x="1031" y="1020"/>
      <point x="729" y="1020" type="curve" smooth="yes"/>
      <point x="626" y="1020"/>
      <point x="537" y="988"/>
      <point x="458" y="921" type="curve"/>
      <point x="453" y="917"/>
      <point x="444" y="908"/>
      <point x="437" y="908" type="curve" smooth="yes"/>
      <point x="427" y="908"/>
      <point x="427" y="929"/>
      <point x="427" y="934" type="curve" smooth="yes"/>
      <point x="427" y="1047"/>
      <point x="426" y="1158"/>
      <point x="425" y="1271" type="curve" smooth="yes"/>
      <point x="425" y="1323"/>
      <point x="429" y="1380"/>
      <point x="424" y="1432" type="curve" smooth="yes"/>
      <point x="421" y="1466"/>
      <point x="410" y="1482"/>
      <point x="373" y="1482" type="curve" smooth="yes"/>
      <point x="137" y="1482" type="line" smooth="yes"/>
      <point x="101" y="1482"/>
      <point x="86" y="1465"/>
      <point x="86" y="1430" type="curve" smooth="yes"/>
      <point x="86" y="1354"/>
      <point x="90" y="1277"/>
      <point x="91" y="1200" type="curve" smooth="yes"/>
      <point x="94" y="1039"/>
      <point x="95" y="878"/>
      <point x="95" y="717" type="curve" smooth="yes"/>
      <point x="95" y="567"/>
      <point x="94" y="417"/>
      <point x="92" y="267" type="curve" smooth="yes"/>
      <point x="91" y="196"/>
      <point x="87" y="124"/>
      <point x="87" y="53" type="curve" smooth="yes"/>
      <point x="87" y="18"/>
      <point x="103" y="0"/>
      <point x="139" y="0" type="curve" smooth="yes"/>
      <point x="398" y="0" type="line" smooth="yes"/>
      <point x="450" y="0"/>
      <point x="411" y="85"/>
      <point x="436" y="85" type="curve" smooth="yes"/>
      <point x="444" y="85"/>
      <point x="454" y="72"/>
      <point x="459" y="68" type="curve"/>
      <point x="526" y="4"/>
      <point x="604" y="-28"/>
      <point x="697" y="-28" type="curve" smooth="yes"/>
      <point x="983" y="-28"/>
      <point x="1152" y="230"/>
    </contour>
    <contour>
      <point x="623" y="312" type="curve" smooth="yes"/>
      <point x="550" y="312"/>
      <point x="474" y="336"/>
      <point x="431" y="398" type="curve"/>
      <point x="431" y="644" type="line"/>
      <point x="473" y="704"/>
      <point x="553" y="725"/>
      <point x="623" y="725" type="curve" smooth="yes"/>
      <point x="739" y="725"/>
      <point x="814" y="621"/>
      <point x="814" y="512" type="curve" smooth="yes"/>
      <point x="814" y="403"/>
      <point x="734" y="312"/>
    </contour>
  </outline>
</glyph>
<glyph name="c" format="2">
  <advance width="852"/>
  <unicode hex="0063"/>
  <anchor x="408" y="0" name="bottom"/>
  <anchor x="438" y="1000" name="top"/>
  <outline>
    <contour>
      <point x="687" y="309" type="curve" smooth="yes"/>
      <point x="677" y="309"/>
      <point x="667" y="307"/>
      <point x="658" y="304" type="curve"/>
      <point x="626" y="295"/>
      <point x="596" y="288"/>
      <point x="563" y="288" type="curve" smooth="yes"/>
      <point x="440" y="288"/>
      <point x="385" y="363"/>
      <point x="385" y="480" type="curve" smooth="yes"/>
      <point x="385" y="602"/>
      <point x="446" y="688"/>
      <point x="575" y="688" type="curve" smooth="yes"/>
      <point x="620" y="688"/>
      <point x="657" y="670"/>
      <point x="687" y="670" type="curve" smooth="yes"/>
      <point x="714" y="670"/>
      <point x="724" y="687"/>
      <point x="733" y="709" type="curve" smooth="yes"/>
      <point x="743" y="734"/>
      <point x="801" y="885"/>
      <point x="801" y="901" type="curve" smooth="yes"/>
      <point x="801" y="920"/>
      <point x="791" y="930"/>
      <point x="776" y="939" type="curve" smooth="yes"/>
      <point x="705" y="983"/>
      <point x="615" y="1000"/>
      <point x="532" y="1000" type="curve" smooth="yes"/>
      <point x="216" y="1000"/>
      <point x="49" y="760"/>
      <point x="49" y="463" type="curve" smooth="yes"/>
      <point x="49" y="171"/>
      <point x="205" y="-27"/>
      <point x="508" y="-27" type="curve" smooth="yes"/>
      <point x="586" y="-27"/>
      <point x="697" y="-11"/>
      <point x="767" y="24" type="curve" smooth="yes"/>
      <point x="784" y="33"/>
      <point x="795" y="43"/>
      <point x="795" y="63" type="curve" smooth="yes"/>
      <point x="795" y="78"/>
      <point x="741" y="244"/>
      <point x="732" y="269" type="curve" smooth="yes"/>
      <point x="724" y="291"/>
      <point x="713" y="309"/>
    </contour>
  </outline>
</glyph>
<glyph name="d" format="2">
  <advance width="1208"/>
  <unicode hex="0064"/>
  <anchor x="615" y="0" name="bottom"/>
  <anchor x="941" y="1366" name="center"/>
  <anchor x="615" y="973" name="top"/>
  <anchor x="1220" y="973" name="topright"/>
  <outline>
    <contour>
      <point x="461" y="-28" type="curve" smooth="yes"/>
      <point x="570" y="-28"/>
      <point x="661" y="10"/>
      <point x="743" y="81" type="curve"/>
      <point x="748" y="85"/>
      <point x="756" y="93"/>
      <point x="763" y="93" type="curve" smooth="yes"/>
      <point x="790" y="93"/>
      <point x="747" y="0"/>
      <point x="808" y="0" type="curve" smooth="yes"/>
      <point x="1069" y="0" type="line" smooth="yes"/>
      <point x="1106" y="0"/>
      <point x="1121" y="17"/>
      <point x="1121" y="53" type="curve" smooth="yes"/>
      <point x="1121" y="125"/>
      <point x="1118" y="198"/>
      <point x="1117" y="270" type="curve" smooth="yes"/>
      <point x="1114" y="422"/>
      <point x="1113" y="574"/>
      <point x="1113" y="727" type="curve" smooth="yes"/>
      <point x="1113" y="885"/>
      <point x="1114" y="1044"/>
      <point x="1117" y="1203" type="curve" smooth="yes"/>
      <point x="1118" y="1279"/>
      <point x="1122" y="1354"/>
      <point x="1122" y="1430" type="curve" smooth="yes"/>
      <point x="1122" y="1466"/>
      <point x="1107" y="1483"/>
      <point x="1070" y="1483" type="curve" smooth="yes"/>
      <point x="826" y="1483" type="line" smooth="yes"/>
      <point x="792" y="1483"/>
      <point x="775" y="1466"/>
      <point x="775" y="1432" type="curve" smooth="yes"/>
      <point x="772" y="922" type="line" smooth="yes"/>
      <point x="772" y="916"/>
      <point x="772" y="899"/>
      <point x="762" y="899" type="curve" smooth="yes"/>
      <point x="755" y="899"/>
      <point x="748" y="905"/>
      <point x="743" y="909" type="curve" smooth="yes"/>
      <point x="668" y="967"/>
      <point x="582" y="999"/>
      <point x="487" y="999" type="curve" smooth="yes"/>
      <point x="183" y="999"/>
      <point x="54" y="752"/>
      <point x="54" y="480" type="curve" smooth="yes"/>
      <point x="54" y="226"/>
      <point x="173" y="-28"/>
    </contour>
    <contour>
      <point x="404" y="500" type="curve" smooth="yes"/>
      <point x="404" y="604"/>
      <point x="474" y="712"/>
      <point x="587" y="712" type="curve" smooth="yes"/>
      <point x="655" y="712"/>
      <point x="730" y="691"/>
      <point x="771" y="633" type="curve"/>
      <point x="771" y="551"/>
      <point x="771" y="468"/>
      <point x="772" y="386" type="curve"/>
      <point x="732" y="327"/>
      <point x="660" y="302"/>
      <point x="591" y="302" type="curve" smooth="yes"/>
      <point x="480" y="302"/>
      <point x="404" y="392"/>
    </contour>
  </outline>
</glyph>
<glyph name="e" format="2">
  <advance width="1026"/>
  <unicode hex="0065"/>
  <anchor x="563" y="0" name="bottom"/>
  <anchor x="974" y="22" name="ogonek"/>
  <anchor x="593" y="1031" name="top"/>
  <outline>
    <contour>
      <point x="559" y="-29" type="curve" smooth="yes"/>
      <point x="678" y="-29"/>
      <point x="841" y="2"/>
      <point x="940" y="70" type="curve" smooth="yes"/>
      <point x="954" y="80"/>
      <point x="964" y="89"/>
      <point x="964" y="108" type="curve" smooth="yes"/>
      <point x="964" y="124"/>
      <point x="912" y="248"/>
      <point x="902" y="268" type="curve" smooth="yes"/>
      <point x="893" y="286"/>
      <point x="885" y="303"/>
      <point x="861" y="303" type="curve" smooth="yes"/>
      <point x="850" y="303"/>
      <point x="839" y="299"/>
      <point x="829" y="294" type="curve"/>
      <point x="760" y="262"/>
      <point x="693" y="234"/>
      <point x="616" y="234" type="curve" smooth="yes"/>
      <point x="532" y="234"/>
      <point x="457" y="269"/>
      <point x="415" y="343" type="curve"/>
      <point x="413" y="346"/>
      <point x="413" y="349"/>
      <point x="413" y="352" type="curve" smooth="yes"/>
      <point x="413" y="359"/>
      <point x="418" y="362"/>
      <point x="424" y="364" type="curve"/>
      <point x="467" y="381"/>
      <point x="512" y="394"/>
      <point x="556" y="409" type="curve" smooth="yes"/>
      <point x="819" y="499" type="line" smooth="yes"/>
      <point x="857" y="512"/>
      <point x="897" y="524"/>
      <point x="934" y="539" type="curve" smooth="yes"/>
      <point x="955" y="547"/>
      <point x="968" y="558"/>
      <point x="968" y="582" type="curve" smooth="yes"/>
      <point x="968" y="586"/>
      <point x="968" y="589"/>
      <point x="967" y="593" type="curve"/>
      <point x="926" y="839"/>
      <point x="804" y="998"/>
      <point x="539" y="998" type="curve" smooth="yes"/>
      <point x="225" y="998"/>
      <point x="54" y="779"/>
      <point x="54" y="478" type="curve" smooth="yes"/>
      <point x="54" y="153"/>
      <point x="234" y="-29"/>
    </contour>
    <contour>
      <point x="385" y="540" type="line"/>
      <point x="393" y="631"/>
      <point x="431" y="719"/>
      <point x="536" y="719" type="curve" smooth="yes"/>
      <point x="596" y="719"/>
      <point x="633" y="683"/>
      <point x="653" y="629" type="curve"/>
    </contour>
  </outline>
</glyph>
<glyph name="f" format="2">
  <advance width="723"/>
  <unicode hex="0066"/>
  <anchor x="407" y="0" name="bottom"/>
  <anchor x="407" y="971" name="top"/>
  <outline>
    <contour>
      <point x="221" y="0" type="curve" smooth="yes"/>
      <point x="457" y="0" type="line" smooth="yes"/>
      <point x="492" y="0"/>
      <point x="509" y="18"/>
      <point x="509" y="52" type="curve" smooth="yes"/>
      <point x="509" y="262"/>
      <point x="506" y="472"/>
      <point x="506" y="682" type="curve" smooth="yes"/>
      <point x="506" y="693"/>
      <point x="512" y="698"/>
      <point x="523" y="698" type="curve" smooth="yes"/>
      <point x="605" y="698" type="line" smooth="yes"/>
      <point x="639" y="698"/>
      <point x="657" y="715"/>
      <point x="657" y="749" type="curve" smooth="yes"/>
      <point x="657" y="927" type="line" smooth="yes"/>
      <point x="657" y="1027"/>
      <point x="507" y="945"/>
      <point x="507" y="995" type="curve" smooth="yes"/>
      <point x="507" y="1062"/>
      <point x="502" y="1183"/>
      <point x="599" y="1183" type="curve" smooth="yes"/>
      <point x="611" y="1183"/>
      <point x="622" y="1180"/>
      <point x="634" y="1180" type="curve" smooth="yes"/>
      <point x="649" y="1180"/>
      <point x="653" y="1188"/>
      <point x="657" y="1201" type="curve" smooth="yes"/>
      <point x="663" y="1219"/>
      <point x="703" y="1401"/>
      <point x="703" y="1413" type="curve" smooth="yes"/>
      <point x="703" y="1440"/>
      <point x="686" y="1450"/>
      <point x="662" y="1455" type="curve" smooth="yes"/>
      <point x="617" y="1465"/>
      <point x="566" y="1469"/>
      <point x="520" y="1469" type="curve" smooth="yes"/>
      <point x="266" y="1469"/>
      <point x="172" y="1270"/>
      <point x="172" y="1043" type="curve" smooth="yes"/>
      <point x="172" y="995" type="line" smooth="yes"/>
      <point x="172" y="948"/>
      <point x="44" y="1022"/>
      <point x="44" y="927" type="curve" smooth="yes"/>
      <point x="45" y="749" type="line" smooth="yes"/>
      <point x="45" y="654"/>
      <point x="173" y="729"/>
      <point x="173" y="682" type="curve" smooth="yes"/>
      <point x="173" y="472"/>
      <point x="170" y="262"/>
      <point x="170" y="52" type="curve" smooth="yes"/>
      <point x="170" y="17"/>
      <point x="186" y="0"/>
    </contour>
  </outline>
</glyph>
<glyph name="g" format="2">
  <advance width="1169"/>
  <unicode hex="0067"/>
  <anchor x="583" y="0" name="bottom"/>
  <anchor x="583" y="1028" name="top"/>
  <outline>
    <contour>
      <point x="549" y="-391" type="curve" smooth="yes"/>
      <point x="808" y="-391"/>
      <point x="1081" y="-216"/>
      <point x="1081" y="65" type="curve" smooth="yes"/>
      <point x="1081" y="275"/>
      <point x="1074" y="484"/>
      <point x="1074" y="693" type="curve" smooth="yes"/>
      <point x="1074" y="768"/>
      <point x="1075" y="844"/>
      <point x="1075" y="919" type="curve" smooth="yes"/>
      <point x="1075" y="954"/>
      <point x="1058" y="971"/>
      <point x="1023" y="971" type="curve" smooth="yes"/>
      <point x="848" y="971" type="line" smooth="yes"/>
      <point x="782" y="971"/>
      <point x="801" y="882"/>
      <point x="776" y="882" type="curve" smooth="yes"/>
      <point x="769" y="882"/>
      <point x="763" y="889"/>
      <point x="759" y="893" type="curve" smooth="yes"/>
      <point x="686" y="964"/>
      <point x="590" y="998"/>
      <point x="489" y="998" type="curve" smooth="yes"/>
      <point x="213" y="998"/>
      <point x="54" y="734"/>
      <point x="54" y="483" type="curve" smooth="yes"/>
      <point x="54" y="227"/>
      <point x="214" y="3"/>
      <point x="485" y="3" type="curve" smooth="yes"/>
      <point x="576" y="3"/>
      <point x="670" y="39"/>
      <point x="731" y="107" type="curve"/>
      <point x="733" y="109"/>
      <point x="735" y="114"/>
      <point x="739" y="114" type="curve"/>
      <point x="743" y="111"/>
      <point x="742" y="97"/>
      <point x="742" y="91" type="curve" smooth="yes"/>
      <point x="742" y="-42"/>
      <point x="598" y="-89"/>
      <point x="487" y="-89" type="curve" smooth="yes"/>
      <point x="407" y="-89"/>
      <point x="357" y="-75"/>
      <point x="284" y="-43" type="curve" smooth="yes"/>
      <point x="275" y="-39"/>
      <point x="266" y="-36"/>
      <point x="256" y="-36" type="curve" smooth="yes"/>
      <point x="239" y="-36"/>
      <point x="227" y="-46"/>
      <point x="217" y="-59" type="curve" smooth="yes"/>
      <point x="198" y="-84"/>
      <point x="124" y="-170"/>
      <point x="124" y="-199" type="curve" smooth="yes"/>
      <point x="124" y="-213"/>
      <point x="132" y="-224"/>
      <point x="142" y="-234" type="curve" smooth="yes"/>
      <point x="251" y="-341"/>
      <point x="399" y="-391"/>
    </contour>
    <contour>
      <point x="570" y="297" type="curve" smooth="yes"/>
      <point x="452" y="297"/>
      <point x="383" y="394"/>
      <point x="383" y="505" type="curve" smooth="yes"/>
      <point x="383" y="605"/>
      <point x="449" y="711"/>
      <point x="559" y="711" type="curve" smooth="yes"/>
      <point x="625" y="711"/>
      <point x="696" y="686"/>
      <point x="734" y="629" type="curve"/>
      <point x="734" y="547"/>
      <point x="735" y="465"/>
      <point x="735" y="383" type="curve"/>
      <point x="699" y="327"/>
      <point x="636" y="297"/>
    </contour>
  </outline>
</glyph>
<glyph name="h" format="2">
  <advance width="1161"/>
  <unicode hex="0068"/>
  <anchor x="581" y="0" name="bottom"/>
  <anchor x="296" y="1370" name="center"/>
  <anchor x="262" y="1707" name="top"/>
  <outline>
    <contour>
      <point x="138" y="0" type="curve" smooth="yes"/>
      <point x="384" y="0" type="line" smooth="yes"/>
      <point x="420" y="0"/>
      <point x="433" y="17"/>
      <point x="435" y="51" type="curve" smooth="yes"/>
      <point x="437" y="79"/>
      <point x="436" y="108"/>
      <point x="436" y="136" type="curve" smooth="yes"/>
      <point x="437" y="204"/>
      <point x="437" y="272"/>
      <point x="437" y="340" type="curve" smooth="yes"/>
      <point x="437" y="464"/>
      <point x="461" y="689"/>
      <point x="626" y="689" type="curve" smooth="yes"/>
      <point x="698" y="689"/>
      <point x="725" y="651"/>
      <point x="725" y="583" type="curve" smooth="yes"/>
      <point x="728" y="51" type="line" smooth="yes"/>
      <point x="728" y="17"/>
      <point x="745" y="0"/>
      <point x="779" y="0" type="curve" smooth="yes"/>
      <point x="1022" y="0" type="line" smooth="yes"/>
      <point x="1058" y="0"/>
      <point x="1074" y="16"/>
      <point x="1074" y="52" type="curve" smooth="yes"/>
      <point x="1074" y="123"/>
      <point x="1071" y="195"/>
      <point x="1070" y="267" type="curve" smooth="yes"/>
      <point x="1067" y="417"/>
      <point x="1066" y="567"/>
      <point x="1066" y="717" type="curve" smooth="yes"/>
      <point x="1066" y="896"/>
      <point x="907" y="1001"/>
      <point x="741" y="1001" type="curve" smooth="yes"/>
      <point x="626" y="1001"/>
      <point x="539" y="958"/>
      <point x="463" y="874" type="curve"/>
      <point x="459" y="869"/>
      <point x="448" y="856"/>
      <point x="440" y="856" type="curve" smooth="yes"/>
      <point x="430" y="856"/>
      <point x="431" y="881"/>
      <point x="431" y="885" type="curve" smooth="yes"/>
      <point x="428" y="1433" type="line" smooth="yes"/>
      <point x="428" y="1467"/>
      <point x="411" y="1484"/>
      <point x="377" y="1484" type="curve" smooth="yes"/>
      <point x="138" y="1484" type="line" smooth="yes"/>
      <point x="101" y="1484"/>
      <point x="86" y="1467"/>
      <point x="86" y="1431" type="curve" smooth="yes"/>
      <point x="86" y="1355"/>
      <point x="90" y="1280"/>
      <point x="91" y="1204" type="curve" smooth="yes"/>
      <point x="94" y="1045"/>
      <point x="95" y="886"/>
      <point x="95" y="727" type="curve" smooth="yes"/>
      <point x="95" y="574"/>
      <point x="94" y="422"/>
      <point x="91" y="270" type="curve" smooth="yes"/>
      <point x="90" y="197"/>
      <point x="87" y="124"/>
      <point x="87" y="52" type="curve" smooth="yes"/>
      <point x="87" y="17"/>
      <point x="102" y="0"/>
    </contour>
  </outline>
</glyph>
<glyph name="i" format="2">
  <advance width="563"/>
  <unicode hex="0069"/>
  <anchor x="248" y="0" name="bottom"/>
  <anchor x="702" y="22" name="ogonek"/>
  <anchor x="283" y="1541" name="top"/>
  <outline>
    <contour>
      <point x="109" y="703" type="line" smooth="yes"/>
      <point x="109" y="486"/>
      <point x="106" y="269"/>
      <point x="106" y="52" type="curve" smooth="yes"/>
      <point x="106" y="17"/>
      <point x="123" y="0"/>
      <point x="158" y="0" type="curve" smooth="yes"/>
      <point x="394" y="0" type="line" smooth="yes"/>
      <point x="429" y="0"/>
      <point x="446" y="17"/>
      <point x="446" y="52" type="curve" smooth="yes"/>
      <point x="446" y="341"/>
      <point x="443" y="631"/>
      <point x="443" y="920" type="curve" smooth="yes"/>
      <point x="443" y="954"/>
      <point x="426" y="971"/>
      <point x="392" y="971" type="curve" smooth="yes"/>
      <point x="160" y="971" type="line" smooth="yes"/>
      <point x="126" y="971"/>
      <point x="109" y="954"/>
      <point x="109" y="920" type="curve" smooth="yes"/>
    </contour>
    <contour>
      <point x="93" y="1351" type="curve" smooth="yes"/>
      <point x="93" y="1246"/>
      <point x="183" y="1162"/>
      <point x="287" y="1162" type="curve" smooth="yes"/>
      <point x="388" y="1162"/>
      <point x="481" y="1244"/>
      <point x="481" y="1348" type="curve" smooth="yes"/>
      <point x="481" y="1451"/>
      <point x="393" y="1542"/>
      <point x="289" y="1542" type="curve" smooth="yes"/>
      <point x="185" y="1542"/>
      <point x="93" y="1456"/>
    </contour>
  </outline>
</glyph>
<glyph name="j" format="2">
  <advance width="569"/>
  <unicode hex="006A"/>
  <anchor x="311" y="0" name="bottom"/>
  <anchor x="307" y="1512" name="top"/>
  <outline>
    <contour>
      <point x="484" y="-10" type="curve" smooth="yes"/>
      <point x="484" y="300"/>
      <point x="481" y="611"/>
      <point x="481" y="922" type="curve" smooth="yes"/>
      <point x="481" y="956"/>
      <point x="464" y="973"/>
      <point x="430" y="973" type="curve" smooth="yes"/>
      <point x="186" y="973" type="line" smooth="yes"/>
      <point x="152" y="973"/>
      <point x="135" y="956"/>
      <point x="135" y="922" type="curve" smooth="yes"/>
      <point x="136" y="596" type="line" smooth="yes"/>
      <point x="136" y="408"/>
      <point x="135" y="221"/>
      <point x="133" y="33" type="curve" smooth="yes"/>
      <point x="132" y="-57"/>
      <point x="112" y="-123"/>
      <point x="50" y="-189" type="curve"/>
      <point x="38" y="-201"/>
      <point x="26" y="-213"/>
      <point x="26" y="-231" type="curve" smooth="yes"/>
      <point x="26" y="-245"/>
      <point x="33" y="-256"/>
      <point x="41" y="-266" type="curve"/>
      <point x="68" y="-302"/>
      <point x="98" y="-337"/>
      <point x="126" y="-372" type="curve" smooth="yes"/>
      <point x="145" y="-396"/>
      <point x="164" y="-422"/>
      <point x="185" y="-445" type="curve" smooth="yes"/>
      <point x="195" y="-456"/>
      <point x="205" y="-464"/>
      <point x="221" y="-464" type="curve" smooth="yes"/>
      <point x="229" y="-464"/>
      <point x="237" y="-462"/>
      <point x="244" y="-458" type="curve"/>
      <point x="431" y="-366"/>
      <point x="484" y="-208"/>
    </contour>
    <contour>
      <point x="309" y="1178" type="curve" smooth="yes"/>
      <point x="409" y="1178"/>
      <point x="493" y="1266"/>
      <point x="493" y="1365" type="curve" smooth="yes"/>
      <point x="493" y="1463"/>
      <point x="414" y="1559"/>
      <point x="312" y="1559" type="curve" smooth="yes"/>
      <point x="214" y="1559"/>
      <point x="130" y="1469"/>
      <point x="130" y="1372" type="curve" smooth="yes"/>
      <point x="130" y="1270"/>
      <point x="201" y="1178"/>
    </contour>
  </outline>
</glyph>
<glyph name="k" format="2">
  <advance width="1231"/>
  <unicode hex="006B"/>
  <anchor x="588" y="0" name="bottom"/>
  <anchor x="588" y="971" name="top"/>
  <outline>
    <contour>
      <point x="139" y="0" type="curve" smooth="yes"/>
      <point x="375" y="0" type="line" smooth="yes"/>
      <point x="411" y="0"/>
      <point x="425" y="17"/>
      <point x="427" y="51" type="curve" smooth="yes"/>
      <point x="431" y="126"/>
      <point x="423" y="202"/>
      <point x="428" y="276" type="curve"/>
      <point x="429" y="284"/>
      <point x="431" y="288"/>
      <point x="439" y="291" type="curve"/>
      <point x="479" y="308"/>
      <point x="522" y="321"/>
      <point x="563" y="337" type="curve"/>
      <point x="565" y="338"/>
      <point x="569" y="338"/>
      <point x="571" y="338" type="curve" smooth="yes"/>
      <point x="576" y="338"/>
      <point x="580" y="335"/>
      <point x="583" y="331" type="curve" smooth="yes"/>
      <point x="643" y="253"/>
      <point x="697" y="171"/>
      <point x="754" y="91" type="curve" smooth="yes"/>
      <point x="771" y="68"/>
      <point x="787" y="43"/>
      <point x="805" y="21" type="curve" smooth="yes"/>
      <point x="816" y="7"/>
      <point x="827" y="0"/>
      <point x="846" y="0" type="curve" smooth="yes"/>
      <point x="1118" y="0" type="line" smooth="yes"/>
      <point x="1140" y="0"/>
      <point x="1180" y="3"/>
      <point x="1180" y="33" type="curve" smooth="yes"/>
      <point x="1180" y="50"/>
      <point x="1169" y="66"/>
      <point x="1160" y="80" type="curve" smooth="yes"/>
      <point x="1131" y="125"/>
      <point x="889" y="487"/>
      <point x="889" y="501" type="curve" smooth="yes"/>
      <point x="889" y="506"/>
      <point x="893" y="510"/>
      <point x="897" y="513" type="curve" smooth="yes"/>
      <point x="1037" y="621"/>
      <point x="1139" y="739"/>
      <point x="1176" y="917" type="curve" smooth="yes"/>
      <point x="1177" y="922"/>
      <point x="1178" y="928"/>
      <point x="1178" y="933" type="curve" smooth="yes"/>
      <point x="1178" y="963"/>
      <point x="1155" y="974"/>
      <point x="1128" y="974" type="curve" smooth="yes"/>
      <point x="856" y="974" type="line" smooth="yes"/>
      <point x="823" y="974"/>
      <point x="810" y="958"/>
      <point x="802" y="928" type="curve" smooth="yes"/>
      <point x="754" y="755"/>
      <point x="613" y="664"/>
      <point x="451" y="607" type="curve" smooth="yes"/>
      <point x="448" y="606"/>
      <point x="445" y="605"/>
      <point x="442" y="605" type="curve" smooth="yes"/>
      <point x="432" y="605"/>
      <point x="429" y="614"/>
      <point x="429" y="622" type="curve" smooth="yes"/>
      <point x="430" y="717" type="line" smooth="yes"/>
      <point x="430" y="878"/>
      <point x="429" y="1040"/>
      <point x="428" y="1201" type="curve" smooth="yes"/>
      <point x="428" y="1277"/>
      <point x="429" y="1356"/>
      <point x="426" y="1432" type="curve" smooth="yes"/>
      <point x="424" y="1466"/>
      <point x="410" y="1482"/>
      <point x="375" y="1482" type="curve" smooth="yes"/>
      <point x="137" y="1482" type="line" smooth="yes"/>
      <point x="101" y="1482"/>
      <point x="86" y="1465"/>
      <point x="86" y="1430" type="curve" smooth="yes"/>
      <point x="86" y="1354"/>
      <point x="90" y="1277"/>
      <point x="91" y="1200" type="curve" smooth="yes"/>
      <point x="94" y="1039"/>
      <point x="96" y="878"/>
      <point x="96" y="717" type="curve" smooth="yes"/>
      <point x="96" y="567"/>
      <point x="95" y="417"/>
      <point x="92" y="267" type="curve" smooth="yes"/>
      <point x="91" y="196"/>
      <point x="87" y="124"/>
      <point x="87" y="53" type="curve" smooth="yes"/>
      <point x="87" y="18"/>
      <point x="103" y="0"/>
    </contour>
  </outline>
</glyph>
<glyph name="l" format="2">
  <advance width="547"/>
  <unicode hex="006C"/>
  <anchor x="276" y="0" name="bottom"/>
  <anchor x="276" y="487" name="center"/>
  <anchor x="281" y="1746" name="top"/>
  <anchor x="627" y="971" name="topright"/>
  <outline>
    <contour>
      <point x="104" y="1431" type="curve" smooth="yes"/>
      <point x="104" y="1193"/>
      <point x="107" y="955"/>
      <point x="107" y="717" type="curve" smooth="yes"/>
      <point x="107" y="495"/>
      <point x="105" y="274"/>
      <point x="105" y="52" type="curve" smooth="yes"/>
      <point x="105" y="18"/>
      <point x="121" y="0"/>
      <point x="156" y="0" type="curve" smooth="yes"/>
      <point x="392" y="0" type="line" smooth="yes"/>
      <point x="427" y="0"/>
      <point x="444" y="18"/>
      <point x="444" y="52" type="curve" smooth="yes"/>
      <point x="444" y="274"/>
      <point x="441" y="495"/>
      <point x="441" y="717" type="curve" smooth="yes"/>
      <point x="441" y="955"/>
      <point x="444" y="1193"/>
      <point x="444" y="1431" type="curve" smooth="yes"/>
      <point x="444" y="1465"/>
      <point x="428" y="1482"/>
      <point x="393" y="1482" type="curve" smooth="yes"/>
      <point x="155" y="1482" type="line" smooth="yes"/>
      <point x="120" y="1482"/>
      <point x="104" y="1465"/>
    </contour>
  </outline>
</glyph>
<glyph name="m" format="2">
  <advance width="1788"/>
  <unicode hex="006D"/>
  <anchor x="896" y="0" name="bottom"/>
  <anchor x="896" y="971" name="top"/>
  <outline>
    <contour>
      <point x="361" y="971" type="curve" smooth="yes"/>
      <point x="151" y="971" type="line" smooth="yes"/>
      <point x="114" y="971"/>
      <point x="101" y="954"/>
      <point x="99" y="919" type="curve" smooth="yes"/>
      <point x="96" y="853"/>
      <point x="100" y="783"/>
      <point x="100" y="717" type="curve" smooth="yes"/>
      <point x="100" y="567"/>
      <point x="99" y="417"/>
      <point x="95" y="267" type="curve" smooth="yes"/>
      <point x="93" y="196"/>
      <point x="88" y="124"/>
      <point x="88" y="53" type="curve" smooth="yes"/>
      <point x="88" y="17"/>
      <point x="102" y="0" name=".hr01"/>
      <point x="139" y="0" type="curve" smooth="yes"/>
      <point x="376" y="0" type="line" smooth="yes"/>
      <point x="411" y="0"/>
      <point x="424" y="16"/>
      <point x="427" y="50" type="curve" smooth="yes"/>
      <point x="430" y="81"/>
      <point x="428" y="114"/>
      <point x="429" y="145" type="curve" smooth="yes"/>
      <point x="430" y="214"/>
      <point x="431" y="282"/>
      <point x="432" y="351" type="curve" smooth="yes"/>
      <point x="434" y="466"/>
      <point x="483" y="687"/>
      <point x="631" y="687" type="curve" smooth="yes"/>
      <point x="711" y="687"/>
      <point x="729" y="638"/>
      <point x="729" y="567" type="curve" smooth="yes"/>
      <point x="729" y="395"/>
      <point x="726" y="224"/>
      <point x="726" y="52" type="curve" smooth="yes"/>
      <point x="726" y="17"/>
      <point x="743" y="0"/>
      <point x="778" y="0" type="curve" smooth="yes"/>
      <point x="1014" y="0" type="line" smooth="yes"/>
      <point x="1051" y="0"/>
      <point x="1064" y="17"/>
      <point x="1066" y="52" type="curve" smooth="yes"/>
      <point x="1068" y="83"/>
      <point x="1065" y="115"/>
      <point x="1065" y="147" type="curve" smooth="yes"/>
      <point x="1064" y="339" type="line"/>
      <point x="1064" y="346" type="line" smooth="yes"/>
      <point x="1064" y="465"/>
      <point x="1109" y="687"/>
      <point x="1263" y="687" type="curve" smooth="yes"/>
      <point x="1347" y="687"/>
      <point x="1357" y="634"/>
      <point x="1357" y="563" type="curve" smooth="yes"/>
      <point x="1357" y="453"/>
      <point x="1358" y="342"/>
      <point x="1360" y="232" type="curve" smooth="yes"/>
      <point x="1361" y="172"/>
      <point x="1359" y="110"/>
      <point x="1364" y="50" type="curve" smooth="yes"/>
      <point x="1367" y="16"/>
      <point x="1380" y="0"/>
      <point x="1415" y="0" type="curve" smooth="yes"/>
      <point x="1649" y="0" type="line" smooth="yes"/>
      <point x="1686" y="0"/>
      <point x="1700" y="17"/>
      <point x="1700" y="53" type="curve" smooth="yes"/>
      <point x="1700" y="124"/>
      <point x="1695" y="196"/>
      <point x="1693" y="267" type="curve" smooth="yes"/>
      <point x="1689" y="417"/>
      <point x="1688" y="566"/>
      <point x="1688" y="716" type="curve" smooth="yes"/>
      <point x="1688" y="894"/>
      <point x="1554" y="998"/>
      <point x="1384" y="998" type="curve" smooth="yes"/>
      <point x="1205" y="998"/>
      <point x="1087" y="819"/>
      <point x="1073" y="819" type="curve" smooth="yes"/>
      <point x="1065" y="819"/>
      <point x="1061" y="829"/>
      <point x="1058" y="835" type="curve"/>
      <point x="1000" y="960"/>
      <point x="906" y="998"/>
      <point x="773" y="998" type="curve" smooth="yes"/>
      <point x="632" y="998"/>
      <point x="543" y="940"/>
      <point x="464" y="827" type="curve"/>
      <point x="461" y="822"/>
      <point x="453" y="809"/>
      <point x="445" y="809" type="curve" smooth="yes"/>
      <point x="431" y="809"/>
      <point x="415" y="911"/>
      <point x="411" y="930" type="curve" smooth="yes"/>
      <point x="405" y="957"/>
      <point x="389" y="971"/>
    </contour>
  </outline>
</glyph>
<glyph name="n" format="2">
  <advance width="1161"/>
  <unicode hex="006E"/>
  <anchor x="581" y="0" name="bottom"/>
  <anchor x="581" y="1000" name="top"/>
  <outline>
    <contour>
      <point x="358" y="971" type="curve" smooth="yes"/>
      <point x="146" y="971" type="line" smooth="yes"/>
      <point x="109" y="971"/>
      <point x="96" y="954"/>
      <point x="94" y="919" type="curve" smooth="yes"/>
      <point x="90" y="850"/>
      <point x="95" y="764"/>
      <point x="95" y="692" type="curve" smooth="yes"/>
      <point x="95" y="548"/>
      <point x="94" y="403"/>
      <point x="91" y="259" type="curve" smooth="yes"/>
      <point x="90" y="190"/>
      <point x="87" y="121"/>
      <point x="87" y="52" type="curve" smooth="yes"/>
      <point x="87" y="17"/>
      <point x="102" y="0"/>
      <point x="138" y="0" type="curve" smooth="yes"/>
      <point x="375" y="0" type="line" smooth="yes"/>
      <point x="411" y="0"/>
      <point x="424" y="17"/>
      <point x="426" y="51" type="curve" smooth="yes"/>
      <point x="428" y="83"/>
      <point x="427" y="116"/>
      <point x="427" y="148" type="curve" smooth="yes"/>
      <point x="428" y="212"/>
      <point x="428" y="277"/>
      <point x="428" y="341" type="curve" smooth="yes"/>
      <point x="428" y="459"/>
      <point x="462" y="690"/>
      <point x="619" y="690" type="curve" smooth="yes"/>
      <point x="695" y="690"/>
      <point x="733" y="662"/>
      <point x="733" y="583" type="curve" smooth="yes"/>
      <point x="736" y="51" type="line" smooth="yes"/>
      <point x="736" y="17"/>
      <point x="753" y="0"/>
      <point x="787" y="0" type="curve" smooth="yes"/>
      <point x="1022" y="0" type="line" smooth="yes"/>
      <point x="1058" y="0"/>
      <point x="1074" y="16"/>
      <point x="1074" y="52" type="curve" smooth="yes"/>
      <point x="1074" y="123"/>
      <point x="1071" y="195"/>
      <point x="1070" y="266" type="curve" smooth="yes"/>
      <point x="1067" y="416"/>
      <point x="1066" y="565"/>
      <point x="1066" y="715" type="curve" smooth="yes"/>
      <point x="1066" y="888"/>
      <point x="925" y="998"/>
      <point x="760" y="998" type="curve" smooth="yes"/>
      <point x="630" y="998"/>
      <point x="538" y="942"/>
      <point x="459" y="842" type="curve" smooth="yes"/>
      <point x="455" y="837"/>
      <point x="449" y="827"/>
      <point x="442" y="827" type="curve" smooth="yes"/>
      <point x="411" y="827"/>
      <point x="436" y="971"/>
    </contour>
  </outline>
</glyph>
<glyph name="o" format="2">
  <advance width="1083"/>
  <unicode hex="006F"/>
  <anchor x="543" y="0" name="bottom"/>
  <anchor x="543" y="488" name="center"/>
  <anchor x="1020" y="22" name="ogonek"/>
  <anchor x="543" y="1030" name="top"/>
  <anchor x="897" y="973" name="topright"/>
  <outline>
    <contour>
      <point x="53" y="480" type="curve" smooth="yes"/>
      <point x="53" y="173"/>
      <point x="235" y="-28"/>
      <point x="547" y="-28" type="curve" smooth="yes"/>
      <point x="861" y="-28"/>
      <point x="1031" y="187"/>
      <point x="1031" y="489" type="curve" smooth="yes"/>
      <point x="1031" y="781"/>
      <point x="857" y="1000"/>
      <point x="554" y="1000" type="curve" smooth="yes"/>
      <point x="245" y="1000"/>
      <point x="53" y="782"/>
    </contour>
    <contour>
      <point x="401" y="500" type="curve" smooth="yes"/>
      <point x="401" y="590"/>
      <point x="438" y="702"/>
      <point x="546" y="702" type="curve" smooth="yes"/>
      <point x="652" y="702"/>
      <point x="684" y="592"/>
      <point x="684" y="504" type="curve" smooth="yes"/>
      <point x="684" y="411"/>
      <point x="655" y="295"/>
      <point x="541" y="295" type="curve" smooth="yes"/>
      <point x="438" y="295"/>
      <point x="401" y="416"/>
    </contour>
  </outline>
</glyph>
<glyph name="p" format="2">
  <advance width="1233"/>
  <unicode hex="0070"/>
  <anchor x="606" y="0" name="bottom"/>
  <anchor x="606" y="971" name="top"/>
  <outline>
    <contour>
      <point x="1179" y="480" type="curve" smooth="yes"/>
      <point x="1179" y="778"/>
      <point x="1034" y="998"/>
      <point x="716" y="998" type="curve" smooth="yes"/>
      <point x="606" y="998"/>
      <point x="523" y="964"/>
      <point x="437" y="897" type="curve" smooth="yes"/>
      <point x="433" y="894"/>
      <point x="429" y="891"/>
      <point x="424" y="891" type="curve" smooth="yes"/>
      <point x="400" y="891"/>
      <point x="407" y="971" name=".hr01"/>
      <point x="347" y="971" type="curve" smooth="yes"/>
      <point x="146" y="971" type="line" smooth="yes"/>
      <point x="109" y="971"/>
      <point x="97" y="954"/>
      <point x="95" y="919" type="curve" smooth="yes"/>
      <point x="92" y="853"/>
      <point x="96" y="784"/>
      <point x="96" y="718" type="curve" smooth="yes"/>
      <point x="96" y="486"/>
      <point x="93" y="254"/>
      <point x="87" y="22" type="curve" smooth="yes"/>
      <point x="84" y="-88"/>
      <point x="76" y="-200"/>
      <point x="76" y="-310" type="curve" smooth="yes"/>
      <point x="76" y="-346"/>
      <point x="90" y="-363"/>
      <point x="127" y="-363" type="curve" smooth="yes"/>
      <point x="369" y="-363" type="line" smooth="yes"/>
      <point x="405" y="-363"/>
      <point x="418" y="-346"/>
      <point x="420" y="-312" type="curve" smooth="yes"/>
      <point x="422" y="-286"/>
      <point x="421" y="-261"/>
      <point x="421" y="-235" type="curve" smooth="yes"/>
      <point x="422" y="-147"/>
      <point x="420" y="-58"/>
      <point x="424" y="30" type="curve"/>
      <point x="424" y="35"/>
      <point x="423" y="56"/>
      <point x="434" y="56" type="curve" smooth="yes"/>
      <point x="442" y="56"/>
      <point x="451" y="48"/>
      <point x="456" y="44" type="curve" smooth="yes"/>
      <point x="521" y="-8"/>
      <point x="593" y="-28"/>
      <point x="676" y="-28" type="curve" smooth="yes"/>
      <point x="994" y="-28"/>
      <point x="1179" y="164"/>
    </contour>
    <contour>
      <point x="624" y="294" type="curve" smooth="yes"/>
      <point x="552" y="294"/>
      <point x="470" y="318"/>
      <point x="431" y="383" type="curve"/>
      <point x="431" y="629" type="line"/>
      <point x="477" y="682"/>
      <point x="549" y="708"/>
      <point x="618" y="708" type="curve" smooth="yes"/>
      <point x="742" y="708"/>
      <point x="841" y="625"/>
      <point x="841" y="497" type="curve" smooth="yes"/>
      <point x="841" y="375"/>
      <point x="742" y="294"/>
    </contour>
  </outline>
</glyph>
<glyph name="q" format="2">
  <advance width="1212"/>
  <unicode hex="0071"/>
  <anchor x="619" y="0" name="bottom"/>
  <anchor x="619" y="971" name="top"/>
  <outline>
    <contour>
      <point x="478" y="-28" type="curve" smooth="yes"/>
      <point x="579" y="-28"/>
      <point x="673" y="-6"/>
      <point x="760" y="47" type="curve" smooth="yes"/>
      <point x="765" y="50"/>
      <point x="771" y="53"/>
      <point x="777" y="53" type="curve" smooth="yes"/>
      <point x="787" y="53"/>
      <point x="788" y="40"/>
      <point x="788" y="33" type="curve"/>
      <point x="792" y="-54"/>
      <point x="789" y="-143"/>
      <point x="790" y="-230" type="curve" smooth="yes"/>
      <point x="790" y="-257"/>
      <point x="789" y="-285"/>
      <point x="791" y="-312" type="curve" smooth="yes"/>
      <point x="793" y="-346"/>
      <point x="807" y="-363"/>
      <point x="843" y="-363" type="curve" smooth="yes"/>
      <point x="1084" y="-363" type="line" smooth="yes"/>
      <point x="1121" y="-363"/>
      <point x="1136" y="-346"/>
      <point x="1136" y="-310" type="curve" smooth="yes"/>
      <point x="1136" y="-200"/>
      <point x="1128" y="-88"/>
      <point x="1125" y="22" type="curve" smooth="yes"/>
      <point x="1119" y="254"/>
      <point x="1117" y="486"/>
      <point x="1117" y="718" type="curve" smooth="yes"/>
      <point x="1117" y="785"/>
      <point x="1117" y="852"/>
      <point x="1117" y="919" type="curve" smooth="yes"/>
      <point x="1117" y="954"/>
      <point x="1101" y="971"/>
      <point x="1066" y="971" type="curve" smooth="yes"/>
      <point x="804" y="971" type="line" smooth="yes"/>
      <point x="766" y="971"/>
      <point x="798" y="908"/>
      <point x="774" y="908" type="curve" smooth="yes"/>
      <point x="767" y="908"/>
      <point x="760" y="914"/>
      <point x="755" y="918" type="curve"/>
      <point x="682" y="973"/>
      <point x="603" y="1005"/>
      <point x="511" y="1005" type="curve" smooth="yes"/>
      <point x="212" y="1005"/>
      <point x="58" y="750"/>
      <point x="54" y="477" type="curve"/>
      <point x="54" y="461" type="line" smooth="yes"/>
      <point x="54" y="197"/>
      <point x="190" y="-28"/>
    </contour>
    <contour>
      <point x="602" y="294" type="curve" smooth="yes"/>
      <point x="482" y="294"/>
      <point x="396" y="378"/>
      <point x="396" y="498" type="curve" smooth="yes"/>
      <point x="396" y="619"/>
      <point x="488" y="708"/>
      <point x="608" y="708" type="curve" smooth="yes"/>
      <point x="674" y="708"/>
      <point x="741" y="681"/>
      <point x="784" y="629" type="curve"/>
      <point x="784" y="383" type="line"/>
      <point x="747" y="322"/>
      <point x="670" y="294"/>
    </contour>
  </outline>
</glyph>
